{
.appVersion = "1240";
DisplayStrings = (
"HHH\012OOO\012HOH\012HHOOHH\012HXH HHXOOH\012HAH HVH\012HWH HYH HTH HJH\012HDH HPH HRH HLH\012HKH HBH HEH HFH\012HUH HIH\012HNH HMH\012HQH HCH HGH\012HZH HSH\012USWDS\012USAID\012USWDS FedRAMP.",
"tracy method\012uon nou noon ooo\012unn nnn\012uxn nxu oxo txt sxs kxf xxx\012uvn uwn uyn ovo tvt svs\012urn umn txt ujn\012uun ubn upn\012ukn uln uhn uin\012ucn uen uqn udn\012ugn uan usn\012uzn uun ufn utn\012noumen",
"Moye triplets\012lnl ana ono vnv\012lal aaa oao vav\012lbl aba obo vbv\012lcl aca oco vcv\012ldl ada odo vdv\012lel aea oeo vev\012lfl afa ofo vfv\012lkl aka oko vkv\012lll ala olo vlv\012lol aoa ooo vov\012lsl asa oso vsv\012lvl ava ovo vvv\012lxl axa oxo vxv\012lpl apa opo vpv oan\012lql aqa oqo vqv",
"Public Sans",
nshnmeotxjs
);
customParameters = (
{
name = fsType;
value = (
);
},
{
name = licenseURL;
value = "http://scripts.sil.org/OFL";
},
{
name = license;
value = "This Font Software is licensed under the SIL Open Font License, Version 1.1. This license is available with a FAQ at: http://scripts.sil.org/OFL";
},
{
name = trademark;
value = "Public Sans is based on Libre Franklin, which is a trademark of Impallari Type.";
},
{
name = description;
value = "Libre Franklin is a reinterpretation and expansion of the 1912 Morris Fuller Benton’s classic.";
},
{
name = note;
value = "Based on Libre Franklin";
},
{
name = Axes;
value = (
{
Name = Weight;
Tag = wght;
}
);
},
{
name = "Variable Font File Name";
value = "PublicSans-Roman-VF";
},
{
name = "Variable Font Family Name";
value = "Public Sans VF";
}
);
date = "2019-06-06 14:55:24 +0000";
designer = "Pablo Impallari, Rodrigo Fuenzalida (Modified by Dan O. Williams and USWDS)";
designerURL = "https://designsystem.digital.gov";
familyName = "Public Sans";
featurePrefixes = (
{
automatic = 1;

glyphs = (
{
glyphname = A;
lastChange = "2019-05-21 04:14:06 +0000";
layers = (
{
anchors = (
{
name = bottom;
position = "{759, 0}";
},
{
name = ogonek;
position = "{1439, 10}";
},
{
name = top;
position = "{759, 1481}";
}
);
background = {
anchors = (
{
name = ogonek;
position = "{1504, 18}";
},
{
name = top;
position = "{785, 1520}";
}
);
paths = (
{
closed = 1;
nodes = (
"376 0 LINE SMOOTH",
"405 0 OFFCURVE",
"419 14 OFFCURVE",
"425 31 CURVE SMOOTH",
"509 272 LINE SMOOTH",
"513 287 OFFCURVE",
"523 295 OFFCURVE",
"540 295 CURVE SMOOTH",
"974 295 LINE SMOOTH",
"994 295 OFFCURVE",
"998 285 OFFCURVE",
"1005 270 CURVE SMOOTH",
"1084 35 LINE SMOOTH",
"1093 8 OFFCURVE",
"1109 0 OFFCURVE",
"1129 0 CURVE SMOOTH",
"1531 0 LINE SMOOTH",
"1562 0 OFFCURVE",
"1570 41 OFFCURVE",
"1560 70 CURVE SMOOTH",
"1068 1464 LINE SMOOTH",
"1056 1497 OFFCURVE",
"1029 1520 OFFCURVE",
"994 1520 CURVE SMOOTH",
"591 1520 LINE SMOOTH",
"554 1520 OFFCURVE",
"542 1505 OFFCURVE",
"529 1473 CURVE SMOOTH",
"34 76 LINE SMOOTH",
"17 31 OFFCURVE",
"34 0 OFFCURVE",
"65 0 CURVE SMOOTH"
);
},
{
closed = 1;
nodes = (
"613 643 OFFCURVE",
"607 659 OFFCURVE",
"617 686 CURVE SMOOTH",
"742 1034 LINE SMOOTH",
"747 1049 OFFCURVE",
"761 1049 OFFCURVE",
"767 1034 CURVE SMOOTH",
"890 684 LINE SMOOTH",
"898 657 OFFCURVE",
"894 643 OFFCURVE",
"871 643 CURVE SMOOTH",
"638 643 LINE SMOOTH"
);
}
);
};
layerId = "258ED206-D907-4350-8EBA-CBDDA1C16BF7";
paths = (
{
closed = 1;
nodes = (
"427 0 LINE",
"527 287 LINE",
"994 287 LINE",
"1093 0 LINE",
"1486 0 LINE",
"962 1481 LINE",
"554 1481 LINE",
"30 0 LINE"
);
},
{
closed = 1;
nodes = (
"759 1100 LINE",
"904 627 LINE",
"611 627 LINE"
);
}
);
width = 1516;
},
{
anchors = (
{
name = bottom;
position = "{718, 0}";
},
{
name = ogonek;
position = "{1312, 25}";
},
{
name = top;
position = "{718, 1481}";
}
);
background = {
anchors = (
{
name = ogonek;
position = "{1330, 23}";
},
{
name = top;
position = "{738, 1520}";
}
);
paths = (
{
closed = 1;
nodes = (
"196 0 LINE SMOOTH",
"208 0 OFFCURVE",
"216 4 OFFCURVE",
"218 14 CURVE SMOOTH",
"388 473 LINE SMOOTH",
"392 483 OFFCURVE",
"396 487 OFFCURVE",
"409 487 CURVE SMOOTH",
"1068 487 LINE SMOOTH",
"1080 487 OFFCURVE",
"1085 483 OFFCURVE",
"1089 473 CURVE SMOOTH",
"1255 16 LINE SMOOTH",
"1259 4 OFFCURVE",
"1267 0 OFFCURVE",
"1281 0 CURVE SMOOTH",
"1330 0 LINE SMOOTH",
"1345 0 OFFCURVE",
"1351 8 OFFCURVE",
"1347 20 CURVE SMOOTH",
"810 1499 LINE SMOOTH",
"806 1513 OFFCURVE",
"794 1520 OFFCURVE",
"773 1520 CURVE SMOOTH",
"706 1520 LINE SMOOTH",
"687 1520 OFFCURVE",
"679 1513 OFFCURVE",
"673 1497 CURVE SMOOTH",
"130 18 LINE SMOOTH",
"126 6 OFFCURVE",
"132 0 OFFCURVE",
"144 0 CURVE SMOOTH"
);
},
{
closed = 1;
nodes = (
"425 569 OFFCURVE",
"421 571 OFFCURVE",
"427 586 CURVE SMOOTH",
"724 1386 LINE SMOOTH",
"734 1415 OFFCURVE",
"745 1415 OFFCURVE",
"755 1389 CURVE SMOOTH",
"1048 590 LINE SMOOTH",
"1052 578 OFFCURVE",
"1050 569 OFFCURVE",
"1033 569 CURVE SMOOTH",
"437 569 LINE SMOOTH"
);
}
);
};
guideLines = (
{
angle = 69.4967;
position = "{116, 110}";
},
{
angle = 110.0797;
position = "{490, 110}";
}
);
layerId = "91AB5BCA-6A50-42DA-B2F7-8181BF189245";
paths = (
{
closed = 1;
nodes = (
"206 0 LINE",
"380 467 LINE",
"1058 467 LINE",
"1228 0 LINE",
"1316 0 LINE",
"775 1481 LINE",
"663 1481 LINE",
"120 0 LINE"
);
},
{
closed = 1;
nodes = (
"720 1395 LINE",
"1027 555 LINE",
"409 555 LINE"
);
}
);
width = 1436;
}
);
leftKerningGroup = A;
leftMetricsKey = X;
rightKerningGroup = A;
rightMetricsKey = X;
unicode = 0041;
},
{
glyphname = Aringacute;
lastChange = "2019-05-08 22:42:16 +0000";
layers = (
{
background = {
paths = (
{
closed = 1;
nodes = (
"438 6 LINE",
"541 301 LINE",
"1020 301 LINE",
"1120 6 LINE",
"1608 6 LINE",
"1071 1526 LINE",
"569 1526 LINE",
"31 6 LINE"
);
},
{
closed = 1;
nodes = (
"778 1073 LINE",
"928 649 LINE",
"627 649 LINE"
);
},
{
closed = 1;
nodes = (
"944 1419 OFFCURVE",
"1044 1503 OFFCURVE",
"1044 1630 CURVE SMOOTH",
"1044 1753 OFFCURVE",
"944 1841 OFFCURVE",
"819 1841 CURVE SMOOTH",
"696 1841 OFFCURVE",
"594 1755 OFFCURVE",
"594 1634 CURVE SMOOTH",
"594 1505 OFFCURVE",
"694 1419 OFFCURVE",
"819 1419 CURVE SMOOTH"
);
},
{
closed = 1;
nodes = (
"764 1528 OFFCURVE",
"717 1575 OFFCURVE",
"717 1628 CURVE SMOOTH",
"717 1683 OFFCURVE",
"764 1724 OFFCURVE",
"817 1724 CURVE SMOOTH",
"872 1724 OFFCURVE",
"915 1683 OFFCURVE",
"915 1628 CURVE SMOOTH",
"915 1575 OFFCURVE",
"872 1528 OFFCURVE",
"817 1528 CURVE SMOOTH"
);
},
{
closed = 1;
nodes = (
"907 1792 LINE",
"958 1915 LINE SMOOTH",
"971 1944 OFFCURVE",
"963 1974 OFFCURVE",
"930 1974 CURVE SMOOTH",
"838 1974 LINE SMOOTH",
"799 1974 OFFCURVE",
"772 1962 OFFCURVE",
"760 1911 CURVE SMOOTH",
"731 1792 LINE"
);
}
);
};
components = (
{
name = A;
},
{
name = _ringacute;
transform = "{1, 0, 0, 1, 7, 0}";
}
);
layerId = "258ED206-D907-4350-8EBA-CBDDA1C16BF7";
width = 1516;
},
{
background = {
paths = (
{
closed = 1;
nodes = (
"897 1755 OFFCURVE",
"807 1843 OFFCURVE",
"692 1843 CURVE SMOOTH",
"580 1843 OFFCURVE",
"487 1755 OFFCURVE",
"487 1647 CURVE SMOOTH",
"487 1528 OFFCURVE",
"578 1438 OFFCURVE",
"692 1438 CURVE SMOOTH",
"807 1438 OFFCURVE",
"897 1526 OFFCURVE",
"897 1642 CURVE SMOOTH"
);
},
{
closed = 1;
nodes = (
"809 1577 OFFCURVE",
"758 1520 OFFCURVE",
"690 1520 CURVE SMOOTH",
"627 1520 OFFCURVE",
"569 1577 OFFCURVE",
"569 1640 CURVE SMOOTH",
"569 1712 OFFCURVE",
"627 1761 OFFCURVE",
"690 1761 CURVE SMOOTH",
"758 1761 OFFCURVE",
"809 1712 OFFCURVE",
"809 1640 CURVE SMOOTH"
);
},
{
closed = 1;
nodes = (
"643 1520 OFFCURVE",
"635 1513 OFFCURVE",
"629 1497 CURVE SMOOTH",
"123 18 LINE",
"119 8 OFFCURVE",
"125 0 OFFCURVE",
"137 0 CURVE SMOOTH",
"182 0 LINE SMOOTH",
"195 0 OFFCURVE",
"201 4 OFFCURVE",
"205 14 CURVE",
"362 473 LINE SMOOTH",
"367 483 OFFCURVE",
"371 487 OFFCURVE",
"383 487 CURVE SMOOTH",
"989 487 LINE SMOOTH",
"1001 487 OFFCURVE",
"1006 483 OFFCURVE",
"1010 473 CURVE SMOOTH",
"1165 16 LINE SMOOTH",
"1169 4 OFFCURVE",
"1176 0 OFFCURVE",
"1190 0 CURVE SMOOTH",
"1245 0 LINE SMOOTH",
"1260 0 OFFCURVE",
"1266 8 OFFCURVE",
"1262 20 CURVE SMOOTH",
"764 1499 LINE",
"760 1513 OFFCURVE",
"748 1520 OFFCURVE",
"727 1520 CURVE SMOOTH",
"662 1520 LINE SMOOTH"
);
},
{
closed = 1;
nodes = (
"977 578 OFFCURVE",
"975 569 OFFCURVE",
"958 569 CURVE SMOOTH",
"408 569 LINE SMOOTH",
"395 569 OFFCURVE",
"393 571 OFFCURVE",
"399 586 CURVE SMOOTH",
"672 1386 LINE SMOOTH",
"682 1415 OFFCURVE",
"694 1415 OFFCURVE",
"702 1389 CURVE SMOOTH",
"973 590 LINE SMOOTH"
);
},
{
closed = 1;
nodes = (
"713 1974 OFFCURVE",
"702 1966 OFFCURVE",
"698 1948 CURVE SMOOTH",
"662 1792 LINE",
"739 1792 LINE",
"803 1942 LINE SMOOTH",
"811 1962 OFFCURVE",
"805 1974 OFFCURVE",
"782 1974 CURVE SMOOTH",
"735 1974 LINE SMOOTH"
);
}
);
};
components = (
{
name = A;
},
{
name = _ringacute;
transform = "{1, 0, 0, 1, 5, 0}";
}
);
layerId = "91AB5BCA-6A50-42DA-B2F7-8181BF189245";
width = 1436;
}
);
leftKerningGroup = A;
leftMetricsKey = A;
rightKerningGroup = A;
rightMetricsKey = A;
unicode = 01FA;
},
{
glyphname = AE;
lastChange = "2019-05-21 21:13:38 +0000";
layers = (
{
anchors = (
{
name = top;
position = "{1415, 1481}";
}
);
background = {
anchors = (
{
name = top;
position = "{1430, 1520}";
}
);
paths = (
{
closed = 1;
nodes = (
"1483 336 LINE SMOOTH",
"1464 336 OFFCURVE",
"1458 342 OFFCURVE",
"1458 365 CURVE SMOOTH",
"1458 569 LINE SMOOTH",
"1458 586 OFFCURVE",
"1470 598 OFFCURVE",
"1491 598 CURVE SMOOTH",
"1870 598 LINE SMOOTH",
"1896 598 OFFCURVE",
"1907 614 OFFCURVE",
"1907 633 CURVE SMOOTH",
"1907 887 LINE SMOOTH",
"1907 913 OFFCURVE",
"1892 928 OFFCURVE",
"1864 928 CURVE SMOOTH",
"1495 928 LINE SMOOTH",
"1475 928 OFFCURVE",
"1458 942 OFFCURVE",
"1458 971 CURVE SMOOTH",
"1458 1145 LINE SMOOTH",
"1458 1171 OFFCURVE",
"1475 1184 OFFCURVE",
"1505 1184 CURVE SMOOTH",
"2120 1184 LINE SMOOTH",
"2157 1184 OFFCURVE",
"2173 1206 OFFCURVE",
"2173 1239 CURVE SMOOTH",
"2175 1477 LINE SMOOTH",
"2175 1503 OFFCURVE",
"2163 1520 OFFCURVE",
"2138 1520 CURVE SMOOTH",
"809 1520 LINE SMOOTH",
"774 1520 OFFCURVE",
"758 1505 OFFCURVE",
"741 1473 CURVE SMOOTH",
"16 76 LINE SMOOTH",
"-8 31 OFFCURVE",
"4 0 OFFCURVE",
"35 0 CURVE SMOOTH",
"346 0 LINE SMOOTH",
"375 0 OFFCURVE",
"391 14 OFFCURVE",
"399 31 CURVE SMOOTH",
"520 272 LINE",
"526 287 OFFCURVE",
"539 295 OFFCURVE",
"555 295 CURVE SMOOTH",
"967 295 LINE SMOOTH",
"987 295 OFFCURVE",
"993 285 OFFCURVE",
"993 266 CURVE SMOOTH",
"993 51 LINE SMOOTH",
"993 16 OFFCURVE",
"1008 0 OFFCURVE",
"1049 0 CURVE SMOOTH",
"2144 0 LINE SMOOTH",
"2179 0 OFFCURVE",
"2193 20 OFFCURVE",
"2193 45 CURVE SMOOTH",
"2193 297 LINE SMOOTH",
"2193 326 OFFCURVE",
"2177 336 OFFCURVE",
"2148 336 CURVE SMOOTH"
);
},
{
closed = 1;
nodes = (
"715 643 LINE SMOOTH",
"690 643 OFFCURVE",
"686 659 OFFCURVE",
"702 686 CURVE",
"911 1100 LINE SMOOTH",
"944 1161 OFFCURVE",
"993 1157 OFFCURVE",
"993 1096 CURVE SMOOTH",
"993 684 LINE SMOOTH",
"993 657 OFFCURVE",
"979 643 OFFCURVE",
"954 643 CURVE SMOOTH"
);
}
);
};
layerId = "258ED206-D907-4350-8EBA-CBDDA1C16BF7";
paths = (
{
closed = 1;
nodes = (
"1444 328 LINE",
"1444 584 LINE",
"1880 584 LINE",
"1880 905 LINE",
"1444 905 LINE",
"1444 1155 LINE",
"2140 1155 LINE",
"2142 1481 LINE",
"768 1481 LINE",
"0 0 LINE",
"397 0 LINE",
"539 287 LINE",
"989 287 LINE",
"989 0 LINE",
"2161 0 LINE",
"2161 328 LINE"
);
},
{
closed = 1;
nodes = (
"684 627 LINE",
"989 1231 LINE",
"989 627 LINE"
);
}
);
width = 2254;
},
{
anchors = (
{
name = top;
position = "{1264, 1481}";
}
);
background = {
anchors = (
{
name = top;
position = "{1300, 1520}";
}
);
paths = (
{
closed = 1;
nodes = (
"1032 82 LINE SMOOTH",
"1018 82 OFFCURVE",
"1014 84 OFFCURVE",
"1014 100 CURVE SMOOTH",
"1014 709 LINE SMOOTH",
"1014 725 OFFCURVE",
"1018 727 OFFCURVE",
"1032 727 CURVE SMOOTH",
"1581 727 LINE SMOOTH",
"1593 727 OFFCURVE",
"1597 729 OFFCURVE",
"1597 741 CURVE SMOOTH",
"1597 795 LINE SMOOTH",
"1597 805 OFFCURVE",
"1593 809 OFFCURVE",
"1583 809 CURVE SMOOTH",
"1032 809 LINE SMOOTH",
"1018 809 OFFCURVE",
"1014 811 OFFCURVE",
"1014 823 CURVE SMOOTH",
"1014 1419 LINE SMOOTH",
"1014 1436 OFFCURVE",
"1018 1438 OFFCURVE",
"1032 1438 CURVE SMOOTH",
"1724 1438 LINE SMOOTH",
"1737 1438 OFFCURVE",
"1741 1440 OFFCURVE",
"1741 1452 CURVE SMOOTH",
"1741 1505 LINE SMOOTH",
"1741 1516 OFFCURVE",
"1737 1520 OFFCURVE",
"1726 1520 CURVE SMOOTH",
"897 1520 LINE SMOOTH",
"879 1520 OFFCURVE",
"868 1513 OFFCURVE",
"860 1497 CURVE",
"14 18 LINE SMOOTH",
"8 8 OFFCURVE",
"12 0 OFFCURVE",
"25 0 CURVE SMOOTH",
"76 0 LINE SMOOTH",
"88 0 OFFCURVE",
"94 4 OFFCURVE",
"100 14 CURVE SMOOTH",
"365 473 LINE SMOOTH",
"371 483 OFFCURVE",
"377 487 OFFCURVE",
"389 487 CURVE SMOOTH",
"909 487 LINE SMOOTH",
"915 487 OFFCURVE",
"920 483 OFFCURVE",
"920 477 CURVE SMOOTH",
"920 20 LINE SMOOTH",
"920 4 OFFCURVE",
"924 0 OFFCURVE",
"938 0 CURVE SMOOTH",
"1757 0 LINE SMOOTH",
"1767 0 OFFCURVE",
"1772 4 OFFCURVE",
"1772 14 CURVE SMOOTH",
"1772 68 LINE SMOOTH",
"1772 80 OFFCURVE",
"1767 82 OFFCURVE",
"1755 82 CURVE SMOOTH"
);
},
{
closed = 1;
nodes = (
"428 569 LINE SMOOTH",
"416 569 OFFCURVE",
"414 571 OFFCURVE",
"422 586 CURVE SMOOTH",
"889 1386 LINE SMOOTH",
"905 1415 OFFCURVE",
"918 1415 OFFCURVE",
"920 1389 CURVE",
"920 588 LINE SMOOTH",
"920 578 OFFCURVE",
"915 569 OFFCURVE",
"903 569 CURVE SMOOTH"
);
}
);
};
layerId = "91AB5BCA-6A50-42DA-B2F7-8181BF189245";
paths = (
{
closed = 1;
nodes = (
"983 80 LINE",
"983 709 LINE",
"1552 709 LINE",
"1552 788 LINE",
"983 788 LINE",
"983 1401 LINE",
"1694 1401 LINE",
"1694 1481 LINE",
"846 1481 LINE",
"0 0 LINE",
"86 0 LINE",
"358 475 LINE",
"893 475 LINE",
"893 0 LINE",
"1722 0 LINE",
"1722 80 LINE"
);
},
{
closed = 1;
nodes = (
"397 555 LINE",
"893 1403 LINE",
"893 555 LINE"
);
}
);
width = 1862;
}
);
leftKerningGroup = AE;
rightKerningGroup = E;
rightMetricsKey = E;
unicode = 00C6;
},
{
glyphname = B;
lastChange = "2019-05-22 18:25:30 +0000";
layers = (
{
background = {
paths = (
{
closed = 1;
nodes = (
"802 0 LINE SMOOTH",
"1244 0 OFFCURVE",
"1455 133 OFFCURVE",
"1455 414 CURVE SMOOTH",
"1455 588 OFFCURVE",
"1375 692 OFFCURVE",
"1150 776 CURVE SMOOTH",
"1144 778 OFFCURVE",
"1144 788 OFFCURVE",
"1150 791 CURVE SMOOTH",
"1355 885 OFFCURVE",
"1418 977 OFFCURVE",
"1418 1118 CURVE SMOOTH",
"1418 1382 OFFCURVE",
"1193 1520 OFFCURVE",
"769 1520 CURVE SMOOTH",
"159 1520 LINE SMOOTH",
"128 1520 OFFCURVE",
"107 1497 OFFCURVE",
"107 1466 CURVE SMOOTH",
"107 45 LINE SMOOTH",
"107 20 OFFCURVE",
"126 0 OFFCURVE",
"154 0 CURVE SMOOTH"
);
},
{
closed = 1;
nodes = (
"580 307 OFFCURVE",
"572 322 OFFCURVE",
"572 352 CURVE SMOOTH",
"572 567 LINE SMOOTH",
"572 598 OFFCURVE",
"585 610 OFFCURVE",
"619 610 CURVE SMOOTH",
"802 610 LINE SMOOTH",
"904 610 OFFCURVE",
"972 549 OFFCURVE",
"972 465 CURVE SMOOTH",
"972 385 OFFCURVE",
"910 307 OFFCURVE",
"791 307 CURVE SMOOTH",
"607 307 LINE SMOOTH"
);
},
{
closed = 1;
nodes = (
"580 926 OFFCURVE",
"572 940 OFFCURVE",
"572 971 CURVE SMOOTH",
"572 1171 LINE SMOOTH",
"572 1202 OFFCURVE",
"585 1212 OFFCURVE",
"619 1212 CURVE SMOOTH",
"787 1212 LINE SMOOTH",
"884 1212 OFFCURVE",
"959 1155 OFFCURVE",
"959 1065 CURVE SMOOTH",
"959 985 OFFCURVE",
"898 926 OFFCURVE",
"802 926 CURVE SMOOTH",
"607 926 LINE SMOOTH"
);
}
);
};
layerId = "258ED206-D907-4350-8EBA-CBDDA1C16BF7";
rightMetricsKey = "=H/2";
paths = (
{
closed = 1;
nodes = (
"765 0 LINE SMOOTH",
"1195 0 OFFCURVE",
"1361 127 OFFCURVE",
"1361 403 CURVE",
"1361 514 OFFCURVE",
"1346 684 OFFCURVE",
"1086 762 CURVE",
"1269 852 OFFCURVE",
"1326 952 OFFCURVE",
"1326 1090 CURVE SMOOTH",
"1326 1341 OFFCURVE",
"1146 1481 OFFCURVE",
"732 1481 CURVE SMOOTH",
"140 1481 LINE",
"140 0 LINE"
);
},
{
closed = 1;
nodes = (
"539 596 LINE",
"789 596 LINE",
"890 596 OFFCURVE",
"955 535 OFFCURVE",
"955 453 CURVE SMOOTH",
"955 375 OFFCURVE",
"896 299 OFFCURVE",
"779 299 CURVE",
"539 299 LINE"
);
},
{
closed = 1;
nodes = (
"539 1182 LINE",
"775 1182 LINE SMOOTH",
"869 1182 OFFCURVE",
"943 1126 OFFCURVE",
"943 1038 CURVE SMOOTH",
"943 961 OFFCURVE",
"884 903 OFFCURVE",
"789 903 CURVE SMOOTH",
"539 903 LINE"
);
}
);
width = 1431;
},
{
background = {
paths = (
{
closed = 1;
nodes = (
"670 0 LINE SMOOTH",
"1028 0 OFFCURVE",
"1239 133 OFFCURVE",
"1239 403 CURVE SMOOTH",
"1239 608 OFFCURVE",
"1118 729 OFFCURVE",
"934 764 CURVE SMOOTH",
"922 766 OFFCURVE",
"922 778 OFFCURVE",
"934 782 CURVE SMOOTH",
"1114 838 OFFCURVE",
"1202 956 OFFCURVE",
"1202 1128 CURVE SMOOTH",
"1202 1382 OFFCURVE",
"1004 1520 OFFCURVE",
"664 1520 CURVE SMOOTH",
"244 1520 LINE SMOOTH",
"229 1520 OFFCURVE",
"225 1516 OFFCURVE",
"225 1499 CURVE SMOOTH",
"225 16 LINE SMOOTH",
"225 6 OFFCURVE",
"231 0 OFFCURVE",
"242 0 CURVE SMOOTH"
);
},
{
closed = 1;
nodes = (
"324 82 OFFCURVE",
"319 88 OFFCURVE",
"319 102 CURVE SMOOTH",
"319 709 LINE SMOOTH",
"319 723 OFFCURVE",
"326 727 OFFCURVE",
"342 727 CURVE SMOOTH",
"688 727 LINE SMOOTH",
"944 727 OFFCURVE",
"1141 637 OFFCURVE",
"1141 391 CURVE SMOOTH",
"1141 168 OFFCURVE",
"983 82 OFFCURVE",
"659 82 CURVE SMOOTH",
"334 82 LINE SMOOTH"
);
},
{
closed = 1;
nodes = (
"324 809 OFFCURVE",
"319 815 OFFCURVE",
"319 829 CURVE SMOOTH",
"319 1421 LINE SMOOTH",
"319 1434 OFFCURVE",
"326 1438 OFFCURVE",
"338 1438 CURVE SMOOTH",
"655 1438 LINE SMOOTH",
"932 1438 OFFCURVE",
"1104 1339 OFFCURVE",
"1104 1118 CURVE SMOOTH",
"1104 868 OFFCURVE",
"879 809 OFFCURVE",
"688 809 CURVE SMOOTH",
"334 809 LINE SMOOTH"
);
}
);
};
layerId = "91AB5BCA-6A50-42DA-B2F7-8181BF189245";
rightMetricsKey = "=H/1.6";
paths = (
{
closed = 1;
nodes = (
"647 0 LINE",
"997 0 OFFCURVE",
"1202 131 OFFCURVE",
"1202 395 CURVE",
"1202 592 OFFCURVE",
"1092 715 OFFCURVE",
"872 752 CURVE",
"1085 813 OFFCURVE",
"1165 930 OFFCURVE",
"1165 1098 CURVE SMOOTH",
"1165 1346 OFFCURVE",
"973 1481 OFFCURVE",
"641 1481 CURVE SMOOTH",
"225 1481 LINE",
"225 0 LINE"
);
},
{
closed = 1;
nodes = (
"305 707 LINE",
"666 707 LINE SMOOTH",
"915 707 OFFCURVE",
"1122 623 OFFCURVE",
"1122 383 CURVE SMOOTH",
"1122 166 OFFCURVE",
"952 84 OFFCURVE",
"637 84 CURVE",
"305 84 LINE"
);
},
{
closed = 1;
nodes = (
"305 1399 LINE",
"633 1399 LINE SMOOTH",
"903 1399 OFFCURVE",
"1085 1305 OFFCURVE",
"1085 1087 CURVE SMOOTH",
"1085 844 OFFCURVE",
"850 791 OFFCURVE",
"666 791 CURVE SMOOTH",
"305 791 LINE"
);
}
);
width = 1343;
}
);
leftKerningGroup = N;
leftMetricsKey = H;
rightKerningGroup = B;
unicode = 0042;
},
{
glyphname = C;
lastChange = "2019-05-22 20:03:15 +0000";
layers = (
{
anchors = (
{
name = bottom;
position = "{799, 0}";
},
{
name = top;
position = "{799, 1481}";
}
);
background = {
anchors = (
{
name = bottom;
position = "{793, 0}";
},
{
name = top;
position = "{797, 1520}";
}
);
paths = (
{
closed = 1;
nodes = (
"353 1540 OFFCURVE",
"70 1241 OFFCURVE",
"70 780 CURVE SMOOTH",
"70 317 OFFCURVE",
"353 -20 OFFCURVE",
"793 -20 CURVE SMOOTH",
"1266 -20 OFFCURVE",
"1442 342 OFFCURVE",
"1463 453 CURVE SMOOTH",
"1471 506 OFFCURVE",
"1448 516 OFFCURVE",
"1434 520 CURVE SMOOTH",
"1178 571 LINE SMOOTH",
"1145 578 OFFCURVE",
"1127 571 OFFCURVE",
"1121 555 CURVE SMOOTH",
"1049 375 OFFCURVE",
"944 315 OFFCURVE",
"807 315 CURVE SMOOTH",
"641 315 OFFCURVE",
"557 434 OFFCURVE",
"557 772 CURVE SMOOTH",
"557 1106 OFFCURVE",
"656 1225 OFFCURVE",
"809 1225 CURVE SMOOTH",
"949 1225 OFFCURVE",
"1004 1114 OFFCURVE",
"1028 973 CURVE",
"1418 997 LINE",
"1448 1001 OFFCURVE",
"1456 1012 OFFCURVE",
"1444 1069 CURVE SMOOTH",
"1391 1341 OFFCURVE",
"1143 1540 OFFCURVE",
"797 1540 CURVE SMOOTH"
);
}
);
};
guideLines = (
{
angle = -183.559;
position = "{499, 299}";
}
);
layerId = "258ED206-D907-4350-8EBA-CBDDA1C16BF7";
paths = (
{
closed = 1;
nodes = (
"367 1501 OFFCURVE",
"90 1210 OFFCURVE",
"90 760 CURVE SMOOTH",
"90 309 OFFCURVE",
"371 -20 OFFCURVE",
"799 -20 CURVE SMOOTH",
"1272 -20 OFFCURVE",
"1401 246 OFFCURVE",
"1442 553 CURVE",
"1026 553 LINE",
"1004 416 OFFCURVE",
"922 299 OFFCURVE",
"785 299 CURVE SMOOTH",
"635 299 OFFCURVE",
"527 424 OFFCURVE",
"527 754 CURVE SMOOTH",
"527 1079 OFFCURVE",
"635 1182 OFFCURVE",
"785 1182 CURVE SMOOTH",
"922 1182 OFFCURVE",
"1004 1096 OFFCURVE",
"1026 958 CURVE",
"1442 958 LINE",
"1409 1278 OFFCURVE",
"1151 1501 OFFCURVE",
"799 1501 CURVE SMOOTH"
);
}
);
width = 1532;
},
{
anchors = (
{
name = bottom;
position = "{724, 0}";
},
{
name = top;
position = "{710, 1481}";
}
);
background = {
anchors = (
{
name = bottom;
position = "{757, 0}";
},
{
name = top;
position = "{745, 1520}";
}
);
guideLines = (
{
angle = 90;
position = "{618, 369}";
}
);
paths = (
{
closed = 1;
nodes = (
"362 1540 OFFCURVE",
"136 1249 OFFCURVE",
"136 754 CURVE SMOOTH",
"136 260 OFFCURVE",
"362 -20 OFFCURVE",
"757 -20 CURVE SMOOTH",
"1005 -20 OFFCURVE",
"1209 125 OFFCURVE",
"1281 350 CURVE SMOOTH",
"1283 358 OFFCURVE",
"1281 362 OFFCURVE",
"1277 365 CURVE SMOOTH",
"1207 385 LINE SMOOTH",
"1201 387 OFFCURVE",
"1197 385 OFFCURVE",
"1195 381 CURVE SMOOTH",
"1113 166 OFFCURVE",
"978 66 OFFCURVE",
"765 66 CURVE SMOOTH",
"411 66 OFFCURVE",
"235 313 OFFCURVE",
"235 754 CURVE SMOOTH",
"235 1210 OFFCURVE",
"415 1454 OFFCURVE",
"749 1454 CURVE SMOOTH",
"955 1454 OFFCURVE",
"1119 1325 OFFCURVE",
"1166 1130 CURVE SMOOTH",
"1168 1118 OFFCURVE",
"1173 1114 OFFCURVE",
"1181 1116 CURVE SMOOTH",
"1254 1124 LINE SMOOTH",
"1265 1124 OFFCURVE",
"1267 1128 OFFCURVE",
"1265 1139 CURVE SMOOTH",
"1240 1350 OFFCURVE",
"994 1540 OFFCURVE",
"745 1540 CURVE SMOOTH"
);
}
);
};
guideLines = (
{
angle = 90;
position = "{619, 342}";
}
);
layerId = "91AB5BCA-6A50-42DA-B2F7-8181BF189245";
paths = (
{
closed = 1;
nodes = (
"335 1501 OFFCURVE",
"130 1219 OFFCURVE",
"130 735 CURVE SMOOTH",
"130 254 OFFCURVE",
"339 -20 OFFCURVE",
"724 -20 CURVE SMOOTH",
"968 -20 OFFCURVE",
"1203 141 OFFCURVE",
"1226 354 CURVE",
"1140 377 LINE",
"1093 178 OFFCURVE",
"931 63 OFFCURVE",
"728 63 CURVE SMOOTH",
"382 63 OFFCURVE",
"220 305 OFFCURVE",
"220 735 CURVE SMOOTH",
"220 1180 OFFCURVE",
"386 1417 OFFCURVE",
"712 1417 CURVE SMOOTH",
"966 1417 OFFCURVE",
"1107 1276 OFFCURVE",
"1146 1083 CURVE",
"1234 1098 LINE",
"1209 1311 OFFCURVE",
"1011 1501 OFFCURVE",
"708 1501 CURVE SMOOTH"
);
}
);
width = 1364;
}
);
leftKerningGroup = O;
leftMetricsKey = O;
rightKerningGroup = C;
rightMetricsKey = O;
unicode = 0043;
},
{
glyphname = D;
lastChange = "2019-05-22 19:34:19 +0000";
layers = (
{
anchors = (
{
name = bottom;
position = "{724, 0}";
},
{
name = center;
position = "{763, 741}";
},
{
name = top;
position = "{763, 1481}";
}
);
background = {
anchors = (
{
name = center;
position = "{759, 760}";
},
{
name = top;
position = "{759, 1520}";
}
);
paths = (
{
closed = 1;
nodes = (
"66 0 LINE",
"664 0 LINE SMOOTH",
"1203 0 OFFCURVE",
"1475 322 OFFCURVE",
"1475 764 CURVE SMOOTH",
"1475 1196 OFFCURVE",
"1215 1497 OFFCURVE",
"666 1518 CURVE SMOOTH",
"535 1522 OFFCURVE",
"109 1520 OFFCURVE",
"66 1520 CURVE"
);
},
{
closed = 1;
nodes = (
"572 1198 LINE SMOOTH",
"884 1198 OFFCURVE",
"988 1051 OFFCURVE",
"988 770 CURVE SMOOTH",
"988 440 OFFCURVE",
"832 322 OFFCURVE",
"574 322 CURVE SMOOTH",
"531 322 LINE",
"531 1198 LINE"
);
}
);
};
layerId = "258ED206-D907-4350-8EBA-CBDDA1C16BF7";
paths = (
{
closed = 1;
nodes = (
"140 0 LINE",
"671 0 LINE SMOOTH",
"1195 0 OFFCURVE",
"1439 313 OFFCURVE",
"1439 745 CURVE SMOOTH",
"1439 1165 OFFCURVE",
"1207 1460 OFFCURVE",
"673 1479 CURVE SMOOTH",
"544 1483 OFFCURVE",
"183 1481 OFFCURVE",
"140 1481 CURVE"
);
},
{
closed = 1;
nodes = (
"683 1167 LINE SMOOTH",
"886 1167 OFFCURVE",
"1023 1024 OFFCURVE",
"1023 752 CURVE SMOOTH",
"1023 430 OFFCURVE",
"834 313 OFFCURVE",
"683 313 CURVE SMOOTH",
"539 313 LINE",
"539 1167 LINE"
);
}
);
width = 1529;
},
{
anchors = (
{
name = bottom;
position = "{731, 0}";
},
{
name = center;
position = "{678, 741}";
},
{
name = top;
position = "{666, 1481}";
}
);
background = {
anchors = (
{
name = center;
position = "{696, 760}";
},
{
name = top;
position = "{684, 1520}";
}
);
paths = (
{
closed = 1;
nodes = (
"229 0 LINE",
"457 0 LINE SMOOTH",
"1014 0 OFFCURVE",
"1278 236 OFFCURVE",
"1278 770 CURVE SMOOTH",
"1278 1278 OFFCURVE",
"1049 1513 OFFCURVE",
"485 1518 CURVE SMOOTH",
"358 1518 OFFCURVE",
"233 1520 OFFCURVE",
"229 1520 CURVE"
);
},
{
closed = 1;
nodes = (
"328 1436 OFFCURVE",
"426 1436 OFFCURVE",
"463 1436 CURVE SMOOTH",
"963 1425 OFFCURVE",
"1180 1286 OFFCURVE",
"1180 762 CURVE SMOOTH",
"1180 266 OFFCURVE",
"977 82 OFFCURVE",
"449 82 CURVE SMOOTH",
"324 82 LINE",
"324 1436 LINE"
);
}
);
};
layerId = "91AB5BCA-6A50-42DA-B2F7-8181BF189245";
paths = (
{
closed = 1;
nodes = (
"225 0 LINE",
"442 0 LINE SMOOTH",
"987 0 OFFCURVE",
"1243 229 OFFCURVE",
"1243 752 CURVE SMOOTH",
"1243 1245 OFFCURVE",
"1020 1477 OFFCURVE",
"471 1479 CURVE SMOOTH",
"348 1479 OFFCURVE",
"229 1481 OFFCURVE",
"225 1481 CURVE"
);
},
{
closed = 1;
nodes = (
"449 1397 LINE SMOOTH",
"901 1397 OFFCURVE",
"1157 1253 OFFCURVE",
"1157 743 CURVE SMOOTH",
"1157 260 OFFCURVE",
"915 84 OFFCURVE",
"436 84 CURVE SMOOTH",
"313 84 LINE",
"313 1397 LINE"
);
}
);
width = 1373;
}
);
leftKerningGroup = N;
leftMetricsKey = H;
rightKerningGroup = D;
rightMetricsKey = "=O";
unicode = 0044;
},
{
glyphname = Eth;
lastChange = "2019-05-22 19:34:28 +0000";
layers = (
{
background = {
components = (
{
name = D;
transform = "{1, 0, 0, 1, 43, 0}";
}
);
paths = (
{
closed = 1;
nodes = (
"887 850 OFFCURVE",
"872 866 OFFCURVE",
"850 866 CURVE SMOOTH",
"111 866 LINE SMOOTH",
"86 866 OFFCURVE",
"72 850 OFFCURVE",
"72 821 CURVE SMOOTH",
"72 635 LINE SMOOTH",
"72 600 OFFCURVE",
"84 586 OFFCURVE",
"125 586 CURVE SMOOTH",
"821 586 LINE SMOOTH",
"866 586 OFFCURVE",
"887 600 OFFCURVE",
"887 641 CURVE SMOOTH",
"887 827 LINE SMOOTH"
);
}
);
};
components = (
{
name = D;
transform = "{1, 0, 0, 1, 88, 0}";
}
);
layerId = "258ED206-D907-4350-8EBA-CBDDA1C16BF7";
paths = (
{
closed = 1;
nodes = (
"72 871 LINE",
"72 591 LINE",
"887 591 LINE",
"887 871 LINE"
);
}
);
width = 1617;
},
{
background = {
components = (
{
name = D;
transform = "{1, 0, 0, 1, -2, 0}";
}
);
paths = (
{
closed = 1;
nodes = (
"684 782 OFFCURVE",
"680 788 OFFCURVE",
"672 788 CURVE SMOOTH",
"86 788 LINE SMOOTH",
"76 788 OFFCURVE",
"72 782 OFFCURVE",
"72 770 CURVE SMOOTH",
"72 725 LINE SMOOTH",
"72 711 OFFCURVE",
"76 705 OFFCURVE",
"92 705 CURVE SMOOTH",
"659 705 LINE SMOOTH",
"678 705 OFFCURVE",
"684 711 OFFCURVE",
"684 727 CURVE SMOOTH",
"684 772 LINE SMOOTH"
);
}
);
};
components = (
{
name = D;
transform = "{1, 0, 0, 1, -4, 0}";
}
);
layerId = "91AB5BCA-6A50-42DA-B2F7-8181BF189245";
paths = (
{
closed = 1;
nodes = (
"72 787 LINE",
"72 704 LINE",
"684 704 LINE",
"684 787 LINE"
);
}
);
width = 1369;
}
);
leftKerningGroup = N;
rightKerningGroup = D;
rightMetricsKey = D;
unicode = 00D0;
},
{
glyphname = E;
lastChange = "2019-05-21 21:04:57 +0000";
layers = (
{
anchors = (
{
name = bottom;
position = "{687, 0}";
},
{
name = ogonek;
position = "{1234, 20}";
},
{
name = top;
position = "{687, 1481}";
}
);
background = {
anchors = (
{
name = bottom;
position = "{681, 0}";
},
{
name = ogonek;
position = "{1242, 20}";
},
{
name = top;
position = "{681, 1520}";
}
);
paths = (
{
closed = 1;
nodes = (
"99 51 LINE SMOOTH",
"99 16 OFFCURVE",
"113 0 OFFCURVE",
"154 0 CURVE SMOOTH",
"1250 0 LINE SMOOTH",
"1285 0 OFFCURVE",
"1299 20 OFFCURVE",
"1299 45 CURVE SMOOTH",
"1299 297 LINE SMOOTH",
"1299 326 OFFCURVE",
"1283 336 OFFCURVE",
"1254 336 CURVE SMOOTH",
"589 336 LINE SMOOTH",
"570 336 OFFCURVE",
"564 342 OFFCURVE",
"564 365 CURVE SMOOTH",
"564 569 LINE SMOOTH",
"564 586 OFFCURVE",
"576 598 OFFCURVE",
"597 598 CURVE SMOOTH",
"976 598 LINE SMOOTH",
"1002 598 OFFCURVE",
"1013 614 OFFCURVE",
"1013 633 CURVE SMOOTH",
"1013 887 LINE SMOOTH",
"1013 913 OFFCURVE",
"998 928 OFFCURVE",
"970 928 CURVE SMOOTH",
"601 928 LINE SMOOTH",
"580 928 OFFCURVE",
"564 942 OFFCURVE",
"564 971 CURVE SMOOTH",
"564 1145 LINE SMOOTH",
"564 1171 OFFCURVE",
"580 1184 OFFCURVE",
"611 1184 CURVE SMOOTH",
"1226 1184 LINE SMOOTH",
"1262 1184 OFFCURVE",
"1279 1206 OFFCURVE",
"1279 1239 CURVE SMOOTH",
"1281 1477 LINE SMOOTH",
"1281 1503 OFFCURVE",
"1269 1520 OFFCURVE",
"1244 1520 CURVE SMOOTH",
"138 1520 LINE SMOOTH",
"113 1520 OFFCURVE",
"99 1503 OFFCURVE",
"99 1473 CURVE SMOOTH"
);
}
);
};
layerId = "258ED206-D907-4350-8EBA-CBDDA1C16BF7";
paths = (
{
closed = 1;
nodes = (
"1236 0 LINE",
"1236 332 LINE",
"539 332 LINE",
"539 584 LINE",
"1119 584 LINE",
"1119 905 LINE",
"542 905 LINE",
"542 1151 LINE",
"1232 1151 LINE",
"1234 1481 LINE",
"140 1481 LINE",
"140 0 LINE"
);
}
);
width = 1329;
},
{
anchors = (
{
name = bottom;
position = "{711, 0}";
},
{
name = ogonek;
position = "{1094, 20}";
},
{
name = top;
position = "{655, 1481}";
}
);
background = {
anchors = (
{
name = bottom;
position = "{737, 0}";
},
{
name = ogonek;
position = "{1116, 20}";
},
{
name = top;
position = "{698, 1520}";
}
);
paths = (
{
closed = 1;
nodes = (
"225 20 LINE SMOOTH",
"225 4 OFFCURVE",
"229 0 OFFCURVE",
"244 0 CURVE SMOOTH",
"1124 0 LINE SMOOTH",
"1135 0 OFFCURVE",
"1139 4 OFFCURVE",
"1139 14 CURVE SMOOTH",
"1139 68 LINE SMOOTH",
"1139 80 OFFCURVE",
"1135 82 OFFCURVE",
"1122 82 CURVE SMOOTH",
"338 82 LINE SMOOTH",
"324 82 OFFCURVE",
"319 84 OFFCURVE",
"319 100 CURVE SMOOTH",
"319 709 LINE SMOOTH",
"319 725 OFFCURVE",
"324 727 OFFCURVE",
"338 727 CURVE SMOOTH",
"928 727 LINE SMOOTH",
"940 727 OFFCURVE",
"944 729 OFFCURVE",
"944 741 CURVE SMOOTH",
"944 795 LINE SMOOTH",
"944 805 OFFCURVE",
"940 809 OFFCURVE",
"930 809 CURVE SMOOTH",
"338 809 LINE SMOOTH",
"324 809 OFFCURVE",
"319 811 OFFCURVE",
"319 823 CURVE SMOOTH",
"319 1419 LINE SMOOTH",
"319 1436 OFFCURVE",
"324 1438 OFFCURVE",
"338 1438 CURVE SMOOTH",
"1092 1438 LINE SMOOTH",
"1104 1438 OFFCURVE",
"1108 1440 OFFCURVE",
"1108 1452 CURVE SMOOTH",
"1108 1505 LINE SMOOTH",
"1108 1516 OFFCURVE",
"1104 1520 OFFCURVE",
"1094 1520 CURVE SMOOTH",
"244 1520 LINE SMOOTH",
"229 1520 OFFCURVE",
"225 1516 OFFCURVE",
"225 1499 CURVE SMOOTH"
);
}
);
};
layerId = "91AB5BCA-6A50-42DA-B2F7-8181BF189245";
rightMetricsKey = "=140";
paths = (
{
closed = 1;
nodes = (
"1104 0 LINE",
"1104 84 LINE",
"305 86 LINE",
"305 707 LINE",
"1022 707 LINE",
"1022 791 LINE",
"305 791 LINE",
"305 1399 LINE",
"1075 1399 LINE",
"1075 1481 LINE",
"225 1481 LINE",
"225 0 LINE"
);
}
);
width = 1244;
}
);
leftKerningGroup = N;
leftMetricsKey = H;
rightKerningGroup = E;
rightMetricsKey = "=H/1.5";
unicode = 0045;
},
{
glyphname = F;
lastChange = "2019-05-22 18:44:38 +0000";
layers = (
{
background = {
paths = (
{
closed = 1;
nodes = (
"66 51 LINE SMOOTH",
"66 16 OFFCURVE",
"79 0 OFFCURVE",
"122 0 CURVE",
"464 0 LINE SMOOTH",
"511 0 OFFCURVE",
"531 16 OFFCURVE",
"531 59 CURVE SMOOTH",
"531 555 LINE SMOOTH",
"531 573 OFFCURVE",
"544 586 OFFCURVE",
"564 586 CURVE SMOOTH",
"947 586 LINE SMOOTH",
"976 586 OFFCURVE",
"984 600 OFFCURVE",
"984 621 CURVE SMOOTH",
"984 870 LINE SMOOTH",
"984 897 OFFCURVE",
"972 911 OFFCURVE",
"943 911 CURVE SMOOTH",
"568 911 LINE SMOOTH",
"546 911 OFFCURVE",
"531 924 OFFCURVE",
"531 952 CURVE SMOOTH",
"531 1145 LINE SMOOTH",
"531 1171 OFFCURVE",
"546 1184 OFFCURVE",
"578 1184 CURVE SMOOTH",
"1181 1184 LINE SMOOTH",
"1217 1184 OFFCURVE",
"1232 1206 OFFCURVE",
"1232 1239 CURVE SMOOTH",
"1234 1477 LINE SMOOTH",
"1234 1503 OFFCURVE",
"1221 1520 OFFCURVE",
"1197 1520 CURVE SMOOTH",
"105 1520 LINE SMOOTH",
"83 1520 OFFCURVE",
"66 1503 OFFCURVE",
"66 1473 CURVE SMOOTH"
);
}
);
};
layerId = "258ED206-D907-4350-8EBA-CBDDA1C16BF7";
paths = (
{
closed = 1;
nodes = (
"140 0 LINE",
"539 0 LINE",
"539 571 LINE",
"1111 571 LINE",
"1111 889 LINE",
"539 889 LINE",
"539 1155 LINE",
"1224 1155 LINE",
"1226 1481 LINE",
"140 1481 LINE"
);
}
);
width = 1296;
},
{
background = {
paths = (
{
closed = 1;
nodes = (
"233 20 LINE SMOOTH",
"233 4 OFFCURVE",
"238 0 OFFCURVE",
"252 0 CURVE SMOOTH",
"313 0 LINE SMOOTH",
"324 0 OFFCURVE",
"328 4 OFFCURVE",
"328 14 CURVE SMOOTH",
"328 682 LINE SMOOTH",
"328 698 OFFCURVE",
"332 700 OFFCURVE",
"346 700 CURVE SMOOTH",
"956 700 LINE SMOOTH",
"969 700 OFFCURVE",
"973 702 OFFCURVE",
"973 715 CURVE SMOOTH",
"973 768 LINE SMOOTH",
"973 778 OFFCURVE",
"969 782 OFFCURVE",
"958 782 CURVE SMOOTH",
"346 782 LINE SMOOTH",
"332 782 OFFCURVE",
"328 784 OFFCURVE",
"328 797 CURVE SMOOTH",
"328 1419 LINE SMOOTH",
"328 1436 OFFCURVE",
"332 1438 OFFCURVE",
"346 1438 CURVE SMOOTH",
"1079 1438 LINE SMOOTH",
"1092 1438 OFFCURVE",
"1096 1440 OFFCURVE",
"1096 1452 CURVE SMOOTH",
"1096 1505 LINE SMOOTH",
"1096 1516 OFFCURVE",
"1092 1520 OFFCURVE",
"1081 1520 CURVE SMOOTH",
"252 1520 LINE SMOOTH",
"238 1520 OFFCURVE",
"233 1516 OFFCURVE",
"233 1499 CURVE SMOOTH"
);
}
);
};
layerId = "91AB5BCA-6A50-42DA-B2F7-8181BF189245";
paths = (
{
closed = 1;
nodes = (
"225 0 LINE",
"313 0 LINE",
"313 709 LINE",
"1010 709 LINE",
"1010 793 LINE",
"313 793 LINE",
"313 1399 LINE",
"1063 1399 LINE",
"1063 1481 LINE",
"225 1481 LINE"
);
}
);
width = 1176;
}
);
leftKerningGroup = N;
leftMetricsKey = H;
rightKerningGroup = F;
rightMetricsKey = "=H/2";
unicode = 0046;
},
{
glyphname = G;
lastChange = "2019-05-21 21:05:53 +0000";
layers = (
{
anchors = (
{
name = bottom;
position = "{795, 0}";
},
{
name = top;
position = "{803, 1481}";
}
);
background = {
anchors = (
{
name = bottom;
position = "{791, 0}";
},
{
name = top;
position = "{791, 1520}";
}
);
paths = (
{
closed = 1;
nodes = (
"1028 -20 OFFCURVE",
"1133 82 OFFCURVE",
"1207 154 CURVE SMOOTH",
"1217 166 OFFCURVE",
"1223 166 OFFCURVE",
"1229 158 CURVE SMOOTH",
"1311 39 LINE SMOOTH",
"1331 10 OFFCURVE",
"1352 0 OFFCURVE",
"1377 0 CURVE SMOOTH",
"1454 0 LINE SMOOTH",
"1475 0 OFFCURVE",
"1489 16 OFFCURVE",
"1489 35 CURVE SMOOTH",
"1489 705 LINE SMOOTH",
"1489 741 OFFCURVE",
"1463 768 OFFCURVE",
"1411 768 CURVE SMOOTH",
"838 772 LINE SMOOTH",
"807 772 OFFCURVE",
"795 758 OFFCURVE",
"795 737 CURVE SMOOTH",
"795 541 LINE SMOOTH",
"795 506 OFFCURVE",
"807 496 OFFCURVE",
"836 496 CURVE SMOOTH",
"1028 496 LINE SMOOTH",
"1049 496 OFFCURVE",
"1055 483 OFFCURVE",
"1047 461 CURVE",
"1041 442 LINE",
"1004 348 OFFCURVE",
"934 299 OFFCURVE",
"819 299 CURVE SMOOTH",
"664 299 OFFCURVE",
"557 395 OFFCURVE",
"557 766 CURVE SMOOTH",
"557 1114 OFFCURVE",
"652 1223 OFFCURVE",
"803 1223 CURVE SMOOTH",
"951 1223 OFFCURVE",
"1022 1120 OFFCURVE",
"1043 1008 CURVE SMOOTH",
"1049 981 OFFCURVE",
"1051 967 OFFCURVE",
"1084 967 CURVE SMOOTH",
"1434 1020 LINE SMOOTH",
"1467 1024 OFFCURVE",
"1475 1034 OFFCURVE",
"1463 1092 CURVE SMOOTH",
"1413 1311 OFFCURVE",
"1182 1540 OFFCURVE",
"813 1540 CURVE SMOOTH",
"375 1540 OFFCURVE",
"70 1227 OFFCURVE",
"70 754 CURVE SMOOTH",
"70 297 OFFCURVE",
"355 -20 OFFCURVE",
"787 -20 CURVE SMOOTH"
);
}
);
};
layerId = "258ED206-D907-4350-8EBA-CBDDA1C16BF7";
rightMetricsKey = "=O*1.5";
paths = (
{
closed = 1;
nodes = (
"1035 -20 OFFCURVE",
"1139 88 OFFCURVE",
"1213 164 CURVE",
"1213 0 LINE",
"1475 0 LINE",
"1475 782 LINE",
"797 786 LINE",
"797 518 LINE",
"1055 518 LINE",
"1037 465 LINE",
"1016 397 OFFCURVE",
"934 326 OFFCURVE",
"822 326 CURVE SMOOTH",
"695 326 OFFCURVE",
"525 385 OFFCURVE",
"525 748 CURVE SMOOTH",
"525 1067 OFFCURVE",
"658 1171 OFFCURVE",
"805 1171 CURVE SMOOTH",
"944 1171 OFFCURVE",
"1020 1079 OFFCURVE",
"1047 958 CURVE",
"1463 958 LINE",
"1458 1235 OFFCURVE",
"1213 1501 OFFCURVE",
"815 1501 CURVE SMOOTH",
"389 1501 OFFCURVE",
"90 1196 OFFCURVE",
"90 735 CURVE SMOOTH",
"90 289 OFFCURVE",
"369 -20 OFFCURVE",
"791 -20 CURVE SMOOTH"
);
}
);
width = 1610;
},
{
anchors = (
{
name = bottom;
position = "{720, 0}";
},
{
name = top;
position = "{722, 1481}";
}
);
background = {
anchors = (
{
name = bottom;
position = "{753, 0}";
},
{
name = top;
position = "{742, 1520}";
}
);
paths = (
{
closed = 1;
nodes = (
"968 -20 OFFCURVE",
"1117 92 OFFCURVE",
"1197 236 CURVE SMOOTH",
"1205 250 OFFCURVE",
"1214 248 OFFCURVE",
"1214 236 CURVE SMOOTH",
"1214 18 LINE SMOOTH",
"1214 0 OFFCURVE",
"1224 0 OFFCURVE",
"1240 0 CURVE SMOOTH",
"1275 0 LINE SMOOTH",
"1289 0 OFFCURVE",
"1295 4 OFFCURVE",
"1295 23 CURVE SMOOTH",
"1295 760 LINE SMOOTH",
"1295 768 OFFCURVE",
"1291 772 OFFCURVE",
"1283 772 CURVE SMOOTH",
"800 772 LINE SMOOTH",
"794 772 OFFCURVE",
"790 768 OFFCURVE",
"790 760 CURVE SMOOTH",
"790 713 LINE SMOOTH",
"790 705 OFFCURVE",
"794 700 OFFCURVE",
"804 700 CURVE SMOOTH",
"1191 700 LINE SMOOTH",
"1203 700 OFFCURVE",
"1214 698 OFFCURVE",
"1214 684 CURVE SMOOTH",
"1214 522 LINE SMOOTH",
"1214 330 OFFCURVE",
"1066 66 OFFCURVE",
"742 66 CURVE SMOOTH",
"409 66 OFFCURVE",
"235 313 OFFCURVE",
"235 766 CURVE SMOOTH",
"235 1196 OFFCURVE",
"413 1454 OFFCURVE",
"742 1454 CURVE SMOOTH",
"960 1454 OFFCURVE",
"1134 1311 OFFCURVE",
"1166 1128 CURVE SMOOTH",
"1168 1118 OFFCURVE",
"1175 1114 OFFCURVE",
"1181 1116 CURVE SMOOTH",
"1252 1128 LINE SMOOTH",
"1263 1130 OFFCURVE",
"1263 1137 OFFCURVE",
"1263 1145 CURVE SMOOTH",
"1238 1358 OFFCURVE",
"994 1540 OFFCURVE",
"742 1540 CURVE SMOOTH",
"372 1540 OFFCURVE",
"136 1257 OFFCURVE",
"136 754 CURVE SMOOTH",
"136 264 OFFCURVE",
"362 -20 OFFCURVE",
"740 -20 CURVE SMOOTH"
);
}
);
};
layerId = "91AB5BCA-6A50-42DA-B2F7-8181BF189245";
paths = (
{
closed = 1;
nodes = (
"949 -20 OFFCURVE",
"1101 102 OFFCURVE",
"1181 258 CURVE",
"1181 0 LINE",
"1261 0 LINE",
"1261 754 LINE",
"767 754 LINE",
"767 682 LINE",
"1181 682 LINE",
"1181 510 LINE SMOOTH",
"1181 322 OFFCURVE",
"1037 59 OFFCURVE",
"722 59 CURVE SMOOTH",
"396 59 OFFCURVE",
"214 305 OFFCURVE",
"214 748 CURVE SMOOTH",
"214 1165 OFFCURVE",
"400 1417 OFFCURVE",
"722 1417 CURVE SMOOTH",
"935 1417 OFFCURVE",
"1105 1272 OFFCURVE",
"1136 1085 CURVE",
"1230 1102 LINE",
"1207 1319 OFFCURVE",
"968 1501 OFFCURVE",
"722 1501 CURVE SMOOTH",
"359 1501 OFFCURVE",
"130 1227 OFFCURVE",
"130 735 CURVE SMOOTH",
"130 258 OFFCURVE",
"349 -20 OFFCURVE",
"720 -20 CURVE SMOOTH"
);
}
);
width = 1456;
}
);
leftKerningGroup = O;
leftMetricsKey = O;
rightKerningGroup = G;
rightMetricsKey = "=H-30";
unicode = 0047;
},
{
glyphname = H;
lastChange = "2019-05-21 21:01:02 +0000";
layers = (
{
anchors = (
{
name = bottom;
position = "{755, 0}";
},
{
name = top;
position = "{763, 1481}";
}
);
background = {
anchors = (
{
name = bottom;
position = "{750, 0}";
},
{
name = top;
position = "{755, 1520}";
}
);
paths = (
{
closed = 1;
nodes = (
"953 608 OFFCURVE",
"965 594 OFFCURVE",
"965 578 CURVE SMOOTH",
"965 59 LINE SMOOTH",
"965 16 OFFCURVE",
"986 0 OFFCURVE",
"1033 0 CURVE SMOOTH",
"1375 0 LINE SMOOTH",
"1418 0 OFFCURVE",
"1430 16 OFFCURVE",
"1430 51 CURVE SMOOTH",
"1430 1473 LINE SMOOTH",
"1430 1503 OFFCURVE",
"1414 1520 OFFCURVE",
"1391 1520 CURVE SMOOTH",
"1002 1520 LINE SMOOTH",
"980 1520 OFFCURVE",
"965 1503 OFFCURVE",
"965 1477 CURVE SMOOTH",
"965 1001 LINE SMOOTH",
"965 975 OFFCURVE",
"951 961 OFFCURVE",
"929 961 CURVE SMOOTH",
"585 961 LINE SMOOTH",
"562 961 OFFCURVE",
"548 975 OFFCURVE",
"548 1001 CURVE SMOOTH",
"548 1477 LINE SMOOTH",
"548 1503 OFFCURVE",
"533 1520 OFFCURVE",
"511 1520 CURVE SMOOTH",
"122 1520 LINE SMOOTH",
"99 1520 OFFCURVE",
"83 1503 OFFCURVE",
"83 1473 CURVE SMOOTH",
"83 51 LINE SMOOTH",
"83 16 OFFCURVE",
"95 0 OFFCURVE",
"138 0 CURVE SMOOTH",
"480 0 LINE SMOOTH",
"527 0 OFFCURVE",
"548 16 OFFCURVE",
"548 59 CURVE SMOOTH",
"548 578 LINE SMOOTH",
"548 594 OFFCURVE",
"560 608 OFFCURVE",
"580 608 CURVE SMOOTH",
"933 608 LINE SMOOTH"
);
}
);
};
layerId = "258ED206-D907-4350-8EBA-CBDDA1C16BF7";
paths = (
{
closed = 1;
nodes = (
"988 0 LINE",
"1387 0 LINE",
"1387 1481 LINE",
"988 1481 LINE",
"988 920 LINE",
"539 920 LINE",
"539 1481 LINE",
"140 1481 LINE",
"140 0 LINE",
"539 0 LINE",
"539 594 LINE",
"988 594 LINE"
);
}
);
width = 1527;
},
{
anchors = (
{
name = bottom;
position = "{715, 0}";
},
{
name = top;
position = "{715, 1481}";
}
);
background = {
anchors = (
{
name = bottom;
position = "{735, 0}";
},
{
name = top;
position = "{735, 1520}";
}
);
paths = (
{
closed = 1;
nodes = (
"1145 750 OFFCURVE",
"1149 745 OFFCURVE",
"1149 735 CURVE SMOOTH",
"1149 18 LINE SMOOTH",
"1149 4 OFFCURVE",
"1155 0 OFFCURVE",
"1169 0 CURVE SMOOTH",
"1225 0 LINE SMOOTH",
"1237 0 OFFCURVE",
"1243 6 OFFCURVE",
"1243 20 CURVE SMOOTH",
"1243 1499 LINE SMOOTH",
"1243 1516 OFFCURVE",
"1239 1520 OFFCURVE",
"1225 1520 CURVE SMOOTH",
"1165 1520 LINE SMOOTH",
"1153 1520 OFFCURVE",
"1149 1513 OFFCURVE",
"1149 1501 CURVE SMOOTH",
"1149 848 LINE SMOOTH",
"1149 836 OFFCURVE",
"1145 831 OFFCURVE",
"1133 831 CURVE SMOOTH",
"338 831 LINE SMOOTH",
"324 831 OFFCURVE",
"319 834 OFFCURVE",
"319 850 CURVE SMOOTH",
"319 1499 LINE SMOOTH",
"319 1516 OFFCURVE",
"315 1520 OFFCURVE",
"301 1520 CURVE SMOOTH",
"244 1520 LINE SMOOTH",
"229 1520 OFFCURVE",
"225 1516 OFFCURVE",
"225 1499 CURVE SMOOTH",
"225 20 LINE SMOOTH",
"225 6 OFFCURVE",
"229 0 OFFCURVE",
"244 0 CURVE SMOOTH",
"299 0 LINE SMOOTH",
"313 0 OFFCURVE",
"319 6 OFFCURVE",
"319 18 CURVE SMOOTH",
"319 737 LINE SMOOTH",
"319 743 OFFCURVE",
"324 750 OFFCURVE",
"332 750 CURVE SMOOTH",
"1135 750 LINE SMOOTH"
);
}
);
};
layerId = "91AB5BCA-6A50-42DA-B2F7-8181BF189245";
paths = (
{
closed = 1;
nodes = (
"1122 0 LINE",
"1202 0 LINE",
"1202 1481 LINE",
"1122 1481 LINE",
"1122 813 LINE",
"305 813 LINE",
"305 1481 LINE",
"225 1481 LINE",
"225 0 LINE",
"305 0 LINE",
"305 729 LINE",
"1122 729 LINE"
);
}
);
width = 1427;
}
);
leftKerningGroup = N;
rightKerningGroup = N;
unicode = 0048;
},
{
glyphname = Hbar;
lastChange = "2019-05-08 21:34:10 +0000";
layers = (
{
background = {
components = (
{
name = H;
transform = "{1, 0, 0, 1, 45, 0}";
}
);
paths = (
{
closed = 1;
nodes = (
"1614 1300 OFFCURVE",
"1602 1315 OFFCURVE",
"1581 1315 CURVE SMOOTH",
"49 1315 LINE SMOOTH",
"31 1315 OFFCURVE",
"18 1300 OFFCURVE",
"18 1274 CURVE SMOOTH",
"18 1153 LINE SMOOTH",
"18 1122 OFFCURVE",
"29 1108 OFFCURVE",
"61 1108 CURVE SMOOTH",
"1556 1108 LINE SMOOTH",
"1595 1108 OFFCURVE",
"1614 1122 OFFCURVE",
"1614 1157 CURVE SMOOTH",
"1614 1278 LINE SMOOTH"
);
}
);
};
components = (
{
name = H;
transform = "{1, 0, 0, 1, 92, 0}";
}
);
layerId = "258ED206-D907-4350-8EBA-CBDDA1C16BF7";
paths = (
{
closed = 1;
nodes = (
"41 1315 LINE",
"41 1108 LINE",
"1636 1108 LINE",
"1636 1315 LINE"
);
}
);
width = 1677;
},
{
background = {
components = (
{
name = H;
transform = "{1, 0, 0, 1, 1, 0}";
}
);
paths = (
{
closed = 1;
nodes = (
"1411 1229 OFFCURVE",
"1407 1235 OFFCURVE",
"1399 1235 CURVE SMOOTH",
"35 1235 LINE SMOOTH",
"25 1235 OFFCURVE",
"20 1229 OFFCURVE",
"20 1217 CURVE SMOOTH",
"20 1174 LINE SMOOTH",
"20 1159 OFFCURVE",
"25 1155 OFFCURVE",
"41 1155 CURVE SMOOTH",
"1386 1155 LINE SMOOTH",
"1405 1155 OFFCURVE",
"1411 1159 OFFCURVE",
"1411 1176 CURVE SMOOTH",
"1411 1219 LINE SMOOTH"
);
}
);
};
components = (
{
name = H;
transform = "{1, 0, 0, 1, 2, 0}";
}
);
layerId = "91AB5BCA-6A50-42DA-B2F7-8181BF189245";
paths = (
{
closed = 1;
nodes = (
"20 1235 LINE",
"20 1155 LINE",
"1411 1155 LINE",
"1411 1235 LINE"
);
}
);
width = 1432;
}
);
leftKerningGroup = N;
rightKerningGroup = N;
unicode = 0126;
},
{
glyphname = I;
lastChange = "2019-05-21 21:01:26 +0000";
layers = (
{
anchors = (
{
name = bottom;
position = "{361, 0}";
},
{
name = ogonek;
position = "{490, 6}";
},
{
name = top;
position = "{341, 1481}";
}
);
background = {
anchors = (
{
name = bottom;
position = "{353, 0}";
},
{
name = ogonek;
position = "{521, 20}";
},
{
name = top;
position = "{355, 1520}";
}
);
paths = (
{
closed = 1;
nodes = (
"138 1520 OFFCURVE",
"122 1503 OFFCURVE",
"122 1473 CURVE SMOOTH",
"122 51 LINE SMOOTH",
"122 16 OFFCURVE",
"134 0 OFFCURVE",
"177 0 CURVE SMOOTH",
"519 0 LINE SMOOTH",
"566 0 OFFCURVE",
"587 16 OFFCURVE",
"587 59 CURVE SMOOTH",
"587 1477 LINE SMOOTH",
"587 1503 OFFCURVE",
"574 1520 OFFCURVE",
"550 1520 CURVE SMOOTH",
"161 1520 LINE SMOOTH"
);
}
);
};
layerId = "258ED206-D907-4350-8EBA-CBDDA1C16BF7";
paths = (
{
closed = 1;
nodes = (
"140 0 LINE",
"539 0 LINE",
"539 1481 LINE",
"140 1481 LINE"
);
}
);
width = 679;
},
{
anchors = (
{
name = bottom;
position = "{268, 0}";
},
{
name = ogonek;
position = "{295, 20}";
},
{
name = top;
position = "{266, 1481}";
}
);
background = {
anchors = (
{
name = bottom;
position = "{276, 0}";
},
{
name = ogonek;
position = "{301, 20}";
},
{
name = top;
position = "{283, 1520}";
}
);
paths = (
{
closed = 1;
nodes = (
"233 1520 OFFCURVE",
"229 1516 OFFCURVE",
"229 1499 CURVE SMOOTH",
"229 20 LINE SMOOTH",
"229 4 OFFCURVE",
"233 0 OFFCURVE",
"252 0 CURVE SMOOTH",
"299 0 LINE SMOOTH",
"319 0 OFFCURVE",
"324 4 OFFCURVE",
"324 25 CURVE SMOOTH",
"324 1499 LINE SMOOTH",
"324 1516 OFFCURVE",
"319 1520 OFFCURVE",
"305 1520 CURVE SMOOTH",
"248 1520 LINE SMOOTH"
);
}
);
};
layerId = "91AB5BCA-6A50-42DA-B2F7-8181BF189245";
paths = (
{
closed = 1;
nodes = (
"225 0 LINE",
"305 0 LINE",
"305 1481 LINE",
"225 1481 LINE"
);
}
);
width = 530;
}
);
leftKerningGroup = N;
leftMetricsKey = H;
rightKerningGroup = N;
rightMetricsKey = H;
unicode = 0049;
},
{
glyphname = J;
lastChange = "2019-05-21 21:22:03 +0000";
layers = (
{
anchors = (
{
name = top;
position = "{527, 1481}";
}
);
background = {
anchors = (
{
name = top;
position = "{425, 1520}";
}
);
paths = (
{
closed = 1;
nodes = (
"787 1477 LINE SMOOTH",
"787 1503 OFFCURVE",
"775 1520 OFFCURVE",
"751 1520 CURVE SMOOTH",
"364 1520 LINE SMOOTH",
"339 1520 OFFCURVE",
"323 1503 OFFCURVE",
"323 1473 CURVE SMOOTH",
"323 549 LINE SMOOTH",
"323 410 OFFCURVE",
"263 358 OFFCURVE",
"163 358 CURVE SMOOTH",
"118 358 OFFCURVE",
"83 369 OFFCURVE",
"50 373 CURVE SMOOTH",
"17 377 OFFCURVE",
"3 356 OFFCURVE",
"1 326 CURVE SMOOTH",
"-17 92 LINE SMOOTH",
"-21 35 OFFCURVE",
"-1 12 OFFCURVE",
"46 4 CURVE SMOOTH",
"138 -12 OFFCURVE",
"216 -20 OFFCURVE",
"300 -20 CURVE SMOOTH",
"620 -20 OFFCURVE",
"787 98 OFFCURVE",
"787 434 CURVE SMOOTH"
);
}
);
};
layerId = "258ED206-D907-4350-8EBA-CBDDA1C16BF7";
paths = (
{
closed = 1;
nodes = (
"736 1481 LINE",
"337 1481 LINE",
"337 571 LINE SMOOTH",
"337 418 OFFCURVE",
"302 348 OFFCURVE",
"161 348 CURVE SMOOTH",
"118 348 OFFCURVE",
"67 354 OFFCURVE",
"30 358 CURVE",
"30 0 LINE",
"91 -12 OFFCURVE",
"214 -20 OFFCURVE",
"298 -20 CURVE SMOOTH",
"656 -20 OFFCURVE",
"736 141 OFFCURVE",
"736 469 CURVE SMOOTH"
);
}
);
width = 848;
},
{
anchors = (
{
name = top;
position = "{554, 1481}";
}
);
background = {
anchors = (
{
name = top;
position = "{575, 1520}";
}
);
paths = (
{
closed = 1;
nodes = (
"622 1499 LINE SMOOTH",
"622 1513 OFFCURVE",
"618 1520 OFFCURVE",
"605 1520 CURVE SMOOTH",
"544 1520 LINE SMOOTH",
"532 1520 OFFCURVE",
"527 1513 OFFCURVE",
"527 1501 CURVE SMOOTH",
"527 315 LINE SMOOTH",
"527 125 OFFCURVE",
"482 70 OFFCURVE",
"349 70 CURVE SMOOTH",
"249 70 OFFCURVE",
"204 100 OFFCURVE",
"161 121 CURVE SMOOTH",
"153 125 OFFCURVE",
"147 123 OFFCURVE",
"144 113 CURVE SMOOTH",
"126 49 LINE SMOOTH",
"124 41 OFFCURVE",
"128 35 OFFCURVE",
"134 31 CURVE SMOOTH",
"149 20 OFFCURVE",
"241 -20 OFFCURVE",
"353 -20 CURVE SMOOTH",
"552 -20 OFFCURVE",
"622 100 OFFCURVE",
"622 295 CURVE SMOOTH"
);
}
);
};
layerId = "91AB5BCA-6A50-42DA-B2F7-8181BF189245";
paths = (
{
closed = 1;
nodes = (
"595 1481 LINE",
"515 1481 LINE",
"515 315 LINE SMOOTH",
"515 129 OFFCURVE",
"470 63 OFFCURVE",
"341 63 CURVE SMOOTH",
"237 63 OFFCURVE",
"185 106 OFFCURVE",
"140 127 CURVE",
"120 39 LINE",
"134 27 OFFCURVE",
"228 -20 OFFCURVE",
"345 -20 CURVE SMOOTH",
"538 -20 OFFCURVE",
"595 98 OFFCURVE",
"595 287 CURVE SMOOTH"
);
}
);
width = 775;
}
);
leftKerningGroup = J;
leftMetricsKey = X;
rightKerningGroup = U;
rightMetricsKey = U;
unicode = 004A;
},
{
glyphname = K;
lastChange = "2019-05-22 19:35:35 +0000";
layers = (
{
anchors = (
{
name = bottom;
position = "{738, 0}";
},
{
name = top;
position = "{765, 1481}";
}
);
background = {
anchors = (
{
name = bottom;
position = "{734, 0}";
},
{
name = top;
position = "{734, 1520}";
}
);
paths = (
{
closed = 1;
nodes = (
"1054 983 LINE SMOOTH",
"1041 1012 OFFCURVE",
"1043 1026 OFFCURVE",
"1060 1049 CURVE SMOOTH",
"1396 1460 LINE SMOOTH",
"1422 1491 OFFCURVE",
"1398 1520 OFFCURVE",
"1353 1520 CURVE SMOOTH",
"1041 1520 LINE SMOOTH",
"992 1520 OFFCURVE",
"976 1507 OFFCURVE",
"953 1477 CURVE SMOOTH",
"576 948 LINE",
"560 928 OFFCURVE",
"546 926 OFFCURVE",
"546 958 CURVE SMOOTH",
"546 1477 LINE SMOOTH",
"546 1503 OFFCURVE",
"533 1520 OFFCURVE",
"509 1520 CURVE SMOOTH",
"120 1520 LINE SMOOTH",
"97 1520 OFFCURVE",
"81 1503 OFFCURVE",
"81 1473 CURVE SMOOTH",
"81 51 LINE SMOOTH",
"81 16 OFFCURVE",
"93 0 OFFCURVE",
"136 0 CURVE SMOOTH",
"478 0 LINE SMOOTH",
"525 0 OFFCURVE",
"546 16 OFFCURVE",
"546 59 CURVE SMOOTH",
"546 369 LINE SMOOTH",
"546 389 OFFCURVE",
"548 401 OFFCURVE",
"558 414 CURVE SMOOTH",
"703 600 LINE SMOOTH",
"724 627 OFFCURVE",
"736 631 OFFCURVE",
"748 610 CURVE SMOOTH",
"998 41 LINE SMOOTH",
"1013 10 OFFCURVE",
"1037 0 OFFCURVE",
"1072 0 CURVE SMOOTH",
"1471 0 LINE SMOOTH",
"1512 0 OFFCURVE",
"1516 31 OFFCURVE",
"1500 63 CURVE SMOOTH"
);
}
);
};
guideLines = (
{
angle = 54.4985;
position = "{1023, 915}";
},
{
angle = -62.8805;
position = "{358, 283}";
}
);
hints = (
{
horizontal = 1;
origin = "{0, 6}";
target = up;
type = BottomGhost;
},
{
horizontal = 1;
origin = "{0, 5}";
target = down;
type = TopGhost;
},
{
place = "{168, 453}";
type = Stem;
}
);
layerId = "258ED206-D907-4350-8EBA-CBDDA1C16BF7";
paths = (
{
closed = 1;
nodes = (
"1023 915 LINE",
"1430 1481 LINE",
"982 1481 LINE",
"554 883 LINE",
"554 1481 LINE",
"140 1481 LINE",
"140 0 LINE",
"554 0 LINE",
"554 387 LINE",
"738 625 LINE",
"1068 0 LINE",
"1496 0 LINE"
);
}
);
width = 1534;
},
{
anchors = (
{
name = bottom;
position = "{680, 0}";
},
{
name = top;
position = "{715, 1481}";
}
);
background = {
anchors = (
{
name = bottom;
position = "{702, 0}";
},
{
name = top;
position = "{764, 1520}";
}
);
paths = (
{
closed = 1;
nodes = (
"702 911 LINE SMOOTH",
"698 920 OFFCURVE",
"698 920 OFFCURVE",
"702 924 CURVE SMOOTH",
"1233 1503 LINE SMOOTH",
"1241 1511 OFFCURVE",
"1239 1520 OFFCURVE",
"1227 1520 CURVE SMOOTH",
"1149 1520 LINE SMOOTH",
"1137 1520 OFFCURVE",
"1133 1518 OFFCURVE",
"1126 1511 CURVE SMOOTH",
"342 659 LINE SMOOTH",
"332 649 OFFCURVE",
"328 649 OFFCURVE",
"328 662 CURVE SMOOTH",
"328 1503 LINE SMOOTH",
"328 1516 OFFCURVE",
"322 1520 OFFCURVE",
"311 1520 CURVE SMOOTH",
"250 1520 LINE SMOOTH",
"238 1520 OFFCURVE",
"233 1513 OFFCURVE",
"233 1503 CURVE SMOOTH",
"233 18 LINE SMOOTH",
"233 4 OFFCURVE",
"240 0 OFFCURVE",
"254 0 CURVE SMOOTH",
"307 0 LINE SMOOTH",
"322 0 OFFCURVE",
"328 6 OFFCURVE",
"328 18 CURVE SMOOTH",
"328 504 LINE SMOOTH",
"328 520 OFFCURVE",
"332 526 OFFCURVE",
"344 539 CURVE SMOOTH",
"614 838 LINE SMOOTH",
"625 848 OFFCURVE",
"631 850 OFFCURVE",
"639 838 CURVE SMOOTH",
"1167 10 LINE SMOOTH",
"1171 4 OFFCURVE",
"1180 0 OFFCURVE",
"1190 0 CURVE SMOOTH",
"1270 0 LINE SMOOTH",
"1278 0 OFFCURVE",
"1282 6 OFFCURVE",
"1276 14 CURVE SMOOTH"
);
}
);
};
guideLines = (
{
angle = 47.5607;
position = "{607, 836}";
},
{
angle = -57.4178;
position = "{1135, 0}";
}
);
layerId = "91AB5BCA-6A50-42DA-B2F7-8181BF189245";
rightMetricsKey = "=X/1.25";
paths = (
{
closed = 1;
nodes = (
"665 890 LINE",
"1206 1481 LINE",
"1096 1481 LINE",
"309 627 LINE",
"309 1481 LINE",
"225 1481 LINE",
"225 0 LINE",
"309 0 LINE",
"309 509 LINE",
"604 831 LINE",
"1135 0 LINE",
"1236 0 LINE"
);
}
);
width = 1332;
}
);
leftKerningGroup = N;
leftMetricsKey = H;
rightKerningGroup = K;
rightMetricsKey = "=X*1.25";
unicode = 004B;
},
{
glyphname = L;
lastChange = "2019-06-06 17:35:10 +0000";
layers = (
{
anchors = (
{
name = bottom;
position = "{630, 0}";
},
{
name = caron;
position = "{751, 1481}";
},
{
name = top;
position = "{331, 1481}";
}
);
background = {
anchors = (
{
name = bottom;
position = "{623, 0}";
},
{
name = top;
position = "{324, 1520}";
},
{
name = topright;
position = "{1025, 1520}";
}
);
paths = (
{
closed = 1;
nodes = (
"87 51 LINE SMOOTH",
"87 16 OFFCURVE",
"99 0 OFFCURVE",
"142 0 CURVE SMOOTH",
"1189 0 LINE SMOOTH",
"1224 0 OFFCURVE",
"1240 20 OFFCURVE",
"1240 45 CURVE SMOOTH",
"1240 297 LINE SMOOTH",
"1240 326 OFFCURVE",
"1221 336 OFFCURVE",
"1193 336 CURVE SMOOTH",
"576 336 LINE SMOOTH",
"558 336 OFFCURVE",
"552 342 OFFCURVE",
"552 365 CURVE SMOOTH",
"552 1477 LINE SMOOTH",
"552 1503 OFFCURVE",
"539 1520 OFFCURVE",
"515 1520 CURVE SMOOTH",
"126 1520 LINE SMOOTH",
"103 1520 OFFCURVE",
"87 1503 OFFCURVE",
"87 1473 CURVE SMOOTH"
);
}
);
};
layerId = "258ED206-D907-4350-8EBA-CBDDA1C16BF7";
rightMetricsKey = "=H/2.5";
paths = (
{
closed = 1;
nodes = (
"140 0 LINE",
"1131 0 LINE",
"1131 328 LINE",
"539 328 LINE",
"539 1481 LINE",
"140 1481 LINE"
);
}
);
width = 1187;
},
{
anchors = (
{
name = bottom;
position = "{635, 0}";
},
{
name = caron;
position = "{840, 1493}";
},
{
name = top;
position = "{272, 1481}";
}
);
background = {
anchors = (
{
name = bottom;
position = "{653, 0}";
},
{
name = top;
position = "{281, 1520}";
},
{
name = topright;
position = "{866, 1520}";
}
);
paths = (
{
closed = 1;
nodes = (
"233 20 LINE SMOOTH",
"233 6 OFFCURVE",
"238 0 OFFCURVE",
"252 0 CURVE",
"1092 0 LINE",
"1102 0 OFFCURVE",
"1106 4 OFFCURVE",
"1106 14 CURVE SMOOTH",
"1106 68 LINE SMOOTH",
"1106 80 OFFCURVE",
"1102 82 OFFCURVE",
"1090 82 CURVE SMOOTH",
"346 82 LINE SMOOTH",
"332 82 OFFCURVE",
"328 84 OFFCURVE",
"328 100 CURVE SMOOTH",
"328 1499 LINE SMOOTH",
"328 1516 OFFCURVE",
"324 1520 OFFCURVE",
"309 1520 CURVE SMOOTH",
"252 1520 LINE SMOOTH",
"238 1520 OFFCURVE",
"233 1516 OFFCURVE",
"233 1499 CURVE SMOOTH"
);
}
);
};
layerId = "91AB5BCA-6A50-42DA-B2F7-8181BF189245";
paths = (
{
closed = 1;
nodes = (
"225 0 LINE",
"1069 0 LINE",
"1069 88 LINE",
"313 88 LINE",
"313 1481 LINE",
"227 1481 LINE"
);
}
);
width = 1189;
}
);
leftKerningGroup = N;
leftMetricsKey = H;
rightKerningGroup = L;
rightMetricsKey = X;
unicode = 004C;
},
{
glyphname = Lslash;
lastChange = "2019-05-21 21:13:38 +0000";
layers = (
{
background = {
components = (
{
name = L;
transform = "{1, 0, 0, 1, 20, 0}";
}
);
paths = (
{
closed = 1;
nodes = (
"895 1098 OFFCURVE",
"881 1112 OFFCURVE",
"846 1102 CURVE SMOOTH",
"39 887 LINE SMOOTH",
"14 881 OFFCURVE",
"0 870 OFFCURVE",
"0 840 CURVE SMOOTH",
"0 600 LINE SMOOTH",
"0 567 OFFCURVE",
"12 553 OFFCURVE",
"51 565 CURVE SMOOTH",
"854 793 LINE SMOOTH",
"883 801 OFFCURVE",
"895 817 OFFCURVE",
"895 840 CURVE SMOOTH",
"895 1067 LINE SMOOTH"
);
}
);
};
components = (
{
name = L;
transform = "{1, 0, 0, 1, 41, 0}";
}
);
layerId = "258ED206-D907-4350-8EBA-CBDDA1C16BF7";
paths = (
{
closed = 1;
nodes = (
"0 877 LINE",
"0 551 LINE",
"895 805 LINE",
"895 1114 LINE"
);
}
);
width = 1228;
},
{
background = {
components = (
{
name = L;
transform = "{1, 0, 0, 1, -5, 0}";
}
);
paths = (
{
closed = 1;
nodes = (
"649 870 OFFCURVE",
"645 874 OFFCURVE",
"635 872 CURVE SMOOTH",
"72 729 LINE SMOOTH",
"66 727 OFFCURVE",
"61 721 OFFCURVE",
"61 711 CURVE SMOOTH",
"61 664 LINE SMOOTH",
"61 653 OFFCURVE",
"66 651 OFFCURVE",
"76 653 CURVE SMOOTH",
"637 799 LINE SMOOTH",
"645 801 OFFCURVE",
"649 807 OFFCURVE",
"649 815 CURVE SMOOTH",
"649 862 LINE SMOOTH"
);
}
);
};
components = (
{
name = L;
transform = "{1, 0, 0, 1, -10, 0}";
}
);
layerId = "91AB5BCA-6A50-42DA-B2F7-8181BF189245";
paths = (
{
closed = 1;
nodes = (
"61 727 LINE",
"61 649 LINE",
"649 803 LINE",
"649 877 LINE"
);
}
);
width = 1179;
}
);
leftKerningGroup = N;
rightKerningGroup = L;
rightMetricsKey = L;
unicode = 0141;
},
{
glyphname = M;
lastChange = "2019-05-21 21:06:15 +0000";
layers = (
{
background = {
paths = (
{
closed = 1;
nodes = (
"437 0 LINE SMOOTH",
"474 0 OFFCURVE",
"482 8 OFFCURVE",
"482 45 CURVE SMOOTH",
"482 950 LINE SMOOTH",
"482 977 OFFCURVE",
"496 985 OFFCURVE",
"507 952 CURVE SMOOTH",
"802 37 LINE SMOOTH",
"810 12 OFFCURVE",
"826 0 OFFCURVE",
"851 0 CURVE SMOOTH",
"1066 0 LINE SMOOTH",
"1088 0 OFFCURVE",
"1107 14 OFFCURVE",
"1115 37 CURVE SMOOTH",
"1410 969 LINE SMOOTH",
"1418 993 OFFCURVE",
"1434 993 OFFCURVE",
"1434 971 CURVE SMOOTH",
"1434 51 LINE SMOOTH",
"1434 16 OFFCURVE",
"1447 0 OFFCURVE",
"1488 0 CURVE SMOOTH",
"1834 0 LINE SMOOTH",
"1881 0 OFFCURVE",
"1899 16 OFFCURVE",
"1899 59 CURVE SMOOTH",
"1899 1477 LINE SMOOTH",
"1899 1503 OFFCURVE",
"1887 1520 OFFCURVE",
"1862 1520 CURVE SMOOTH",
"1271 1520 LINE SMOOTH",
"1242 1520 OFFCURVE",
"1226 1497 OFFCURVE",
"1215 1460 CURVE SMOOTH",
"1025 831 LINE SMOOTH",
"1019 813 OFFCURVE",
"1006 809 OFFCURVE",
"998 831 CURVE SMOOTH",
"785 1483 LINE SMOOTH",
"775 1511 OFFCURVE",
"763 1520 OFFCURVE",
"728 1520 CURVE SMOOTH",
"154 1520 LINE SMOOTH",
"124 1520 OFFCURVE",
"111 1505 OFFCURVE",
"111 1473 CURVE SMOOTH",
"111 57 LINE SMOOTH",
"111 23 OFFCURVE",
"132 0 OFFCURVE",
"165 0 CURVE SMOOTH"
);
}
);
};
guideLines = (
{
angle = -105;
position = "{463, 261}";
},
{
angle = 105;
position = "{463, 261}";
}
);
layerId = "258ED206-D907-4350-8EBA-CBDDA1C16BF7";
paths = (
{
closed = 1;
nodes = (
"539 0 LINE",
"539 1073 LINE",
"828 0 LINE",
"1115 0 LINE",
"1404 1073 LINE",
"1404 0 LINE",
"1803 0 LINE",
"1803 1481 LINE",
"1213 1481 LINE",
"972 578 LINE",
"732 1481 LINE",
"140 1481 LINE",
"140 0 LINE"
);
}
);
width = 1943;
},
{
background = {
guideLines = (
{
position = "{44, 566}";
showMeasurement = 1;
}
);
paths = (
{
closed = 1;
nodes = (
"295 0 LINE SMOOTH",
"309 0 OFFCURVE",
"315 6 OFFCURVE",
"315 18 CURVE SMOOTH",
"315 1274 LINE SMOOTH",
"315 1282 OFFCURVE",
"319 1280 OFFCURVE",
"322 1274 CURVE SMOOTH",
"821 20 LINE SMOOTH",
"827 6 OFFCURVE",
"838 0 OFFCURVE",
"860 0 CURVE SMOOTH",
"915 0 LINE SMOOTH",
"934 0 OFFCURVE",
"942 6 OFFCURVE",
"948 23 CURVE SMOOTH",
"1458 1284 LINE SMOOTH",
"1460 1290 OFFCURVE",
"1464 1294 OFFCURVE",
"1464 1284 CURVE SMOOTH",
"1464 18 LINE SMOOTH",
"1464 4 OFFCURVE",
"1470 0 OFFCURVE",
"1485 0 CURVE SMOOTH",
"1540 0 LINE SMOOTH",
"1552 0 OFFCURVE",
"1559 6 OFFCURVE",
"1559 20 CURVE SMOOTH",
"1559 1499 LINE SMOOTH",
"1559 1516 OFFCURVE",
"1554 1520 OFFCURVE",
"1540 1520 CURVE SMOOTH",
"1481 1520 LINE SMOOTH",
"1468 1520 OFFCURVE",
"1462 1516 OFFCURVE",
"1458 1505 CURVE SMOOTH",
"903 133 LINE SMOOTH",
"891 104 OFFCURVE",
"881 104 OFFCURVE",
"870 131 CURVE SMOOTH",
"324 1503 LINE",
"319 1516 OFFCURVE",
"313 1520 OFFCURVE",
"297 1520 CURVE SMOOTH",
"244 1520 LINE SMOOTH",
"229 1520 OFFCURVE",
"225 1516 OFFCURVE",
"225 1499 CURVE SMOOTH",
"225 20 LINE SMOOTH",
"225 6 OFFCURVE",
"229 0 OFFCURVE",
"244 0 CURVE SMOOTH"
);
}
);
};
guideLines = (
{
position = "{115, 525}";
showMeasurement = 1;
},
{
angle = 68.255;
position = "{397, 0}";
}
);
layerId = "91AB5BCA-6A50-42DA-B2F7-8181BF189245";
paths = (
{
closed = 1;
nodes = (
"313 0 LINE",
"313 1245 LINE",
"811 0 LINE",
"930 0 LINE",
"1434 1262 LINE",
"1434 0 LINE",
"1522 0 LINE",
"1522 1481 LINE",
"1434 1481 LINE",
"870 90 LINE",
"315 1481 LINE",
"225 1481 LINE",
"225 0 LINE"
);
}
);
width = 1747;
}
);
leftKerningGroup = N;
leftMetricsKey = "=H";
rightKerningGroup = N;
rightMetricsKey = H;
unicode = 004D;
},
{
glyphname = N;
lastChange = "2019-05-21 21:01:10 +0000";
layers = (
{
anchors = (
{
name = bottom;
position = "{828, 0}";
},
{
name = top;
position = "{828, 1481}";
}
);
background = {
anchors = (
{
name = bottom;
position = "{826, 0}";
},
{
name = top;
position = "{826, 1520}";
}
);
paths = (
{
closed = 1;
nodes = (
"1140 1520 OFFCURVE",
"1125 1503 OFFCURVE",
"1125 1477 CURVE SMOOTH",
"1125 807 LINE SMOOTH",
"1125 774 OFFCURVE",
"1111 774 OFFCURVE",
"1092 799 CURVE SMOOTH",
"601 1483 LINE SMOOTH",
"578 1513 OFFCURVE",
"566 1520 OFFCURVE",
"531 1520 CURVE SMOOTH",
"197 1520 LINE SMOOTH",
"167 1520 OFFCURVE",
"152 1505 OFFCURVE",
"152 1473 CURVE SMOOTH",
"152 41 LINE SMOOTH",
"152 10 OFFCURVE",
"173 0 OFFCURVE",
"204 0 CURVE SMOOTH",
"482 0 LINE SMOOTH",
"519 0 OFFCURVE",
"533 12 OFFCURVE",
"531 45 CURVE SMOOTH",
"531 791 LINE SMOOTH",
"531 805 OFFCURVE",
"542 809 OFFCURVE",
"552 795 CURVE SMOOTH",
"1115 31 LINE SMOOTH",
"1135 4 OFFCURVE",
"1148 0 OFFCURVE",
"1170 0 CURVE SMOOTH",
"1451 0 LINE SMOOTH",
"1477 0 OFFCURVE",
"1498 14 OFFCURVE",
"1498 37 CURVE SMOOTH",
"1498 1485 LINE SMOOTH",
"1498 1507 OFFCURVE",
"1488 1520 OFFCURVE",
"1467 1520 CURVE SMOOTH",
"1170 1520 LINE SMOOTH"
);
}
);
};
guideLines = (
{
angle = 125.0467;
position = "{530, 296}";
}
);
layerId = "258ED206-D907-4350-8EBA-CBDDA1C16BF7";
paths = (
{
closed = 1;
nodes = (
"1119 655 LINE",
"542 1481 LINE",
"140 1481 LINE",
"140 0 LINE",
"539 0 LINE",
"539 883 LINE",
"1158 0 LINE",
"1518 0 LINE",
"1518 1481 LINE",
"1119 1481 LINE"
);
}
);
width = 1658;
},
{
anchors = (
{
name = bottom;
position = "{694, 0}";
},
{
name = top;
position = "{743, 1481}";
}
);
background = {
anchors = (
{
name = bottom;
position = "{727, 0}";
},
{
name = top;
position = "{799, 1520}";
}
);
guideLines = (
{
position = "{49, 576}";
showMeasurement = 1;
}
);
paths = (
{
closed = 1;
nodes = (
"1219 1520 OFFCURVE",
"1214 1513 OFFCURVE",
"1214 1501 CURVE SMOOTH",
"1214 219 LINE SMOOTH",
"1214 207 OFFCURVE",
"1200 195 OFFCURVE",
"1186 215 CURVE SMOOTH",
"311 1505 LINE SMOOTH",
"303 1518 OFFCURVE",
"297 1520 OFFCURVE",
"281 1520 CURVE SMOOTH",
"244 1520 LINE",
"229 1520 OFFCURVE",
"225 1516 OFFCURVE",
"225 1499 CURVE SMOOTH",
"225 20 LINE SMOOTH",
"225 6 OFFCURVE",
"229 0 OFFCURVE",
"244 0 CURVE SMOOTH",
"295 0 LINE SMOOTH",
"309 0 OFFCURVE",
"315 6 OFFCURVE",
"315 18 CURVE SMOOTH",
"315 1305 LINE SMOOTH",
"315 1321 OFFCURVE",
"326 1325 OFFCURVE",
"340 1305 CURVE SMOOTH",
"1217 12 LINE SMOOTH",
"1227 -2 OFFCURVE",
"1239 0 OFFCURVE",
"1255 0 CURVE SMOOTH",
"1286 0 LINE SMOOTH",
"1298 0 OFFCURVE",
"1305 6 OFFCURVE",
"1305 20 CURVE SMOOTH",
"1305 1499 LINE SMOOTH",
"1305 1516 OFFCURVE",
"1300 1520 OFFCURVE",
"1286 1520 CURVE SMOOTH",
"1231 1520 LINE SMOOTH"
);
}
);
};
guideLines = (
{
position = "{120, 534}";
showMeasurement = 1;
},
{
angle = 123.9688;
position = "{122, 610}";
}
);
layerId = "91AB5BCA-6A50-42DA-B2F7-8181BF189245";
paths = (
{
closed = 1;
nodes = (
"1182 160 LINE",
"291 1481 LINE",
"225 1481 LINE",
"225 0 LINE",
"305 0 LINE",
"305 1317 LINE",
"1192 0 LINE",
"1262 0 LINE",
"1262 1481 LINE",
"1182 1481 LINE"
);
}
);
width = 1487;
}
);
leftKerningGroup = N;
leftMetricsKey = H;
rightKerningGroup = N;
rightMetricsKey = H;
unicode = 004E;
},
{
glyphname = Eng;
lastChange = "2019-05-21 21:13:38 +0000";
layers = (
{
background = {
paths = (
{
closed = 1;
nodes = (
"1141 1520 LINE SMOOTH",
"1110 1520 OFFCURVE",
"1096 1503 OFFCURVE",
"1096 1477 CURVE SMOOTH",
"1096 889 LINE SMOOTH",
"1096 856 OFFCURVE",
"1081 856 OFFCURVE",
"1063 881 CURVE",
"571 1483 LINE SMOOTH",
"547 1513 OFFCURVE",
"537 1520 OFFCURVE",
"502 1520 CURVE SMOOTH",
"168 1520 LINE SMOOTH",
"137 1520 OFFCURVE",
"123 1505 OFFCURVE",
"123 1473 CURVE SMOOTH",
"123 41 LINE SMOOTH",
"123 10 OFFCURVE",
"143 0 OFFCURVE",
"174 0 CURVE SMOOTH",
"453 0 LINE SMOOTH",
"489 0 OFFCURVE",
"504 12 OFFCURVE",
"502 45 CURVE",
"502 791 LINE",
"502 805 OFFCURVE",
"510 809 OFFCURVE",
"522 795 CURVE SMOOTH",
"1014 199 LINE",
"1014 180 LINE SMOOTH",
"1008 63 OFFCURVE",
"946 20 OFFCURVE",
"854 20 CURVE SMOOTH",
"809 20 OFFCURVE",
"762 31 OFFCURVE",
"729 35 CURVE SMOOTH",
"696 39 OFFCURVE",
"682 18 OFFCURVE",
"680 -12 CURVE SMOOTH",
"662 -246 LINE SMOOTH",
"657 -303 OFFCURVE",
"678 -326 OFFCURVE",
"725 -334 CURVE SMOOTH",
"817 -350 OFFCURVE",
"907 -358 OFFCURVE",
"991 -358 CURVE SMOOTH",
"1303 -358 OFFCURVE",
"1468 -233 OFFCURVE",
"1468 96 CURVE SMOOTH",
"1468 1485 LINE SMOOTH",
"1468 1507 OFFCURVE",
"1458 1520 OFFCURVE",
"1438 1520 CURVE SMOOTH"
);
}
);
};
components = (
{
name = N;
},
{
alignment = -1;
name = "_j-hook";
transform = "{1, 0, 0, 1, 762, -471}";
}
);
layerId = "258ED206-D907-4350-8EBA-CBDDA1C16BF7";
width = 1660;
},
{
background = {
paths = (
{
closed = 1;
nodes = (
"1235 1520 LINE SMOOTH",
"1223 1520 OFFCURVE",
"1219 1513 OFFCURVE",
"1219 1501 CURVE SMOOTH",
"1219 219 LINE SMOOTH",
"1219 207 OFFCURVE",
"1204 193 OFFCURVE",
"1190 213 CURVE SMOOTH",
"317 1505 LINE SMOOTH",
"309 1518 OFFCURVE",
"303 1520 OFFCURVE",
"289 1520 CURVE SMOOTH",
"246 1520 LINE SMOOTH",
"231 1520 OFFCURVE",
"227 1516 OFFCURVE",
"227 1499 CURVE SMOOTH",
"227 20 LINE SMOOTH",
"227 6 OFFCURVE",
"231 0 OFFCURVE",
"246 0 CURVE SMOOTH",
"297 0 LINE SMOOTH",
"311 0 OFFCURVE",
"317 6 OFFCURVE",
"317 18 CURVE SMOOTH",
"317 1311 LINE SMOOTH",
"317 1327 OFFCURVE",
"322 1331 OFFCURVE",
"336 1311 CURVE SMOOTH",
"1212 25 LINE",
"1212 -84 LINE SMOOTH",
"1212 -229 OFFCURVE",
"1149 -276 OFFCURVE",
"1038 -276 CURVE SMOOTH",
"977 -276 OFFCURVE",
"928 -262 OFFCURVE",
"895 -250 CURVE SMOOTH",
"885 -246 OFFCURVE",
"881 -248 OFFCURVE",
"879 -258 CURVE",
"872 -309 LINE",
"872 -317 OFFCURVE",
"874 -324 OFFCURVE",
"881 -328 CURVE SMOOTH",
"895 -338 OFFCURVE",
"963 -358 OFFCURVE",
"1047 -358 CURVE SMOOTH",
"1239 -358 OFFCURVE",
"1307 -254 OFFCURVE",
"1307 -94 CURVE SMOOTH",
"1307 1499 LINE SMOOTH",
"1307 1516 OFFCURVE",
"1303 1520 OFFCURVE",
"1288 1520 CURVE SMOOTH"
);
}
);
};
components = (
{
name = N;
},
{
alignment = -1;
name = "_j-hook";
transform = "{1, 0, 0, 1, 733, -471}";
}
);
layerId = "91AB5BCA-6A50-42DA-B2F7-8181BF189245";
width = 1487;
}
);
leftKerningGroup = N;
leftMetricsKey = N;
rightKerningGroup = N;
rightMetricsKey = N;
unicode = 014A;
},
{
glyphname = O;
lastChange = "2019-05-21 20:59:37 +0000";
layers = (
{
anchors = (
{
name = bottom;
position = "{811, 0}";
},
{
name = horn;
position = "{1309, 1120}";
},
{
name = ogonek;
position = "{994, 20}";
},
{
name = top;
position = "{807, 1481}";
}
);
background = {
anchors = (
{
name = bottom;
position = "{809, 0}";
},
{
name = ogonek;
position = "{996, 20}";
},
{
name = top;
position = "{805, 1520}";
}
);
paths = (
{
closed = 1;
nodes = (
"1254 -20 OFFCURVE",
"1540 285 OFFCURVE",
"1540 756 CURVE SMOOTH",
"1540 1231 OFFCURVE",
"1248 1540 OFFCURVE",
"807 1540 CURVE SMOOTH",
"363 1540 OFFCURVE",
"70 1231 OFFCURVE",
"70 756 CURVE SMOOTH",
"70 283 OFFCURVE",
"355 -20 OFFCURVE",
"807 -20 CURVE SMOOTH"
);
},
{
closed = 1;
nodes = (
"625 299 OFFCURVE",
"557 422 OFFCURVE",
"557 750 CURVE SMOOTH",
"557 1087 OFFCURVE",
"629 1225 OFFCURVE",
"807 1225 CURVE SMOOTH",
"981 1225 OFFCURVE",
"1053 1087 OFFCURVE",
"1053 750 CURVE SMOOTH",
"1053 422 OFFCURVE",
"985 299 OFFCURVE",
"807 299 CURVE SMOOTH"
);
}
);
};
guideLines = (
{
angle = 90;
position = "{-510, 389}";
}
);
layerId = "258ED206-D907-4350-8EBA-CBDDA1C16BF7";
paths = (
{
closed = 1;
nodes = (
"1245 -20 OFFCURVE",
"1524 279 OFFCURVE",
"1524 737 CURVE SMOOTH",
"1524 1200 OFFCURVE",
"1239 1501 OFFCURVE",
"809 1501 CURVE SMOOTH",
"377 1501 OFFCURVE",
"90 1200 OFFCURVE",
"90 737 CURVE SMOOTH",
"90 276 OFFCURVE",
"369 -20 OFFCURVE",
"809 -20 CURVE SMOOTH"
);
},
{
closed = 1;
nodes = (
"645 299 OFFCURVE",
"525 412 OFFCURVE",
"525 731 CURVE SMOOTH",
"525 1061 OFFCURVE",
"645 1182 OFFCURVE",
"809 1182 CURVE SMOOTH",
"973 1182 OFFCURVE",
"1092 1061 OFFCURVE",
"1092 731 CURVE SMOOTH",
"1092 412 OFFCURVE",
"973 299 OFFCURVE",
"809 299 CURVE SMOOTH"
);
}
);
width = 1614;
},
{
anchors = (
{
name = bottom;
position = "{736, 0}";
},
{
name = horn;
position = "{1121, 1241}";
},
{
name = ogonek;
position = "{876, 18}";
},
{
name = top;
position = "{736, 1481}";
}
);
background = {
anchors = (
{
name = bottom;
position = "{757, 0}";
},
{
name = ogonek;
position = "{900, 18}";
},
{
name = top;
position = "{757, 1520}";
}
);
paths = (
{
closed = 1;
nodes = (
"1138 -20 OFFCURVE",
"1369 250 OFFCURVE",
"1369 756 CURVE SMOOTH",
"1369 1266 OFFCURVE",
"1138 1540 OFFCURVE",
"755 1540 CURVE SMOOTH",
"370 1540 OFFCURVE",
"136 1264 OFFCURVE",
"136 752 CURVE SMOOTH",
"136 248 OFFCURVE",
"366 -20 OFFCURVE",
"753 -20 CURVE SMOOTH"
);
},
{
closed = 1;
nodes = (
"417 66 OFFCURVE",
"235 293 OFFCURVE",
"235 756 CURVE SMOOTH",
"235 1223 OFFCURVE",
"417 1454 OFFCURVE",
"755 1454 CURVE SMOOTH",
"1091 1454 OFFCURVE",
"1271 1225 OFFCURVE",
"1271 756 CURVE SMOOTH",
"1271 291 OFFCURVE",
"1095 66 OFFCURVE",
"757 66 CURVE SMOOTH"
);
}
);
};
guideLines = (
{
angle = 90;
position = "{-448, 400}";
},
{
angle = 90;
position = "{395, 593}";
}
);
layerId = "91AB5BCA-6A50-42DA-B2F7-8181BF189245";
paths = (
{
closed = 1;
nodes = (
"1107 -20 OFFCURVE",
"1332 244 OFFCURVE",
"1332 737 CURVE SMOOTH",
"1332 1235 OFFCURVE",
"1107 1501 OFFCURVE",
"734 1501 CURVE SMOOTH",
"357 1501 OFFCURVE",
"130 1233 OFFCURVE",
"130 733 CURVE SMOOTH",
"130 242 OFFCURVE",
"355 -20 OFFCURVE",
"732 -20 CURVE SMOOTH"
);
},
{
closed = 1;
nodes = (
"405 63 OFFCURVE",
"220 285 OFFCURVE",
"220 737 CURVE SMOOTH",
"220 1192 OFFCURVE",
"405 1417 OFFCURVE",
"734 1417 CURVE SMOOTH",
"1062 1417 OFFCURVE",
"1242 1194 OFFCURVE",
"1242 737 CURVE SMOOTH",
"1242 283 OFFCURVE",
"1066 63 OFFCURVE",
"736 63 CURVE SMOOTH"
);
}
);
width = 1462;
}
);
leftKerningGroup = O;
rightKerningGroup = O;
unicode = 004F;
},
{
glyphname = Oslash;
lastChange = "2019-05-08 21:34:10 +0000";
layers = (
{
anchors = (
{
name = top;
position = "{807, 1481}";
}
);
background = {
anchors = (
{
name = top;
position = "{807, 1481}";
}
);
paths = (
{
closed = 1;
nodes = (
"1464 1481 LINE SMOOTH",
"1448 1497 OFFCURVE",
"1423 1493 OFFCURVE",
"1403 1473 CURVE SMOOTH",
"1272 1346 LINE",
"1153 1446 OFFCURVE",
"995 1501 OFFCURVE",
"809 1501 CURVE SMOOTH",
"375 1501 OFFCURVE",
"90 1200 OFFCURVE",
"90 737 CURVE SMOOTH",
"90 565 OFFCURVE",
"129 418 OFFCURVE",
"199 299 CURVE",
"63 168 LINE SMOOTH",
"41 143 OFFCURVE",
"43 123 OFFCURVE",
"72 94 CURVE SMOOTH",
"150 14 LINE SMOOTH",
"182 -18 OFFCURVE",
"207 -16 OFFCURVE",
"236 14 CURVE SMOOTH",
"350 125 LINE",
"469 33 OFFCURVE",
"625 -20 OFFCURVE",
"809 -20 CURVE SMOOTH",
"1245 -20 OFFCURVE",
"1524 279 OFFCURVE",
"1524 737 CURVE SMOOTH",
"1524 905 OFFCURVE",
"1487 1051 OFFCURVE",
"1417 1167 CURVE",
"1569 1317 LINE",
"1589 1333 OFFCURVE",
"1587 1354 OFFCURVE",
"1571 1370 CURVE SMOOTH"
);
},
{
closed = 1;
nodes = (
"565 1061 OFFCURVE",
"635 1194 OFFCURVE",
"809 1194 CURVE SMOOTH",
"897 1194 OFFCURVE",
"958 1159 OFFCURVE",
"997 1077 CURVE",
"567 657 LINE",
"565 682 OFFCURVE",
"565 707 OFFCURVE",
"565 731 CURVE"
);
},
{
closed = 1;
nodes = (
"1049 412 OFFCURVE",
"983 291 OFFCURVE",
"809 291 CURVE SMOOTH",
"721 291 OFFCURVE",
"659 322 OFFCURVE",
"621 389 CURVE",
"1047 807 LINE",
"1049 780 OFFCURVE",
"1049 758 OFFCURVE",
"1049 731 CURVE SMOOTH"
);
}
);
};
layerId = "258ED206-D907-4350-8EBA-CBDDA1C16BF7";
paths = (
{
closed = 1;
nodes = (
"350 125 LINE",
"469 33 OFFCURVE",
"625 -20 OFFCURVE",
"809 -20 CURVE SMOOTH",
"1245 -20 OFFCURVE",
"1524 279 OFFCURVE",
"1524 737 CURVE SMOOTH",
"1524 905 OFFCURVE",
"1487 1051 OFFCURVE",
"1417 1167 CURVE",
"1595 1343 LINE",
"1440 1507 LINE",
"1272 1346 LINE",
"1153 1446 OFFCURVE",
"995 1501 OFFCURVE",
"809 1501 CURVE SMOOTH",
"375 1501 OFFCURVE",
"90 1200 OFFCURVE",
"90 737 CURVE SMOOTH",
"90 565 OFFCURVE",
"129 418 OFFCURVE",
"199 299 CURVE",
"31 137 LINE",
"190 -29 LINE"
);
},
{
closed = 1;
nodes = (
"721 291 OFFCURVE",
"659 322 OFFCURVE",
"621 389 CURVE",
"1049 809 LINE",
"1049 686 OFFCURVE",
"1042 590 OFFCURVE",
"1026 514 CURVE SMOOTH",
"995 356 OFFCURVE",
"926 291 OFFCURVE",
"809 291 CURVE SMOOTH"
);
},
{
closed = 1;
nodes = (
"565 758 OFFCURVE",
"569 844 OFFCURVE",
"582 915 CURVE SMOOTH",
"610 1110 OFFCURVE",
"682 1194 OFFCURVE",
"809 1194 CURVE SMOOTH",
"897 1194 OFFCURVE",
"958 1159 OFFCURVE",
"997 1077 CURVE",
"565 655 LINE"
);
}
);
width = 1636;
},
{
anchors = (
{
name = top;
position = "{743, 1481}";
}
);
background = {
anchors = (
{
name = top;
position = "{743, 1481}";
}
);
paths = (
{
closed = 1;
nodes = (
"1350 1495 LINE",
"1341 1503 OFFCURVE",
"1333 1499 OFFCURVE",
"1325 1489 CURVE",
"1176 1317 LINE",
"1071 1438 OFFCURVE",
"926 1501 OFFCURVE",
"743 1501 CURVE SMOOTH",
"369 1501 OFFCURVE",
"141 1233 OFFCURVE",
"141 733 CURVE SMOOTH",
"141 530 OFFCURVE",
"178 367 OFFCURVE",
"250 246 CURVE",
"82 51 LINE",
"74 41 OFFCURVE",
"76 37 OFFCURVE",
"90 23 CURVE SMOOTH",
"125 -10 LINE",
"141 -23 OFFCURVE",
"152 -23 OFFCURVE",
"162 -6 CURVE",
"309 162 LINE",
"410 41 OFFCURVE",
"557 -20 OFFCURVE",
"741 -20 CURVE SMOOTH",
"1116 -20 OFFCURVE",
"1343 244 OFFCURVE",
"1343 737 CURVE SMOOTH",
"1343 942 OFFCURVE",
"1305 1108 OFFCURVE",
"1233 1233 CURVE",
"1403 1430 LINE",
"1409 1438 OFFCURVE",
"1407 1446 OFFCURVE",
"1401 1452 CURVE"
);
},
{
closed = 1;
nodes = (
"242 1192 OFFCURVE",
"414 1415 OFFCURVE",
"743 1415 CURVE SMOOTH",
"907 1415 OFFCURVE",
"1030 1360 OFFCURVE",
"1114 1247 CURVE",
"315 322 LINE",
"266 428 OFFCURVE",
"242 565 OFFCURVE",
"242 737 CURVE SMOOTH"
);
},
{
closed = 1;
nodes = (
"1241 283 OFFCURVE",
"1075 66 OFFCURVE",
"745 66 CURVE SMOOTH",
"580 66 OFFCURVE",
"455 121 OFFCURVE",
"369 233 CURVE",
"1167 1159 LINE",
"1217 1051 OFFCURVE",
"1241 911 OFFCURVE",
"1241 737 CURVE SMOOTH"
);
}
);
};
layerId = "91AB5BCA-6A50-42DA-B2F7-8181BF189245";
paths = (
{
closed = 1;
nodes = (
"309 162 LINE",
"410 41 OFFCURVE",
"557 -20 OFFCURVE",
"741 -20 CURVE SMOOTH",
"1116 -20 OFFCURVE",
"1343 244 OFFCURVE",
"1343 737 CURVE SMOOTH",
"1343 942 OFFCURVE",
"1305 1108 OFFCURVE",
"1233 1233 CURVE",
"1413 1442 LINE",
"1339 1505 LINE",
"1176 1317 LINE",
"1071 1438 OFFCURVE",
"926 1501 OFFCURVE",
"743 1501 CURVE SMOOTH",
"369 1501 OFFCURVE",
"141 1233 OFFCURVE",
"141 733 CURVE SMOOTH",
"141 530 OFFCURVE",
"178 367 OFFCURVE",
"250 246 CURVE",
"72 39 LINE",
"143 -27 LINE"
);
},
{
closed = 1;
nodes = (
"580 66 OFFCURVE",
"455 121 OFFCURVE",
"369 233 CURVE",
"1167 1159 LINE",
"1217 1051 OFFCURVE",
"1241 911 OFFCURVE",
"1241 737 CURVE SMOOTH",
"1241 283 OFFCURVE",
"1075 66 OFFCURVE",
"745 66 CURVE SMOOTH"
);
},
{
closed = 1;
nodes = (
"266 428 OFFCURVE",
"242 565 OFFCURVE",
"242 737 CURVE SMOOTH",
"242 1192 OFFCURVE",
"414 1415 OFFCURVE",
"743 1415 CURVE SMOOTH",
"907 1415 OFFCURVE",
"1030 1360 OFFCURVE",
"1114 1247 CURVE",
"315 322 LINE"
);
}
);
width = 1485;
}
);
leftKerningGroup = Oslash;
rightKerningGroup = Oslash;
unicode = 00D8;
},
{
glyphname = OE;
lastChange = "2019-05-21 21:13:38 +0000";
layers = (
{
background = {
paths = (
{
closed = 1;
nodes = (
"1518 336 LINE",
"1518 598 LINE",
"1966 598 LINE",
"1966 928 LINE",
"1518 928 LINE",
"1518 1184 LINE",
"2233 1184 LINE",
"2235 1520 LINE",
"1248 1520 LINE",
"1121 1520 LINE",
"1049 1534 OFFCURVE",
"961 1540 OFFCURVE",
"856 1540 CURVE SMOOTH",
"363 1540 OFFCURVE",
"70 1231 OFFCURVE",
"70 756 CURVE SMOOTH",
"70 283 OFFCURVE",
"355 -20 OFFCURVE",
"832 -20 CURVE SMOOTH",
"946 -20 OFFCURVE",
"1043 -14 OFFCURVE",
"1121 0 CURVE",
"1223 0 LINE",
"1237 0 OFFCURVE",
"1252 0 OFFCURVE",
"1266 0 CURVE",
"2204 0 LINE SMOOTH",
"2239 0 OFFCURVE",
"2253 20 OFFCURVE",
"2253 45 CURVE SMOOTH",
"2253 297 LINE SMOOTH",
"2253 326 OFFCURVE",
"2237 336 OFFCURVE",
"2208 336 CURVE SMOOTH"
);
},
{
closed = 1;
nodes = (
"625 299 OFFCURVE",
"557 422 OFFCURVE",
"557 750 CURVE SMOOTH",
"557 1087 OFFCURVE",
"629 1225 OFFCURVE",
"807 1225 CURVE SMOOTH",
"981 1225 OFFCURVE",
"1053 1087 OFFCURVE",
"1053 750 CURVE SMOOTH",
"1053 422 OFFCURVE",
"985 299 OFFCURVE",
"807 299 CURVE SMOOTH"
);
}
);
};
layerId = "258ED206-D907-4350-8EBA-CBDDA1C16BF7";
paths = (
{
closed = 1;
nodes = (
"1501 328 LINE",
"1501 584 LINE",
"1940 584 LINE",
"1940 905 LINE",
"1501 905 LINE",
"1501 1155 LINE",
"2200 1155 LINE",
"2202 1481 LINE",
"1239 1481 LINE",
"1114 1481 LINE",
"1045 1495 OFFCURVE",
"959 1501 OFFCURVE",
"856 1501 CURVE SMOOTH",
"377 1501 OFFCURVE",
"90 1200 OFFCURVE",
"90 737 CURVE SMOOTH",
"90 276 OFFCURVE",
"369 -20 OFFCURVE",
"834 -20 CURVE SMOOTH",
"944 -20 OFFCURVE",
"1039 -14 OFFCURVE",
"1114 0 CURVE",
"1215 0 LINE",
"2218 0 LINE",
"2218 328 LINE"
);
},
{
closed = 1;
nodes = (
"631 291 OFFCURVE",
"566 412 OFFCURVE",
"566 731 CURVE SMOOTH",
"566 1061 OFFCURVE",
"635 1194 OFFCURVE",
"809 1194 CURVE SMOOTH",
"979 1194 OFFCURVE",
"1049 1061 OFFCURVE",
"1049 731 CURVE SMOOTH",
"1049 412 OFFCURVE",
"983 291 OFFCURVE",
"809 291 CURVE SMOOTH"
);
}
);
width = 2311;
},
{
background = {
paths = (
{
closed = 1;
nodes = (
"1388 82 LINE SMOOTH",
"1373 82 OFFCURVE",
"1369 84 OFFCURVE",
"1369 100 CURVE SMOOTH",
"1369 709 LINE SMOOTH",
"1369 725 OFFCURVE",
"1373 727 OFFCURVE",
"1388 727 CURVE SMOOTH",
"1955 727 LINE SMOOTH",
"1967 727 OFFCURVE",
"1971 729 OFFCURVE",
"1971 741 CURVE SMOOTH",
"1971 795 LINE SMOOTH",
"1971 805 OFFCURVE",
"1967 809 OFFCURVE",
"1957 809 CURVE SMOOTH",
"1388 809 LINE SMOOTH",
"1373 809 OFFCURVE",
"1369 811 OFFCURVE",
"1369 823 CURVE SMOOTH",
"1369 1419 LINE SMOOTH",
"1369 1436 OFFCURVE",
"1373 1438 OFFCURVE",
"1388 1438 CURVE SMOOTH",
"2121 1438 LINE SMOOTH",
"2133 1438 OFFCURVE",
"2137 1440 OFFCURVE",
"2137 1452 CURVE SMOOTH",
"2137 1505 LINE SMOOTH",
"2137 1516 OFFCURVE",
"2133 1520 OFFCURVE",
"2123 1520 CURVE SMOOTH",
"1293 1520 LINE SMOOTH",
"1279 1520 OFFCURVE",
"1275 1516 OFFCURVE",
"1275 1499 CURVE SMOOTH",
"1275 1229 LINE",
"1173 1434 OFFCURVE",
"994 1540 OFFCURVE",
"755 1540 CURVE SMOOTH",
"370 1540 OFFCURVE",
"136 1264 OFFCURVE",
"136 752 CURVE SMOOTH",
"136 248 OFFCURVE",
"366 -20 OFFCURVE",
"753 -20 CURVE SMOOTH",
"992 -20 OFFCURVE",
"1173 84 OFFCURVE",
"1275 287 CURVE",
"1275 20 LINE SMOOTH",
"1275 4 OFFCURVE",
"1279 0 OFFCURVE",
"1293 0 CURVE SMOOTH",
"2154 0 LINE SMOOTH",
"2164 0 OFFCURVE",
"2168 4 OFFCURVE",
"2168 14 CURVE SMOOTH",
"2168 68 LINE SMOOTH",
"2168 80 OFFCURVE",
"2164 82 OFFCURVE",
"2151 82 CURVE SMOOTH"
);
},
{
closed = 1;
nodes = (
"417 66 OFFCURVE",
"235 293 OFFCURVE",
"235 756 CURVE SMOOTH",
"235 1223 OFFCURVE",
"417 1454 OFFCURVE",
"755 1454 CURVE SMOOTH",
"1091 1454 OFFCURVE",
"1265 1225 OFFCURVE",
"1265 756 CURVE SMOOTH",
"1265 291 OFFCURVE",
"1095 66 OFFCURVE",
"757 66 CURVE SMOOTH"
);
}
);
};
layerId = "91AB5BCA-6A50-42DA-B2F7-8181BF189245";
paths = (
{
closed = 1;
nodes = (
"1332 80 LINE",
"1332 709 LINE",
"1920 709 LINE",
"1920 788 LINE",
"1332 788 LINE",
"1332 1401 LINE",
"2082 1401 LINE",
"2082 1481 LINE",
"1240 1481 LINE",
"1240 1198 LINE",
"1142 1399 OFFCURVE",
"968 1501 OFFCURVE",
"734 1501 CURVE SMOOTH",
"359 1501 OFFCURVE",
"130 1233 OFFCURVE",
"130 733 CURVE SMOOTH",
"130 242 OFFCURVE",
"355 -20 OFFCURVE",
"732 -20 CURVE SMOOTH",
"966 -20 OFFCURVE",
"1142 82 OFFCURVE",
"1240 281 CURVE",
"1240 0 LINE",
"2113 0 LINE",
"2113 80 LINE"
);
},
{
closed = 1;
nodes = (
"405 63 OFFCURVE",
"226 285 OFFCURVE",
"226 737 CURVE SMOOTH",
"226 1192 OFFCURVE",
"405 1417 OFFCURVE",
"734 1417 CURVE SMOOTH",
"1062 1417 OFFCURVE",
"1232 1194 OFFCURVE",
"1232 737 CURVE SMOOTH",
"1232 283 OFFCURVE",
"1066 63 OFFCURVE",
"736 63 CURVE SMOOTH"
);
}
);
width = 2253;
}
);
leftKerningGroup = O;
leftMetricsKey = O;
rightKerningGroup = E;
rightMetricsKey = E;
unicode = 0152;
},
{
glyphname = P;
lastChange = "2019-05-22 19:43:24 +0000";
layers = (
{
background = {
paths = (
{
closed = 1;
nodes = (
"1420 1356 OFFCURVE",
"1140 1520 OFFCURVE",
"804 1520 CURVE SMOOTH",
"126 1520 LINE SMOOTH",
"101 1520 OFFCURVE",
"87 1503 OFFCURVE",
"87 1473 CURVE SMOOTH",
"87 51 LINE SMOOTH",
"87 16 OFFCURVE",
"99 0 OFFCURVE",
"140 0 CURVE SMOOTH",
"484 0 LINE SMOOTH",
"531 0 OFFCURVE",
"552 16 OFFCURVE",
"552 59 CURVE SMOOTH",
"552 522 LINE SMOOTH",
"552 537 OFFCURVE",
"558 545 OFFCURVE",
"576 545 CURVE SMOOTH",
"857 545 LINE SMOOTH",
"1191 545 OFFCURVE",
"1420 727 OFFCURVE",
"1420 1026 CURVE SMOOTH"
);
},
{
closed = 1;
nodes = (
"945 944 OFFCURVE",
"886 872 OFFCURVE",
"787 872 CURVE SMOOTH",
"587 872 LINE SMOOTH",
"560 872 OFFCURVE",
"552 887 OFFCURVE",
"552 918 CURVE SMOOTH",
"552 1149 LINE SMOOTH",
"552 1180 OFFCURVE",
"564 1192 OFFCURVE",
"599 1192 CURVE SMOOTH",
"775 1192 LINE SMOOTH",
"869 1192 OFFCURVE",
"945 1130 OFFCURVE",
"945 1032 CURVE SMOOTH"
);
}
);
};
layerId = "258ED206-D907-4350-8EBA-CBDDA1C16BF7";
rightMetricsKey = "=X*2";
paths = (
{
closed = 1;
nodes = (
"539 0 LINE",
"539 510 LINE",
"777 510 LINE SMOOTH",
"1103 510 OFFCURVE",
"1307 686 OFFCURVE",
"1307 979 CURVE SMOOTH",
"1307 1300 OFFCURVE",
"1054 1481 OFFCURVE",
"726 1481 CURVE SMOOTH",
"140 1481 LINE",
"140 0 LINE"
);
},
{
closed = 1;
nodes = (
"535 1186 LINE",
"765 1186 LINE SMOOTH",
"853 1186 OFFCURVE",
"941 1102 OFFCURVE",
"941 999 CURVE SMOOTH",
"941 903 OFFCURVE",
"865 807 OFFCURVE",
"765 807 CURVE SMOOTH",
"535 807 LINE"
);
}
);
width = 1367;
},
{
background = {
paths = (
{
closed = 1;
nodes = (
"1251 1401 OFFCURVE",
"1024 1520 OFFCURVE",
"707 1520 CURVE SMOOTH",
"252 1520 LINE SMOOTH",
"238 1520 OFFCURVE",
"233 1516 OFFCURVE",
"233 1499 CURVE SMOOTH",
"233 16 LINE SMOOTH",
"233 6 OFFCURVE",
"240 0 OFFCURVE",
"250 0 CURVE SMOOTH",
"311 0 LINE SMOOTH",
"322 0 OFFCURVE",
"328 6 OFFCURVE",
"328 18 CURVE SMOOTH",
"328 651 LINE SMOOTH",
"328 664 OFFCURVE",
"332 670 OFFCURVE",
"344 670 CURVE SMOOTH",
"719 670 LINE SMOOTH",
"1028 670 OFFCURVE",
"1251 793 OFFCURVE",
"1251 1096 CURVE SMOOTH"
);
},
{
closed = 1;
nodes = (
"1153 850 OFFCURVE",
"981 752 OFFCURVE",
"719 752 CURVE SMOOTH",
"342 752 LINE SMOOTH",
"332 752 OFFCURVE",
"328 758 OFFCURVE",
"328 772 CURVE SMOOTH",
"328 1421 LINE SMOOTH",
"328 1434 OFFCURVE",
"334 1438 OFFCURVE",
"346 1438 CURVE SMOOTH",
"705 1438 LINE SMOOTH",
"981 1438 OFFCURVE",
"1153 1356 OFFCURVE",
"1153 1102 CURVE SMOOTH"
);
}
);
};
layerId = "91AB5BCA-6A50-42DA-B2F7-8181BF189245";
rightMetricsKey = "=X/2";
paths = (
{
closed = 1;
nodes = (
"313 0 LINE",
"313 567 LINE",
"694 567 LINE SMOOTH",
"997 567 OFFCURVE",
"1214 733 OFFCURVE",
"1214 1030 CURVE SMOOTH",
"1214 1327 OFFCURVE",
"993 1481 OFFCURVE",
"682 1481 CURVE SMOOTH",
"225 1481 LINE",
"225 0 LINE"
);
},
{
closed = 1;
nodes = (
"313 1395 LINE",
"680 1395 LINE SMOOTH",
"950 1395 OFFCURVE",
"1124 1282 OFFCURVE",
"1124 1036 CURVE SMOOTH",
"1124 791 OFFCURVE",
"950 655 OFFCURVE",
"694 655 CURVE SMOOTH",
"313 655 LINE"
);
}
);
width = 1274;
}
);
leftKerningGroup = N;
leftMetricsKey = H;
rightKerningGroup = P;
rightMetricsKey = "=O";
unicode = 0050;
},
{
glyphname = Thorn;
lastChange = "2019-05-22 19:43:46 +0000";
layers = (
{
background = {
paths = (
{
closed = 1;
nodes = (
"1482 1085 OFFCURVE",
"1201 1245 OFFCURVE",
"865 1245 CURVE SMOOTH",
"607 1245 LINE SMOOTH",
"593 1245 OFFCURVE",
"587 1253 OFFCURVE",
"587 1270 CURVE SMOOTH",
"587 1477 LINE SMOOTH",
"587 1503 OFFCURVE",
"574 1520 OFFCURVE",
"550 1520 CURVE SMOOTH",
"161 1520 LINE SMOOTH",
"138 1520 OFFCURVE",
"122 1503 OFFCURVE",
"122 1473 CURVE SMOOTH",
"122 51 LINE SMOOTH",
"122 16 OFFCURVE",
"134 0 OFFCURVE",
"175 0 CURVE SMOOTH",
"519 0 LINE SMOOTH",
"566 0 OFFCURVE",
"587 16 OFFCURVE",
"587 59 CURVE SMOOTH",
"587 268 LINE SMOOTH",
"587 283 OFFCURVE",
"593 291 OFFCURVE",
"611 291 CURVE SMOOTH",
"918 291 LINE SMOOTH",
"1252 291 OFFCURVE",
"1482 469 OFFCURVE",
"1482 762 CURVE SMOOTH"
);
},
{
closed = 1;
nodes = (
"1006 686 OFFCURVE",
"947 618 OFFCURVE",
"849 618 CURVE SMOOTH",
"621 618 LINE SMOOTH",
"595 618 OFFCURVE",
"587 633 OFFCURVE",
"587 664 CURVE SMOOTH",
"587 874 LINE SMOOTH",
"587 905 OFFCURVE",
"599 918 OFFCURVE",
"634 918 CURVE SMOOTH",
"836 918 LINE SMOOTH",
"931 918 OFFCURVE",
"1006 860 OFFCURVE",
"1006 768 CURVE SMOOTH"
);
}
);
};
layerId = "258ED206-D907-4350-8EBA-CBDDA1C16BF7";
paths = (
{
closed = 1;
nodes = (
"1467 1059 OFFCURVE",
"1193 1214 OFFCURVE",
"865 1214 CURVE SMOOTH",
"595 1214 LINE",
"595 1481 LINE",
"140 1481 LINE",
"140 0 LINE",
"595 0 LINE",
"595 283 LINE",
"918 283 LINE SMOOTH",
"1244 283 OFFCURVE",
"1467 457 OFFCURVE",
"1467 743 CURVE SMOOTH"
);
},
{
closed = 1;
nodes = (
"1004 670 OFFCURVE",
"945 602 OFFCURVE",
"849 602 CURVE SMOOTH",
"595 602 LINE",
"595 895 LINE",
"838 895 LINE SMOOTH",
"929 895 OFFCURVE",
"1004 840 OFFCURVE",
"1004 750 CURVE SMOOTH"
);
}
);
width = 1527;
},
{
background = {
paths = (
{
closed = 1;
nodes = (
"1251 1069 OFFCURVE",
"1026 1186 OFFCURVE",
"707 1186 CURVE SMOOTH",
"340 1186 LINE SMOOTH",
"332 1186 OFFCURVE",
"328 1190 OFFCURVE",
"328 1196 CURVE SMOOTH",
"328 1499 LINE SMOOTH",
"328 1516 OFFCURVE",
"324 1520 OFFCURVE",
"309 1520 CURVE SMOOTH",
"252 1520 LINE SMOOTH",
"238 1520 OFFCURVE",
"233 1516 OFFCURVE",
"233 1499 CURVE SMOOTH",
"233 16 LINE SMOOTH",
"233 6 OFFCURVE",
"240 0 OFFCURVE",
"250 0 CURVE SMOOTH",
"311 0 LINE SMOOTH",
"322 0 OFFCURVE",
"328 6 OFFCURVE",
"328 18 CURVE SMOOTH",
"328 354 LINE SMOOTH",
"328 367 OFFCURVE",
"332 373 OFFCURVE",
"344 373 CURVE SMOOTH",
"719 373 LINE SMOOTH",
"1026 373 OFFCURVE",
"1251 489 OFFCURVE",
"1251 799 CURVE SMOOTH"
);
},
{
closed = 1;
nodes = (
"1153 549 OFFCURVE",
"981 455 OFFCURVE",
"719 455 CURVE SMOOTH",
"342 455 LINE SMOOTH",
"332 455 OFFCURVE",
"328 461 OFFCURVE",
"328 475 CURVE SMOOTH",
"328 1087 LINE SMOOTH",
"328 1100 OFFCURVE",
"334 1104 OFFCURVE",
"346 1104 CURVE SMOOTH",
"705 1104 LINE SMOOTH",
"981 1104 OFFCURVE",
"1153 1026 OFFCURVE",
"1153 799 CURVE SMOOTH"
);
}
);
};
layerId = "91AB5BCA-6A50-42DA-B2F7-8181BF189245";
paths = (
{
closed = 1;
nodes = (
"1219 1042 OFFCURVE",
"999 1157 OFFCURVE",
"686 1157 CURVE SMOOTH",
"317 1157 LINE",
"317 1481 LINE",
"225 1481 LINE",
"225 0 LINE",
"317 0 LINE",
"317 362 LINE",
"698 362 LINE SMOOTH",
"999 362 OFFCURVE",
"1219 477 OFFCURVE",
"1219 778 CURVE SMOOTH"
);
},
{
closed = 1;
nodes = (
"1122 535 OFFCURVE",
"954 442 OFFCURVE",
"698 442 CURVE SMOOTH",
"317 442 LINE",
"317 1077 LINE",
"684 1077 LINE SMOOTH",
"954 1077 OFFCURVE",
"1122 999 OFFCURVE",
"1122 778 CURVE SMOOTH"
);
}
);
width = 1279;
}
);
leftKerningGroup = N;
leftMetricsKey = P;
rightKerningGroup = P;
rightMetricsKey = P;
unicode = 00DE;
},
{
glyphname = Q;
lastChange = "2019-06-06 17:33:51 +0000";
layers = (
{
background = {
paths = (
{
closed = 1;
nodes = (
"70 283 OFFCURVE",
"355 -20 OFFCURVE",
"807 -20 CURVE SMOOTH",
"860 -20 OFFCURVE",
"903 -18 OFFCURVE",
"953 -12 CURVE SMOOTH",
"967 -10 OFFCURVE",
"977 -12 OFFCURVE",
"983 -20 CURVE SMOOTH",
"1100 -172 OFFCURVE",
"1248 -262 OFFCURVE",
"1452 -262 CURVE SMOOTH",
"1518 -262 OFFCURVE",
"1542 -250 OFFCURVE",
"1542 -199 CURVE SMOOTH",
"1542 27 LINE SMOOTH",
"1542 41 OFFCURVE",
"1536 57 OFFCURVE",
"1508 61 CURVE SMOOTH",
"1420 74 OFFCURVE",
"1323 125 OFFCURVE",
"1323 160 CURVE SMOOTH",
"1323 168 OFFCURVE",
"1323 172 OFFCURVE",
"1327 176 CURVE",
"1465 311 OFFCURVE",
"1542 510 OFFCURVE",
"1542 756 CURVE SMOOTH",
"1542 1231 OFFCURVE",
"1250 1540 OFFCURVE",
"807 1540 CURVE SMOOTH",
"363 1540 OFFCURVE",
"70 1231 OFFCURVE",
"70 756 CURVE SMOOTH"
);
},
{
closed = 1;
nodes = (
"557 1090 OFFCURVE",
"629 1225 OFFCURVE",
"807 1225 CURVE SMOOTH",
"983 1225 OFFCURVE",
"1055 1090 OFFCURVE",
"1055 752 CURVE SMOOTH",
"1055 422 OFFCURVE",
"987 299 OFFCURVE",
"807 299 CURVE SMOOTH",
"625 299 OFFCURVE",
"557 422 OFFCURVE",
"557 752 CURVE SMOOTH"
);
}
);
};
layerId = "258ED206-D907-4350-8EBA-CBDDA1C16BF7";
paths = (
{
closed = 1;
nodes = (
"90 276 OFFCURVE",
"369 -20 OFFCURVE",
"809 -20 CURVE SMOOTH",
"860 -20 OFFCURVE",
"901 -18 OFFCURVE",
"973 -10 CURVE",
"1149 -231 OFFCURVE",
"1288 -256 OFFCURVE",
"1526 -256 CURVE",
"1526 55 LINE",
"1426 55 OFFCURVE",
"1334 106 OFFCURVE",
"1317 164 CURVE",
"1450 307 OFFCURVE",
"1526 498 OFFCURVE",
"1526 737 CURVE SMOOTH",
"1526 1200 OFFCURVE",
"1241 1501 OFFCURVE",
"809 1501 CURVE SMOOTH",
"377 1501 OFFCURVE",
"90 1200 OFFCURVE",
"90 737 CURVE SMOOTH"
);
},
{
closed = 1;
nodes = (
"527 1063 OFFCURVE",
"637 1182 OFFCURVE",
"809 1182 CURVE SMOOTH",
"981 1182 OFFCURVE",
"1092 1063 OFFCURVE",
"1092 733 CURVE SMOOTH",
"1092 412 OFFCURVE",
"985 299 OFFCURVE",
"809 299 CURVE SMOOTH",
"633 299 OFFCURVE",
"527 412 OFFCURVE",
"527 733 CURVE SMOOTH"
);
}
);
width = 1639;
},
{
background = {
paths = (
{
closed = 1;
nodes = (
"136 238 OFFCURVE",
"376 -20 OFFCURVE",
"753 -20 CURVE SMOOTH",
"806 -20 OFFCURVE",
"867 -14 OFFCURVE",
"919 -2 CURVE SMOOTH",
"933 2 OFFCURVE",
"943 -2 OFFCURVE",
"949 -10 CURVE SMOOTH",
"1082 -197 OFFCURVE",
"1218 -250 OFFCURVE",
"1308 -250 CURVE SMOOTH",
"1336 -250 OFFCURVE",
"1349 -246 OFFCURVE",
"1349 -223 CURVE SMOOTH",
"1349 -178 LINE SMOOTH",
"1349 -172 OFFCURVE",
"1347 -166 OFFCURVE",
"1334 -164 CURVE SMOOTH",
"1181 -143 OFFCURVE",
"1044 -23 OFFCURVE",
"1044 33 CURVE SMOOTH",
"1044 41 OFFCURVE",
"1046 45 OFFCURVE",
"1056 51 CURVE SMOOTH",
"1254 170 OFFCURVE",
"1369 387 OFFCURVE",
"1369 756 CURVE SMOOTH",
"1369 1270 OFFCURVE",
"1138 1540 OFFCURVE",
"753 1540 CURVE SMOOTH",
"368 1540 OFFCURVE",
"136 1270 OFFCURVE",
"136 756 CURVE SMOOTH"
);
},
{
closed = 1;
nodes = (
"235 1212 OFFCURVE",
"411 1454 OFFCURVE",
"753 1454 CURVE SMOOTH",
"1095 1454 OFFCURVE",
"1271 1212 OFFCURVE",
"1271 756 CURVE SMOOTH",
"1271 289 OFFCURVE",
"1089 66 OFFCURVE",
"753 66 CURVE SMOOTH",
"417 66 OFFCURVE",
"235 289 OFFCURVE",
"235 752 CURVE SMOOTH"
);
}
);
};
layerId = "91AB5BCA-6A50-42DA-B2F7-8181BF189245";
paths = (
{
closed = 1;
nodes = (
"130 231 OFFCURVE",
"366 -20 OFFCURVE",
"732 -20 CURVE SMOOTH",
"790 -20 OFFCURVE",
"847 -12 OFFCURVE",
"912 2 CURVE",
"1017 -201 OFFCURVE",
"1216 -244 OFFCURVE",
"1314 -244 CURVE",
"1314 -162 LINE",
"1183 -156 OFFCURVE",
"1068 -102 OFFCURVE",
"1001 37 CURVE",
"1240 162 OFFCURVE",
"1332 397 OFFCURVE",
"1332 737 CURVE SMOOTH",
"1332 1239 OFFCURVE",
"1107 1501 OFFCURVE",
"732 1501 CURVE SMOOTH",
"357 1501 OFFCURVE",
"130 1239 OFFCURVE",
"130 737 CURVE SMOOTH"
);
},
{
closed = 1;
nodes = (
"220 1182 OFFCURVE",
"398 1417 OFFCURVE",
"732 1417 CURVE SMOOTH",
"1066 1417 OFFCURVE",
"1244 1182 OFFCURVE",
"1244 737 CURVE SMOOTH",
"1244 281 OFFCURVE",
"1060 63 OFFCURVE",
"732 63 CURVE SMOOTH",
"405 63 OFFCURVE",
"220 281 OFFCURVE",
"220 733 CURVE SMOOTH"
);
}
);
width = 1495;
}
);
leftKerningGroup = O;
leftMetricsKey = O;
rightKerningGroup = O;
rightMetricsKey = "=O*1.25";
unicode = 0051;
},
{
glyphname = R;
lastChange = "2019-05-21 21:08:40 +0000";
layers = (
{
anchors = (
{
name = bottom;
position = "{738, 0}";
},
{
name = top;
position = "{718, 1481}";
}
);
background = {
anchors = (
{
name = bottom;
position = "{734, 0}";
},
{
name = top;
position = "{714, 1520}";
}
);
paths = (
{
closed = 1;
nodes = (
"1158 639 LINE SMOOTH",
"1152 655 OFFCURVE",
"1152 672 OFFCURVE",
"1166 678 CURVE SMOOTH",
"1322 737 OFFCURVE",
"1434 893 OFFCURVE",
"1434 1085 CURVE SMOOTH",
"1434 1360 OFFCURVE",
"1205 1520 OFFCURVE",
"810 1520 CURVE SMOOTH",
"126 1520 LINE SMOOTH",
"101 1520 OFFCURVE",
"87 1503 OFFCURVE",
"87 1473 CURVE SMOOTH",
"87 51 LINE SMOOTH",
"87 16 OFFCURVE",
"99 0 OFFCURVE",
"140 0 CURVE SMOOTH",
"484 0 LINE SMOOTH",
"531 0 OFFCURVE",
"552 16 OFFCURVE",
"552 59 CURVE SMOOTH",
"552 582 LINE SMOOTH",
"552 588 OFFCURVE",
"558 604 OFFCURVE",
"576 604 CURVE SMOOTH",
"671 604 LINE SMOOTH",
"709 604 OFFCURVE",
"726 594 OFFCURVE",
"734 571 CURVE SMOOTH",
"927 43 LINE SMOOTH",
"935 14 OFFCURVE",
"953 0 OFFCURVE",
"982 0 CURVE SMOOTH",
"1379 0 LINE SMOOTH",
"1412 0 OFFCURVE",
"1430 31 OFFCURVE",
"1416 66 CURVE SMOOTH"
);
},
{
closed = 1;
nodes = (
"587 909 LINE SMOOTH",
"560 909 OFFCURVE",
"552 922 OFFCURVE",
"552 952 CURVE SMOOTH",
"552 1176 LINE SMOOTH",
"552 1206 OFFCURVE",
"564 1217 OFFCURVE",
"599 1217 CURVE SMOOTH",
"779 1217 LINE SMOOTH",
"871 1217 OFFCURVE",
"953 1161 OFFCURVE",
"953 1057 CURVE SMOOTH",
"953 969 OFFCURVE",
"896 909 OFFCURVE",
"791 909 CURVE SMOOTH"
);
}
);
};
layerId = "258ED206-D907-4350-8EBA-CBDDA1C16BF7";
rightMetricsKey = "=H/1.5";
paths = (
{
closed = 1;
nodes = (
"1111 573 LINE",
"1248 657 OFFCURVE",
"1346 776 OFFCURVE",
"1346 1004 CURVE SMOOTH",
"1346 1272 OFFCURVE",
"1197 1481 OFFCURVE",
"812 1481 CURVE SMOOTH",
"140 1481 LINE",
"140 0 LINE",
"539 0 LINE",
"539 510 LINE",
"748 510 LINE",
"963 0 LINE",
"1371 0 LINE"
);
},
{
closed = 1;
nodes = (
"539 807 LINE",
"539 1186 LINE",
"767 1186 LINE SMOOTH",
"857 1186 OFFCURVE",
"945 1102 OFFCURVE",
"945 999 CURVE SMOOTH",
"945 903 OFFCURVE",
"869 807 OFFCURVE",
"767 807 CURVE SMOOTH"
);
}
);
width = 1464;
},
{
anchors = (
{
name = bottom;
position = "{668, 0}";
},
{
name = top;
position = "{653, 1481}";
}
);
background = {
anchors = (
{
name = bottom;
position = "{686, 0}";
},
{
name = top;
position = "{672, 1520}";
}
);
paths = (
{
closed = 1;
nodes = (
"915 735 LINE",
"913 741 OFFCURVE",
"915 748 OFFCURVE",
"924 750 CURVE SMOOTH",
"1065 786 OFFCURVE",
"1235 891 OFFCURVE",
"1235 1143 CURVE SMOOTH",
"1235 1393 OFFCURVE",
"1063 1520 OFFCURVE",
"768 1520 CURVE SMOOTH",
"240 1520 LINE SMOOTH",
"225 1520 OFFCURVE",
"221 1516 OFFCURVE",
"221 1499 CURVE SMOOTH",
"221 18 LINE SMOOTH",
"221 6 OFFCURVE",
"225 0 OFFCURVE",
"242 0 CURVE SMOOTH",
"295 0 LINE SMOOTH",
"311 0 OFFCURVE",
"315 6 OFFCURVE",
"315 23 CURVE SMOOTH",
"315 705 LINE SMOOTH",
"315 719 OFFCURVE",
"322 727 OFFCURVE",
"340 727 CURVE SMOOTH",
"782 727 LINE SMOOTH",
"809 727 OFFCURVE",
"819 721 OFFCURVE",
"825 707 CURVE SMOOTH",
"1116 18 LINE SMOOTH",
"1122 6 OFFCURVE",
"1126 0 OFFCURVE",
"1141 0 CURVE SMOOTH",
"1198 0 LINE SMOOTH",
"1212 0 OFFCURVE",
"1221 14 OFFCURVE",
"1214 29 CURVE SMOOTH"
);
},
{
closed = 1;
nodes = (
"330 809 LINE SMOOTH",
"319 809 OFFCURVE",
"315 815 OFFCURVE",
"315 827 CURVE SMOOTH",
"315 1421 LINE SMOOTH",
"315 1434 OFFCURVE",
"322 1438 OFFCURVE",
"338 1438 CURVE SMOOTH",
"766 1438 LINE SMOOTH",
"1014 1438 OFFCURVE",
"1137 1337 OFFCURVE",
"1137 1128 CURVE SMOOTH",
"1137 899 OFFCURVE",
"989 809 OFFCURVE",
"696 809 CURVE SMOOTH"
);
}
);
};
layerId = "91AB5BCA-6A50-42DA-B2F7-8181BF189245";
paths = (
{
closed = 1;
nodes = (
"887 723 LINE",
"1030 760 OFFCURVE",
"1202 866 OFFCURVE",
"1202 1114 CURVE SMOOTH",
"1202 1358 OFFCURVE",
"1034 1481 OFFCURVE",
"748 1481 CURVE SMOOTH",
"225 1481 LINE",
"225 0 LINE",
"305 0 LINE",
"305 705 LINE",
"803 705 LINE",
"1102 0 LINE",
"1194 0 LINE"
);
},
{
closed = 1;
nodes = (
"305 788 LINE",
"305 1399 LINE",
"745 1399 LINE SMOOTH",
"987 1399 OFFCURVE",
"1116 1311 OFFCURVE",
"1116 1100 CURVE SMOOTH",
"1116 877 OFFCURVE",
"963 788 OFFCURVE",
"678 788 CURVE SMOOTH"
);
}
);
width = 1352;
}
);
leftKerningGroup = N;
leftMetricsKey = H;
rightKerningGroup = R;
rightMetricsKey = "=X+30";
unicode = 0052;
},
{
glyphname = S;
lastChange = "2019-05-22 20:47:40 +0000";
layers = (
{
anchors = (
{
name = bottom;
position = "{754, 0}";
},
{
name = top;
position = "{754, 1481}";
}
);
background = {
anchors = (
{
name = bottom;
position = "{750, 0}";
},
{
name = top;
position = "{750, 1520}";
}
);
paths = (
{
closed = 1;
nodes = (
"1063 1083 OFFCURVE",
"1075 1081 OFFCURVE",
"1096 1096 CURVE SMOOTH",
"1319 1257 LINE SMOOTH",
"1346 1278 OFFCURVE",
"1331 1300 OFFCURVE",
"1319 1319 CURVE SMOOTH",
"1225 1452 OFFCURVE",
"994 1540 OFFCURVE",
"750 1540 CURVE SMOOTH",
"363 1540 OFFCURVE",
"119 1321 OFFCURVE",
"119 1055 CURVE SMOOTH",
"119 840 OFFCURVE",
"275 662 OFFCURVE",
"520 600 CURVE SMOOTH",
"832 524 LINE SMOOTH",
"920 504 OFFCURVE",
"961 463 OFFCURVE",
"961 414 CURVE SMOOTH",
"961 338 OFFCURVE",
"862 295 OFFCURVE",
"713 295 CURVE SMOOTH",
"551 295 OFFCURVE",
"471 342 OFFCURVE",
"381 459 CURVE SMOOTH",
"365 479 OFFCURVE",
"340 487 OFFCURVE",
"303 463 CURVE SMOOTH",
"92 317 LINE SMOOTH",
"64 295 OFFCURVE",
"64 279 OFFCURVE",
"80 250 CURVE SMOOTH",
"176 88 OFFCURVE",
"449 -20 OFFCURVE",
"748 -20 CURVE SMOOTH",
"1151 -20 OFFCURVE",
"1403 176 OFFCURVE",
"1403 479 CURVE SMOOTH",
"1403 690 OFFCURVE",
"1284 862 OFFCURVE",
"1028 926 CURVE SMOOTH",
"688 1014 LINE SMOOTH",
"586 1038 OFFCURVE",
"557 1081 OFFCURVE",
"557 1118 CURVE SMOOTH",
"557 1169 OFFCURVE",
"613 1223 OFFCURVE",
"766 1223 CURVE SMOOTH",
"926 1223 OFFCURVE",
"985 1165 OFFCURVE",
"1035 1112 CURVE SMOOTH"
);
}
);
};
guideLines = (
{
angle = 214.3236;
position = "{673, 302}";
}
);
layerId = "258ED206-D907-4350-8EBA-CBDDA1C16BF7";
leftMetricsKey = "=O";
rightMetricsKey = "=O/1.1";
paths = (
{
closed = 1;
nodes = (
"1131 -20 OFFCURVE",
"1409 168 OFFCURVE",
"1409 420 CURVE SMOOTH",
"1409 567 OFFCURVE",
"1383 834 OFFCURVE",
"953 907 CURVE SMOOTH",
"721 946 LINE SMOOTH",
"592 969 OFFCURVE",
"559 1008 OFFCURVE",
"559 1075 CURVE SMOOTH",
"559 1128 OFFCURVE",
"606 1192 OFFCURVE",
"762 1192 CURVE SMOOTH",
"901 1192 OFFCURVE",
"983 1147 OFFCURVE",
"996 1032 CURVE",
"1399 1032 LINE",
"1372 1276 OFFCURVE",
"1116 1499 OFFCURVE",
"754 1499 CURVE SMOOTH",
"412 1499 OFFCURVE",
"129 1325 OFFCURVE",
"133 1026 CURVE SMOOTH",
"138 774 OFFCURVE",
"291 627 OFFCURVE",
"523 590 CURVE SMOOTH",
"754 551 LINE SMOOTH",
"879 530 OFFCURVE",
"1002 510 OFFCURVE",
"1002 420 CURVE SMOOTH",
"1002 315 OFFCURVE",
"883 285 OFFCURVE",
"758 285 CURVE SMOOTH",
"619 285 OFFCURVE",
"527 346 OFFCURVE",
"504 451 CURVE",
"90 451 LINE",
"117 121 OFFCURVE",
"449 -20 OFFCURVE",
"760 -20 CURVE SMOOTH"
);
}
);
width = 1491;
},
{
anchors = (
{
name = bottom;
position = "{669, 0}";
},
{
name = top;
position = "{682, 1481}";
}
);
background = {
anchors = (
{
name = bottom;
position = "{708, 0}";
},
{
name = top;
position = "{700, 1520}";
}
);
paths = (
{
closed = 1;
nodes = (
"1083 1270 OFFCURVE",
"1087 1266 OFFCURVE",
"1097 1274 CURVE SMOOTH",
"1142 1315 LINE SMOOTH",
"1155 1325 OFFCURVE",
"1150 1335 OFFCURVE",
"1142 1343 CURVE SMOOTH",
"1026 1466 OFFCURVE",
"888 1540 OFFCURVE",
"698 1540 CURVE SMOOTH",
"417 1540 OFFCURVE",
"223 1395 OFFCURVE",
"223 1139 CURVE SMOOTH",
"223 1008 OFFCURVE",
"284 862 OFFCURVE",
"505 778 CURVE SMOOTH",
"815 659 LINE SMOOTH",
"1038 573 OFFCURVE",
"1085 489 OFFCURVE",
"1085 369 CURVE SMOOTH",
"1085 150 OFFCURVE",
"923 66 OFFCURVE",
"679 66 CURVE SMOOTH",
"460 66 OFFCURVE",
"362 141 OFFCURVE",
"247 289 CURVE SMOOTH",
"237 301 OFFCURVE",
"227 303 OFFCURVE",
"206 289 CURVE SMOOTH",
"184 272 LINE SMOOTH",
"163 258 OFFCURVE",
"161 246 OFFCURVE",
"172 231 CURVE SMOOTH",
"292 59 OFFCURVE",
"452 -20 OFFCURVE",
"679 -20 CURVE SMOOTH",
"989 -20 OFFCURVE",
"1179 123 OFFCURVE",
"1179 373 CURVE SMOOTH",
"1179 545 OFFCURVE",
"1091 668 OFFCURVE",
"849 756 CURVE SMOOTH",
"567 858 LINE SMOOTH",
"348 938 OFFCURVE",
"317 1061 OFFCURVE",
"317 1141 CURVE SMOOTH",
"317 1343 OFFCURVE",
"469 1454 OFFCURVE",
"692 1454 CURVE SMOOTH",
"864 1454 OFFCURVE",
"989 1380 OFFCURVE",
"1071 1284 CURVE SMOOTH"
);
}
);
};
layerId = "91AB5BCA-6A50-42DA-B2F7-8181BF189245";
rightMetricsKey = "=O*1.2";
paths = (
{
closed = 1;
nodes = (
"1044 -20 OFFCURVE",
"1220 154 OFFCURVE",
"1220 362 CURVE SMOOTH",
"1220 530 OFFCURVE",
"1136 684 OFFCURVE",
"903 745 CURVE SMOOTH",
"587 827 LINE SMOOTH",
"354 889 OFFCURVE",
"278 965 OFFCURVE",
"278 1092 CURVE SMOOTH",
"278 1317 OFFCURVE",
"505 1415 OFFCURVE",
"682 1415 CURVE SMOOTH",
"882 1415 OFFCURVE",
"1069 1331 OFFCURVE",
"1110 1090 CURVE",
"1191 1106 LINE",
"1171 1311 OFFCURVE",
"1021 1499 OFFCURVE",
"686 1499 CURVE SMOOTH",
"387 1499 OFFCURVE",
"190 1323 OFFCURVE",
"190 1090 CURVE SMOOTH",
"190 913 OFFCURVE",
"313 817 OFFCURVE",
"532 762 CURVE SMOOTH",
"862 680 LINE SMOOTH",
"1052 633 OFFCURVE",
"1132 516 OFFCURVE",
"1132 358 CURVE SMOOTH",
"1132 184 OFFCURVE",
"952 59 OFFCURVE",
"694 59 CURVE SMOOTH",
"477 59 OFFCURVE",
"274 160 OFFCURVE",
"229 360 CURVE",
"143 342 LINE",
"188 113 OFFCURVE",
"423 -20 OFFCURVE",
"694 -20 CURVE SMOOTH"
);
}
);
width = 1376;
}
);
leftKerningGroup = S;
leftMetricsKey = "=O*1.1";
rightKerningGroup = S;
rightMetricsKey = "=O";
unicode = 0053;
},
{
glyphname = Schwa;
lastChange = "2019-05-21 20:59:49 +0000";
layers = (
{
background = {
paths = (
{
closed = 1;
nodes = (
"1045 883 OFFCURVE",
"1030 870 OFFCURVE",
"1004 870 CURVE SMOOTH",
"117 870 LINE SMOOTH",
"72 870 OFFCURVE",
"70 848 OFFCURVE",
"70 803 CURVE SMOOTH",
"70 279 OFFCURVE",
"318 -20 OFFCURVE",
"795 -20 CURVE SMOOTH",
"1190 -20 OFFCURVE",
"1536 324 OFFCURVE",
"1536 778 CURVE SMOOTH",
"1536 1227 OFFCURVE",
"1256 1540 OFFCURVE",
"801 1540 CURVE SMOOTH",
"502 1540 OFFCURVE",
"285 1411 OFFCURVE",
"158 1161 CURVE SMOOTH",
"142 1128 OFFCURVE",
"144 1110 OFFCURVE",
"168 1098 CURVE SMOOTH",
"451 958 LINE SMOOTH",
"486 940 OFFCURVE",
"498 946 OFFCURVE",
"506 961 CURVE SMOOTH",
"600 1114 OFFCURVE",
"678 1184 OFFCURVE",
"805 1184 CURVE SMOOTH",
"1006 1184 OFFCURVE",
"1045 1036 OFFCURVE",
"1045 915 CURVE SMOOTH"
);
},
{
closed = 1;
nodes = (
"1016 393 OFFCURVE",
"957 299 OFFCURVE",
"791 299 CURVE SMOOTH",
"652 299 OFFCURVE",
"568 412 OFFCURVE",
"568 547 CURVE SMOOTH",
"568 578 OFFCURVE",
"578 584 OFFCURVE",
"613 584 CURVE SMOOTH",
"1041 582 LINE"
);
}
);
};
layerId = "258ED206-D907-4350-8EBA-CBDDA1C16BF7";
paths = (
{
closed = 1;
nodes = (
"1041 860 OFFCURVE",
"1026 848 OFFCURVE",
"1002 848 CURVE SMOOTH",
"138 848 LINE SMOOTH",
"92 848 OFFCURVE",
"90 827 OFFCURVE",
"90 782 CURVE SMOOTH",
"90 272 OFFCURVE",
"332 -20 OFFCURVE",
"797 -20 CURVE SMOOTH",
"1182 -20 OFFCURVE",
"1520 315 OFFCURVE",
"1520 760 CURVE SMOOTH",
"1520 1196 OFFCURVE",
"1248 1501 OFFCURVE",
"803 1501 CURVE SMOOTH",
"512 1501 OFFCURVE",
"299 1376 OFFCURVE",
"176 1133 CURVE SMOOTH",
"160 1100 OFFCURVE",
"162 1081 OFFCURVE",
"187 1071 CURVE SMOOTH",
"461 934 LINE SMOOTH",
"496 918 OFFCURVE",
"508 922 OFFCURVE",
"516 936 CURVE SMOOTH",
"609 1085 OFFCURVE",
"684 1155 OFFCURVE",
"807 1155 CURVE SMOOTH",
"1004 1155 OFFCURVE",
"1041 1010 OFFCURVE",
"1041 893 CURVE SMOOTH"
);
},
{
closed = 1;
nodes = (
"1014 383 OFFCURVE",
"955 291 OFFCURVE",
"793 291 CURVE SMOOTH",
"658 291 OFFCURVE",
"576 401 OFFCURVE",
"576 532 CURVE SMOOTH",
"576 563 OFFCURVE",
"586 569 OFFCURVE",
"619 569 CURVE SMOOTH",
"1037 567 LINE"
);
}
);
width = 1610;
},
{
background = {
paths = (
{
closed = 1;
nodes = (
"1261 780 OFFCURVE",
"1259 778 OFFCURVE",
"1248 778 CURVE SMOOTH",
"153 778 LINE SMOOTH",
"136 778 OFFCURVE",
"136 768 OFFCURVE",
"136 756 CURVE SMOOTH",
"136 356 OFFCURVE",
"271 -20 OFFCURVE",
"753 -20 CURVE SMOOTH",
"1222 -20 OFFCURVE",
"1367 369 OFFCURVE",
"1367 750 CURVE SMOOTH",
"1367 1087 OFFCURVE",
"1265 1540 OFFCURVE",
"753 1540 CURVE SMOOTH",
"286 1540 OFFCURVE",
"196 1147 OFFCURVE",
"165 1069 CURVE SMOOTH",
"161 1059 OFFCURVE",
"159 1053 OFFCURVE",
"167 1051 CURVE SMOOTH",
"245 1024 LINE SMOOTH",
"253 1022 OFFCURVE",
"257 1020 OFFCURVE",
"259 1024 CURVE SMOOTH",
"288 1087 OFFCURVE",
"325 1452 OFFCURVE",
"753 1452 CURVE SMOOTH",
"1199 1452 OFFCURVE",
"1261 1032 OFFCURVE",
"1261 791 CURVE SMOOTH"
);
},
{
closed = 1;
nodes = (
"1254 391 OFFCURVE",
"1154 68 OFFCURVE",
"753 68 CURVE SMOOTH",
"349 68 OFFCURVE",
"243 393 OFFCURVE",
"243 680 CURVE SMOOTH",
"243 688 OFFCURVE",
"247 692 OFFCURVE",
"259 692 CURVE SMOOTH",
"1261 692 LINE"
);
}
);
};
layerId = "91AB5BCA-6A50-42DA-B2F7-8181BF189245";
paths = (
{
closed = 1;
nodes = (
"1228 760 OFFCURVE",
"1226 760 OFFCURVE",
"1216 760 CURVE SMOOTH",
"147 760 LINE SMOOTH",
"130 760 OFFCURVE",
"130 750 OFFCURVE",
"130 737 CURVE SMOOTH",
"130 348 OFFCURVE",
"263 -20 OFFCURVE",
"732 -20 CURVE SMOOTH",
"1189 -20 OFFCURVE",
"1330 360 OFFCURVE",
"1330 731 CURVE SMOOTH",
"1330 1061 OFFCURVE",
"1232 1501 OFFCURVE",
"732 1501 CURVE SMOOTH",
"278 1501 OFFCURVE",
"190 1118 OFFCURVE",
"159 1042 CURVE SMOOTH",
"155 1032 OFFCURVE",
"153 1026 OFFCURVE",
"161 1024 CURVE SMOOTH",
"237 999 LINE SMOOTH",
"245 997 OFFCURVE",
"249 995 OFFCURVE",
"251 999 CURVE SMOOTH",
"280 1061 OFFCURVE",
"314 1415 OFFCURVE",
"732 1415 CURVE SMOOTH",
"1166 1415 OFFCURVE",
"1228 1006 OFFCURVE",
"1228 770 CURVE SMOOTH"
);
},
{
closed = 1;
nodes = (
"1222 381 OFFCURVE",
"1123 66 OFFCURVE",
"732 66 CURVE SMOOTH",
"339 66 OFFCURVE",
"235 383 OFFCURVE",
"235 664 CURVE SMOOTH",
"235 672 OFFCURVE",
"239 676 OFFCURVE",
"251 676 CURVE SMOOTH",
"1228 676 LINE"
);
}
);
width = 1460;
}
);
leftKerningGroup = e;
leftMetricsKey = O;
rightKerningGroup = e;
rightMetricsKey = O;
unicode = 018F;
},
{
glyphname = T;
lastChange = "2019-05-22 19:49:36 +0000";
layers = (
{
anchors = (
{
name = bottom;
position = "{669, 0}";
},
{
name = top;
position = "{669, 1481}";
}
);
background = {
anchors = (
{
name = bottom;
position = "{671, 0}";
},
{
name = top;
position = "{671, 1520}";
}
);
paths = (
{
closed = 1;
nodes = (
"7 1200 OFFCURVE",
"26 1190 OFFCURVE",
"54 1190 CURVE SMOOTH",
"415 1190 LINE SMOOTH",
"431 1190 OFFCURVE",
"437 1182 OFFCURVE",
"437 1161 CURVE SMOOTH",
"437 41 LINE SMOOTH",
"437 14 OFFCURVE",
"452 0 OFFCURVE",
"474 0 CURVE SMOOTH",
"863 0 LINE SMOOTH",
"886 0 OFFCURVE",
"902 14 OFFCURVE",
"902 45 CURVE SMOOTH",
"902 1169 LINE SMOOTH",
"902 1184 OFFCURVE",
"910 1190 OFFCURVE",
"927 1190 CURVE SMOOTH",
"1289 1190 LINE SMOOTH",
"1316 1190 OFFCURVE",
"1334 1200 OFFCURVE",
"1334 1229 CURVE SMOOTH",
"1334 1473 LINE SMOOTH",
"1334 1499 OFFCURVE",
"1318 1520 OFFCURVE",
"1283 1520 CURVE SMOOTH",
"58 1520 LINE SMOOTH",
"24 1520 OFFCURVE",
"7 1499 OFFCURVE",
"7 1473 CURVE SMOOTH",
"7 1229 LINE SMOOTH"
);
}
);
};
layerId = "258ED206-D907-4350-8EBA-CBDDA1C16BF7";
leftMetricsKey = "=X";
rightMetricsKey = "=X";
paths = (
{
closed = 1;
nodes = (
"450 1130 LINE",
"450 0 LINE",
"849 0 LINE",
"849 1130 LINE",
"1273 1130 LINE",
"1273 1481 LINE",
"30 1481 LINE",
"30 1130 LINE"
);
}
);
width = 1303;
},
{
anchors = (
{
name = bottom;
position = "{581, 4}";
},
{
name = top;
position = "{581, 1481}";
}
);
background = {
anchors = (
{
name = bottom;
position = "{597, 0}";
},
{
name = top;
position = "{597, 1520}";
}
);
paths = (
{
closed = 1;
nodes = (
"32 1440 OFFCURVE",
"36 1438 OFFCURVE",
"48 1438 CURVE SMOOTH",
"528 1438 LINE SMOOTH",
"544 1438 OFFCURVE",
"548 1436 OFFCURVE",
"548 1419 CURVE SMOOTH",
"548 20 LINE SMOOTH",
"548 4 OFFCURVE",
"552 0 OFFCURVE",
"569 0 CURVE SMOOTH",
"624 0 LINE SMOOTH",
"638 0 OFFCURVE",
"642 4 OFFCURVE",
"642 20 CURVE SMOOTH",
"642 1419 LINE SMOOTH",
"642 1436 OFFCURVE",
"646 1438 OFFCURVE",
"663 1438 CURVE SMOOTH",
"1099 1438 LINE SMOOTH",
"1111 1438 OFFCURVE",
"1115 1440 OFFCURVE",
"1115 1452 CURVE SMOOTH",
"1115 1505 LINE SMOOTH",
"1115 1516 OFFCURVE",
"1111 1520 OFFCURVE",
"1101 1520 CURVE SMOOTH",
"46 1520 LINE SMOOTH",
"36 1520 OFFCURVE",
"32 1516 OFFCURVE",
"32 1505 CURVE SMOOTH",
"32 1452 LINE SMOOTH"
);
}
);
};
layerId = "91AB5BCA-6A50-42DA-B2F7-8181BF189245";
leftMetricsKey = "=X/4";
rightMetricsKey = "=X/4";
paths = (
{
closed = 1;
nodes = (
"538 1399 LINE",
"538 0 LINE",
"618 0 LINE",
"618 1399 LINE",
"1085 1399 LINE",
"1085 1481 LINE",
"30 1481 LINE",
"30 1399 LINE"
);
}
);
width = 1115;
}
);
leftKerningGroup = T;
leftMetricsKey = X;
rightKerningGroup = T;
rightMetricsKey = X;
unicode = 0054;
},
{
glyphname = Tbar;
lastChange = "2019-05-22 19:43:46 +0000";
layers = (
{
background = {
components = (
{
name = T;
transform = "{1, 0, 0, 1, -22, 0}";
}
);
paths = (
{
closed = 1;
nodes = (
"1090 848 OFFCURVE",
"1075 864 OFFCURVE",
"1053 864 CURVE SMOOTH",
"231 864 LINE SMOOTH",
"207 864 OFFCURVE",
"193 848 OFFCURVE",
"193 817 CURVE SMOOTH",
"193 627 LINE SMOOTH",
"193 592 OFFCURVE",
"205 575 OFFCURVE",
"246 575 CURVE SMOOTH",
"1022 575 LINE SMOOTH",
"1069 575 OFFCURVE",
"1090 592 OFFCURVE",
"1090 633 CURVE SMOOTH",
"1090 823 LINE SMOOTH"
);
}
);
};
components = (
{
name = T;
}
);
layerId = "258ED206-D907-4350-8EBA-CBDDA1C16BF7";
paths = (
{
closed = 1;
nodes = (
"213 842 LINE",
"213 561 LINE",
"1087 561 LINE",
"1087 842 LINE"
);
}
);
width = 1303;
},
{
background = {
components = (
{
name = T;
transform = "{1, 0, 0, 1, 4, 0}";
}
);
guideLines = (
{
angle = 90;
position = "{179, 188}";
showMeasurement = 1;
}
);
paths = (
{
closed = 1;
nodes = (
"1040 817 OFFCURVE",
"1036 823 OFFCURVE",
"1026 823 CURVE SMOOTH",
"305 823 LINE SMOOTH",
"295 823 OFFCURVE",
"291 817 OFFCURVE",
"291 805 CURVE SMOOTH",
"291 758 LINE SMOOTH",
"291 743 OFFCURVE",
"295 737 OFFCURVE",
"311 737 CURVE SMOOTH",
"1014 737 LINE SMOOTH",
"1032 737 OFFCURVE",
"1040 743 OFFCURVE",
"1040 760 CURVE SMOOTH",
"1040 807 LINE SMOOTH"
);
}
);
};
components = (
{
name = T;
}
);
guideLines = (
{
angle = 90;
position = "{233, 175}";
showMeasurement = 1;
}
);
layerId = "91AB5BCA-6A50-42DA-B2F7-8181BF189245";
paths = (
{
closed = 1;
nodes = (
"219 803 LINE",
"219 719 LINE",
"950 719 LINE",
"950 803 LINE"
);
}
);
width = 1115;
}
);
leftKerningGroup = T;
leftMetricsKey = T;
rightKerningGroup = T;
rightMetricsKey = T;
unicode = 0166;
},
{
glyphname = U;
lastChange = "2019-05-21 21:13:38 +0000";
layers = (
{
anchors = (
{
name = bottom;
position = "{779, 0}";
},
{
name = horn;
position = "{1348, 1120}";
},
{
name = ogonek;
position = "{941, 25}";
},
{
name = top;
position = "{779, 1481}";
}
);
background = {
anchors = (
{
name = ogonek;
position = "{974, 20}";
},
{
name = top;
position = "{779, 1520}";
}
);
paths = (
{
closed = 1;
nodes = (
"1400 1477 LINE SMOOTH",
"1400 1503 OFFCURVE",
"1387 1520 OFFCURVE",
"1363 1520 CURVE SMOOTH",
"1056 1520 LINE SMOOTH",
"1031 1520 OFFCURVE",
"1017 1503 OFFCURVE",
"1017 1473 CURVE SMOOTH",
"1017 598 LINE SMOOTH",
"1017 371 OFFCURVE",
"906 305 OFFCURVE",
"779 305 CURVE SMOOTH",
"640 305 OFFCURVE",
"554 383 OFFCURVE",
"554 592 CURVE SMOOTH",
"554 1477 LINE SMOOTH",
"554 1503 OFFCURVE",
"542 1520 OFFCURVE",
"517 1520 CURVE SMOOTH",
"128 1520 LINE SMOOTH",
"105 1520 OFFCURVE",
"89 1503 OFFCURVE",
"89 1473 CURVE SMOOTH",
"89 641 LINE SMOOTH",
"89 213 OFFCURVE",
"255 -20 OFFCURVE",
"744 -20 CURVE SMOOTH",
"1135 -20 OFFCURVE",
"1400 127 OFFCURVE",
"1400 600 CURVE SMOOTH"
);
}
);
};
layerId = "258ED206-D907-4350-8EBA-CBDDA1C16BF7";
paths = (
{
closed = 1;
nodes = (
"1418 1481 LINE",
"1015 1481 LINE",
"1015 596 LINE SMOOTH",
"1015 391 OFFCURVE",
"902 313 OFFCURVE",
"779 313 CURVE SMOOTH",
"654 313 OFFCURVE",
"544 391 OFFCURVE",
"544 596 CURVE SMOOTH",
"544 1481 LINE",
"140 1481 LINE",
"140 612 LINE SMOOTH",
"140 236 OFFCURVE",
"302 -20 OFFCURVE",
"779 -20 CURVE SMOOTH",
"1256 -20 OFFCURVE",
"1418 236 OFFCURVE",
"1418 612 CURVE SMOOTH"
);
}
);
width = 1530;
},
{
anchors = (
{
name = bottom;
position = "{713, 4}";
},
{
name = horn;
position = "{1176, 1241}";
},
{
name = ogonek;
position = "{858, 18}";
},
{
name = top;
position = "{719, 1481}";
}
);
background = {
anchors = (
{
name = ogonek;
position = "{881, 18}";
},
{
name = top;
position = "{741, 1520}";
}
);
paths = (
{
closed = 1;
nodes = (
"1239 1501 LINE SMOOTH",
"1239 1513 OFFCURVE",
"1235 1520 OFFCURVE",
"1223 1520 CURVE SMOOTH",
"1174 1520 LINE SMOOTH",
"1161 1520 OFFCURVE",
"1157 1513 OFFCURVE",
"1157 1501 CURVE SMOOTH",
"1157 469 LINE SMOOTH",
"1157 199 OFFCURVE",
"1020 66 OFFCURVE",
"737 66 CURVE SMOOTH",
"459 66 OFFCURVE",
"322 197 OFFCURVE",
"322 463 CURVE SMOOTH",
"322 1499 LINE SMOOTH",
"322 1516 OFFCURVE",
"317 1520 OFFCURVE",
"301 1520 CURVE SMOOTH",
"244 1520 LINE SMOOTH",
"231 1520 OFFCURVE",
"227 1513 OFFCURVE",
"227 1497 CURVE SMOOTH",
"227 502 LINE SMOOTH",
"227 145 OFFCURVE",
"389 -20 OFFCURVE",
"733 -20 CURVE SMOOTH",
"1073 -20 OFFCURVE",
"1239 141 OFFCURVE",
"1239 471 CURVE SMOOTH"
);
}
);
};
layerId = "91AB5BCA-6A50-42DA-B2F7-8181BF189245";
paths = (
{
closed = 1;
nodes = (
"1206 1481 LINE",
"1126 1481 LINE",
"1126 455 LINE SMOOTH",
"1126 193 OFFCURVE",
"989 57 OFFCURVE",
"715 57 CURVE SMOOTH",
"442 57 OFFCURVE",
"313 197 OFFCURVE",
"313 455 CURVE SMOOTH",
"313 1481 LINE",
"225 1481 LINE",
"225 489 LINE SMOOTH",
"225 141 OFFCURVE",
"379 -20 OFFCURVE",
"715 -20 CURVE SMOOTH",
"1044 -20 OFFCURVE",
"1206 137 OFFCURVE",
"1206 459 CURVE SMOOTH"
);
}
);
width = 1386;
}
);
leftKerningGroup = U;
leftMetricsKey = H;
rightKerningGroup = U;
rightMetricsKey = "=H/1.25";
unicode = 0055;
},
{
glyphname = V;
lastChange = "2019-05-24 13:05:39 +0000";
layers = (
{
background = {
paths = (
{
closed = 1;
nodes = (
"1117 1520 LINE SMOOTH",
"1093 1520 OFFCURVE",
"1070 1503 OFFCURVE",
"1064 1477 CURVE SMOOTH",
"808 580 LINE SMOOTH",
"802 559 OFFCURVE",
"794 559 OFFCURVE",
"787 578 CURVE SMOOTH",
"513 1477 LINE SMOOTH",
"505 1503 OFFCURVE",
"486 1520 OFFCURVE",
"462 1520 CURVE SMOOTH",
"67 1520 LINE SMOOTH",
"34 1520 OFFCURVE",
"15 1491 OFFCURVE",
"28 1460 CURVE SMOOTH",
"503 51 LINE SMOOTH",
"513 16 OFFCURVE",
"538 0 OFFCURVE",
"579 0 CURVE SMOOTH",
"910 0 LINE SMOOTH",
"951 0 OFFCURVE",
"976 16 OFFCURVE",
"986 51 CURVE SMOOTH",
"1461 1460 LINE SMOOTH",
"1472 1491 OFFCURVE",
"1455 1520 OFFCURVE",
"1422 1520 CURVE SMOOTH"
);
}
);
};
guideLines = (
{
angle = -108.62;
position = "{369, 211}";
}
);
layerId = "258ED206-D907-4350-8EBA-CBDDA1C16BF7";
paths = (
{
closed = 1;
nodes = (
"1091 1481 LINE",
"749 467 LINE",
"405 1481 LINE",
"30 1481 LINE",
"529 0 LINE",
"968 0 LINE",
"1467 1481 LINE"
);
}
);
width = 1497;
},
{
background = {
paths = (
{
closed = 1;
nodes = (
"1171 1520 LINE SMOOTH",
"1158 1520 OFFCURVE",
"1152 1516 OFFCURVE",
"1148 1505 CURVE SMOOTH",
"648 133 LINE SMOOTH",
"638 104 OFFCURVE",
"626 104 OFFCURVE",
"616 131 CURVE SMOOTH",
"130 1503 LINE SMOOTH",
"126 1516 OFFCURVE",
"120 1520 OFFCURVE",
"104 1520 CURVE SMOOTH",
"57 1520 LINE SMOOTH",
"42 1520 OFFCURVE",
"36 1511 OFFCURVE",
"40 1499 CURVE SMOOTH",
"562 20 LINE SMOOTH",
"566 6 OFFCURVE",
"579 0 OFFCURVE",
"601 0 CURVE SMOOTH",
"667 0 LINE SMOOTH",
"685 0 OFFCURVE",
"693 6 OFFCURVE",
"700 23 CURVE SMOOTH",
"1236 1501 LINE SMOOTH",
"1240 1511 OFFCURVE",
"1234 1520 OFFCURVE",
"1222 1520 CURVE SMOOTH"
);
}
);
};
layerId = "91AB5BCA-6A50-42DA-B2F7-8181BF189245";
paths = (
{
closed = 1;
nodes = (
"1124 1481 LINE",
"614 84 LINE",
"118 1481 LINE",
"30 1481 LINE",
"554 0 LINE",
"673 0 LINE",
"1210 1481 LINE"
);
}
);
width = 1240;
}
);
leftKerningGroup = V;
leftMetricsKey = T;
rightKerningGroup = V;
rightMetricsKey = T;
unicode = 0056;
},
{
glyphname = W;
lastChange = "2019-05-24 13:11:08 +0000";
layers = (
{
anchors = (
{
name = top;
position = "{1005, 1481}";
}
);
background = {
anchors = (
{
name = top;
position = "{1054, 1520}";
}
);
paths = (
{
closed = 1;
nodes = (
"1832 1520 LINE SMOOTH",
"1789 1520 OFFCURVE",
"1773 1503 OFFCURVE",
"1766 1477 CURVE SMOOTH",
"1558 694 LINE SMOOTH",
"1553 678 OFFCURVE",
"1539 682 OFFCURVE",
"1535 698 CURVE SMOOTH",
"1310 1477 LINE SMOOTH",
"1302 1503 OFFCURVE",
"1287 1520 OFFCURVE",
"1244 1520 CURVE SMOOTH",
"957 1520 LINE SMOOTH",
"914 1520 OFFCURVE",
"898 1503 OFFCURVE",
"892 1477 CURVE SMOOTH",
"677 709 LINE SMOOTH",
"671 686 OFFCURVE",
"661 686 OFFCURVE",
"652 717 CURVE SMOOTH",
"435 1477 LINE SMOOTH",
"427 1503 OFFCURVE",
"413 1520 OFFCURVE",
"370 1520 CURVE SMOOTH",
"32 1520 LINE SMOOTH",
"-21 1520 OFFCURVE",
"-42 1485 OFFCURVE",
"-30 1438 CURVE SMOOTH",
"388 51 LINE SMOOTH",
"400 16 OFFCURVE",
"421 0 OFFCURVE",
"462 0 CURVE SMOOTH",
"755 0 LINE SMOOTH",
"798 0 OFFCURVE",
"818 16 OFFCURVE",
"828 51 CURVE SMOOTH",
"1039 768 LINE SMOOTH",
"1054 809 OFFCURVE",
"1064 805 OFFCURVE",
"1072 772 CURVE SMOOTH",
"1285 51 LINE SMOOTH",
"1295 16 OFFCURVE",
"1318 0 OFFCURVE",
"1359 0 CURVE SMOOTH",
"1641 0 LINE SMOOTH",
"1682 0 OFFCURVE",
"1703 16 OFFCURVE",
"1715 51 CURVE SMOOTH",
"2131 1438 LINE SMOOTH",
"2143 1485 OFFCURVE",
"2123 1520 OFFCURVE",
"2070 1520 CURVE SMOOTH"
);
}
);
};
guideLines = (
{
angle = -73.94;
position = "{213, 670}";
},
{
angle = 74.3834;
position = "{416, 670}";
}
);
layerId = "258ED206-D907-4350-8EBA-CBDDA1C16BF7";
paths = (
{
closed = 1;
nodes = (
"1594 1481 LINE",
"1373 686 LINE",
"1144 1481 LINE",
"865 1481 LINE",
"644 686 LINE",
"415 1481 LINE",
"30 1481 LINE",
"476 0 LINE",
"769 0 LINE",
"1005 805 LINE",
"1240 0 LINE",
"1537 0 LINE",
"1979 1481 LINE"
);
}
);
width = 2009;
},
{
anchors = (
{
name = top;
position = "{963, 1481}";
}
);
background = {
anchors = (
{
name = top;
position = "{1002, 1520}";
}
);
guideLines = (
{
position = "{22, 125}";
showMeasurement = 1;
}
);
paths = (
{
closed = 1;
nodes = (
"1866 1520 LINE SMOOTH",
"1854 1520 OFFCURVE",
"1844 1516 OFFCURVE",
"1842 1505 CURVE SMOOTH",
"1455 147 LINE SMOOTH",
"1446 119 OFFCURVE",
"1438 119 OFFCURVE",
"1430 145 CURVE SMOOTH",
"1051 1503 LINE SMOOTH",
"1047 1516 OFFCURVE",
"1043 1520 OFFCURVE",
"1027 1520 CURVE SMOOTH",
"975 1520 LINE SMOOTH",
"957 1520 OFFCURVE",
"951 1511 OFFCURVE",
"949 1505 CURVE SMOOTH",
"562 147 LINE SMOOTH",
"553 119 OFFCURVE",
"545 119 OFFCURVE",
"537 145 CURVE SMOOTH",
"158 1503 LINE SMOOTH",
"154 1516 OFFCURVE",
"150 1520 OFFCURVE",
"134 1520 CURVE SMOOTH",
"82 1520 LINE SMOOTH",
"68 1520 OFFCURVE",
"62 1511 OFFCURVE",
"66 1499 CURVE SMOOTH",
"480 20 LINE SMOOTH",
"484 6 OFFCURVE",
"496 0 OFFCURVE",
"517 0 CURVE SMOOTH",
"582 0 LINE SMOOTH",
"603 0 OFFCURVE",
"611 6 OFFCURVE",
"615 23 CURVE SMOOTH",
"994 1348 LINE SMOOTH",
"996 1356 OFFCURVE",
"1000 1356 OFFCURVE",
"1002 1348 CURVE SMOOTH",
"1373 20 LINE SMOOTH",
"1377 6 OFFCURVE",
"1389 0 OFFCURVE",
"1410 0 CURVE SMOOTH",
"1475 0 LINE SMOOTH",
"1496 0 OFFCURVE",
"1504 6 OFFCURVE",
"1508 23 CURVE SMOOTH",
"1932 1501 LINE SMOOTH",
"1934 1511 OFFCURVE",
"1930 1520 OFFCURVE",
"1917 1520 CURVE SMOOTH"
);
}
);
};
guideLines = (
{
position = "{95, 116}";
showMeasurement = 1;
}
);
layerId = "91AB5BCA-6A50-42DA-B2F7-8181BF189245";
leftMetricsKey = "=X/2";
rightMetricsKey = "=X/2";
paths = (
{
closed = 1;
nodes = (
"1782 1481 LINE",
"1389 100 LINE",
"1002 1481 LINE",
"922 1481 LINE",
"529 100 LINE",
"150 1481 LINE",
"60 1481 LINE",
"476 0 LINE",
"582 0 LINE",
"961 1327 LINE",
"1332 0 LINE",
"1444 0 LINE",
"1870 1481 LINE"
);
}
);
width = 1930;
}
);
leftKerningGroup = V;
leftMetricsKey = X;
rightKerningGroup = V;
rightMetricsKey = X;
unicode = 0057;
},
{
glyphname = X;
lastChange = "2019-05-21 03:16:47 +0000";
layers = (
{
background = {
paths = (
{
closed = 1;
nodes = (
"998 825 LINE",
"1453 1520 LINE",
"1009 1520 LINE",
"775 1108 LINE",
"542 1520 LINE",
"19 1520 LINE",
"503 766 LINE",
"75 104 LINE SMOOTH",
"22 23 OFFCURVE",
"44 0 OFFCURVE",
"101 0 CURVE SMOOTH",
"458 0 LINE",
"730 477 LINE",
"1009 0 LINE",
"1439 0 LINE SMOOTH",
"1496 0 OFFCURVE",
"1519 25 OFFCURVE",
"1467 104 CURVE SMOOTH"
);
}
);
};
layerId = "258ED206-D907-4350-8EBA-CBDDA1C16BF7";
paths = (
{
closed = 1;
nodes = (
"968 805 LINE",
"1410 1481 LINE",
"992 1481 LINE",
"765 1079 LINE",
"536 1481 LINE",
"42 1481 LINE",
"513 748 LINE",
"30 0 LINE",
"454 0 LINE",
"720 465 LINE",
"992 0 LINE",
"1490 0 LINE"
);
}
);
width = 1520;
},
{
background = {
guideLines = (
{
angle = 90;
position = "{102, 437}";
},
{
angle = 90;
position = "{613, 372}";
},
{
position = "{68, 716}";
showMeasurement = 1;
},
{
position = "{62, 32}";
showMeasurement = 1;
},
{
position = "{132, 454}";
showMeasurement = 1;
},
{
position = "{130, 290}";
showMeasurement = 1;
},
{
angle = 236.602;
position = "{345, 374}";
},
{
angle = 123.344;
position = "{402, 374}";
},
{
angle = 56.5817;
position = "{390, 370}";
},
{
angle = 123.4;
position = "{355, 370}";
}
);
paths = (
{
closed = 1;
nodes = (
"767 766 LINE SMOOTH",
"759 778 OFFCURVE",
"761 786 OFFCURVE",
"769 799 CURVE SMOOTH",
"1248 1507 LINE SMOOTH",
"1252 1513 OFFCURVE",
"1252 1520 OFFCURVE",
"1244 1520 CURVE SMOOTH",
"1160 1520 LINE SMOOTH",
"1152 1520 OFFCURVE",
"1148 1518 OFFCURVE",
"1144 1511 CURVE SMOOTH",
"720 883 LINE SMOOTH",
"706 862 OFFCURVE",
"697 864 OFFCURVE",
"685 881 CURVE SMOOTH",
"261 1511 LINE SMOOTH",
"257 1518 OFFCURVE",
"255 1520 OFFCURVE",
"243 1520 CURVE SMOOTH",
"163 1520 LINE SMOOTH",
"155 1520 OFFCURVE",
"153 1509 OFFCURVE",
"157 1503 CURVE SMOOTH",
"632 801 LINE SMOOTH",
"642 784 OFFCURVE",
"644 772 OFFCURVE",
"634 758 CURVE SMOOTH",
"138 20 LINE SMOOTH",
"128 4 OFFCURVE",
"132 0 OFFCURVE",
"144 0 CURVE SMOOTH",
"218 0 LINE SMOOTH",
"224 0 OFFCURVE",
"231 2 OFFCURVE",
"235 8 CURVE SMOOTH",
"679 664 LINE SMOOTH",
"700 694 OFFCURVE",
"708 692 OFFCURVE",
"722 670 CURVE SMOOTH",
"1173 8 LINE SMOOTH",
"1177 2 OFFCURVE",
"1179 0 OFFCURVE",
"1187 0 CURVE SMOOTH",
"1261 0 LINE SMOOTH",
"1273 0 OFFCURVE",
"1281 4 OFFCURVE",
"1269 20 CURVE SMOOTH"
);
}
);
};
guideLines = (
{
angle = 90;
position = "{173, 405}";
},
{
angle = 90;
position = "{623, 345}";
},
{
position = "{-24, 1446}";
showMeasurement = 1;
},
{
position = "{138, 29}";
showMeasurement = 1;
},
{
position = "{199, 421}";
showMeasurement = 1;
},
{
position = "{293, 619}";
showMeasurement = 1;
},
{
angle = 236.0258;
position = "{213, 0}";
},
{
angle = 124.2389;
position = "{1122, 0}";
},
{
angle = 236.0258;
position = "{368, 371}";
}
);
layerId = "91AB5BCA-6A50-42DA-B2F7-8181BF189245";
paths = (
{
closed = 1;
nodes = (
"728 760 LINE",
"1216 1481 LINE",
"1118 1481 LINE",
"680 830 LINE",
"239 1481 LINE",
"141 1481 LINE",
"632 760 LINE",
"120 0 LINE",
"217 0 LINE",
"680 687 LINE",
"1148 0 LINE",
"1245 0 LINE"
);
}
);
width = 1365;
}
);
leftKerningGroup = X;
rightKerningGroup = X;
unicode = 0058;
},
{
glyphname = Y;
lastChange = "2019-05-22 19:22:28 +0000";
layers = (
{
anchors = (
{
name = bottom;
position = "{738, 0}";
},
{
name = top;
position = "{789, 1481}";
}
);
background = {
anchors = (
{
name = top;
position = "{787, 1520}";
}
);
paths = (
{
closed = 1;
nodes = (
"1141 1520 LINE SMOOTH",
"1102 1520 OFFCURVE",
"1088 1511 OFFCURVE",
"1071 1477 CURVE SMOOTH",
"824 1020 LINE SMOOTH",
"809 995 OFFCURVE",
"801 997 OFFCURVE",
"789 1022 CURVE SMOOTH",
"537 1477 LINE SMOOTH",
"519 1509 OFFCURVE",
"508 1520 OFFCURVE",
"467 1520 CURVE SMOOTH",
"56 1520 LINE SMOOTH",
"13 1520 OFFCURVE",
"-2 1495 OFFCURVE",
"19 1462 CURVE SMOOTH",
"498 680 LINE SMOOTH",
"516 649 OFFCURVE",
"527 633 OFFCURVE",
"527 590 CURVE SMOOTH",
"527 51 LINE SMOOTH",
"527 16 OFFCURVE",
"539 0 OFFCURVE",
"580 0 CURVE SMOOTH",
"924 0 LINE SMOOTH",
"971 0 OFFCURVE",
"992 16 OFFCURVE",
"992 59 CURVE SMOOTH",
"992 563 LINE SMOOTH",
"992 649 OFFCURVE",
"994 670 OFFCURVE",
"1012 698 CURVE SMOOTH",
"1491 1473 LINE SMOOTH",
"1508 1499 OFFCURVE",
"1497 1520 OFFCURVE",
"1463 1520 CURVE SMOOTH"
);
}
);
};
guideLines = (
{
angle = 58.823;
position = "{492, 670}";
}
);
layerId = "258ED206-D907-4350-8EBA-CBDDA1C16BF7";
leftMetricsKey = "=X/2";
rightMetricsKey = "=X/2";
paths = (
{
closed = 1;
nodes = (
"1028 1481 LINE",
"738 954 LINE",
"445 1481 LINE",
"15 1481 LINE",
"537 616 LINE",
"537 0 LINE",
"936 0 LINE",
"936 616 LINE",
"1463 1481 LINE"
);
}
);
width = 1478;
},
{
anchors = (
{
name = bottom;
position = "{566, 0}";
},
{
name = top;
position = "{562, 1485}";
}
);
background = {
anchors = (
{
name = top;
position = "{571, 1520}";
}
);
paths = (
{
closed = 1;
nodes = (
"1066 1520 LINE SMOOTH",
"1048 1520 OFFCURVE",
"1044 1518 OFFCURVE",
"1033 1501 CURVE SMOOTH",
"605 766 LINE SMOOTH",
"589 739 OFFCURVE",
"575 737 OFFCURVE",
"556 770 CURVE SMOOTH",
"126 1501 LINE SMOOTH",
"118 1516 OFFCURVE",
"112 1520 OFFCURVE",
"93 1520 CURVE SMOOTH",
"46 1520 LINE SMOOTH",
"26 1520 OFFCURVE",
"22 1509 OFFCURVE",
"30 1495 CURVE SMOOTH",
"530 645 LINE SMOOTH",
"538 631 OFFCURVE",
"540 625 OFFCURVE",
"540 604 CURVE SMOOTH",
"540 23 LINE SMOOTH",
"540 8 OFFCURVE",
"546 0 OFFCURVE",
"564 0 CURVE SMOOTH",
"603 0 LINE SMOOTH",
"626 0 OFFCURVE",
"634 8 OFFCURVE",
"634 27 CURVE SMOOTH",
"634 627 LINE SMOOTH",
"634 647 OFFCURVE",
"634 655 OFFCURVE",
"642 668 CURVE SMOOTH",
"1132 1497 LINE SMOOTH",
"1140 1509 OFFCURVE",
"1134 1520 OFFCURVE",
"1119 1520 CURVE SMOOTH"
);
}
);
};
guideLines = (
{
angle = 239.8907;
position = "{237, 335}";
},
{
angle = -59.5603;
position = "{202, 328}";
}
);
layerId = "91AB5BCA-6A50-42DA-B2F7-8181BF189245";
paths = (
{
closed = 1;
nodes = (
"1005 1481 LINE",
"566 719 LINE",
"120 1481 LINE",
"30 1481 LINE",
"526 639 LINE",
"526 0 LINE",
"605 0 LINE",
"605 637 LINE",
"1093 1481 LINE"
);
}
);
width = 1123;
}
);
leftKerningGroup = Y;
leftMetricsKey = "=X/4";
rightKerningGroup = Y;
rightMetricsKey = "=X/4";
unicode = 0059;
},
{
glyphname = Z;
lastChange = "2019-05-21 21:13:38 +0000";
layers = (
{
anchors = (
{
name = bottom;
position = "{734, 0}";
},
{
name = top;
position = "{781, 1481}";
}
);
background = {
anchors = (
{
name = bottom;
position = "{729, 0}";
},
{
name = top;
position = "{779, 1520}";
}
);
paths = (
{
closed = 1;
nodes = (
"1405 0 LINE",
"1405 340 LINE",
"707 340 LINE",
"1418 1339 LINE",
"1418 1520 LINE",
"140 1520 LINE",
"140 1182 LINE",
"768 1182 LINE",
"72 186 LINE",
"72 0 LINE"
);
}
);
};
layerId = "258ED206-D907-4350-8EBA-CBDDA1C16BF7";
paths = (
{
closed = 1;
nodes = (
"1352 0 LINE",
"1352 332 LINE",
"652 332 LINE",
"1364 1307 LINE",
"1364 1481 LINE",
"158 1481 LINE",
"158 1153 LINE",
"791 1153 LINE",
"93 182 LINE",
"93 0 LINE"
);
}
);
width = 1434;
},
{
anchors = (
{
name = bottom;
position = "{662, 0}";
},
{
name = top;
position = "{647, 1481}";
}
);
background = {
anchors = (
{
name = bottom;
position = "{680, 0}";
},
{
name = top;
position = "{666, 1520}";
}
);
paths = (
{
closed = 1;
nodes = (
"1155 0 LINE",
"1155 82 LINE",
"266 82 LINE",
"1155 1464 LINE",
"1155 1520 LINE",
"174 1520 LINE",
"174 1438 LINE",
"1036 1438 LINE",
"154 57 LINE",
"154 0 LINE"
);
}
);
};
guideLines = (
{
angle = 237.1304;
position = "{499, 659}";
}
);
layerId = "91AB5BCA-6A50-42DA-B2F7-8181BF189245";
paths = (
{
closed = 1;
nodes = (
"1124 0 LINE",
"1124 80 LINE",
"250 80 LINE",
"1124 1419 LINE",
"1124 1481 LINE",
"168 1481 LINE",
"168 1401 LINE",
"1020 1401 LINE",
"150 63 LINE",
"150 0 LINE"
);
}
);
width = 1237;
}
);
leftKerningGroup = Z;
leftMetricsKey = "=H/1.5";
rightKerningGroup = Z;
rightMetricsKey = "=H/2";
unicode = 005A;
},
{
glyphname = a;
lastChange = "2019-06-04 16:48:48 +0000";
layers = (
{
anchors = (
{
name = bottom;
position = "{599, 0}";
},
{
name = ogonek;
position = "{1023, 20}";
},
{
name = top;
position = "{606, 1059}";
}
);
background = {
anchors = (
{
name = ogonek;
position = "{1011, 20}";
},
{
name = top;
position = "{577, 1085}";
}
);
guideLines = (
{
angle = 90;
position = "{326, 102}";
}
);
paths = (
{
closed = 1;
nodes = (
"665 115 OFFCURVE",
"681 113 OFFCURVE",
"685 86 CURVE SMOOTH",
"687 72 LINE SMOOTH",
"694 33 OFFCURVE",
"704 0 OFFCURVE",
"741 0 CURVE SMOOTH",
"1021 0 LINE SMOOTH",
"1060 0 OFFCURVE",
"1068 14 OFFCURVE",
"1068 55 CURVE SMOOTH",
"1068 768 LINE SMOOTH",
"1068 969 OFFCURVE",
"956 1106 OFFCURVE",
"577 1106 CURVE SMOOTH",
"309 1106 OFFCURVE",
"122 1036 OFFCURVE",
"61 862 CURVE SMOOTH",
"42 811 OFFCURVE",
"55 801 OFFCURVE",
"75 797 CURVE SMOOTH",
"343 743 LINE SMOOTH",
"380 737 OFFCURVE",
"388 743 OFFCURVE",
"399 766 CURVE SMOOTH",
"434 842 OFFCURVE",
"501 862 OFFCURVE",
"558 862 CURVE SMOOTH",
"640 862 OFFCURVE",
"679 819 OFFCURVE",
"679 743 CURVE SMOOTH",
"679 709 LINE SMOOTH",
"679 684 OFFCURVE",
"659 680 OFFCURVE",
"649 680 CURVE SMOOTH",
"634 680 LINE SMOOTH",
"247 680 OFFCURVE",
"6 518 OFFCURVE",
"6 279 CURVE SMOOTH",
"6 109 OFFCURVE",
"128 -20 OFFCURVE",
"333 -20 CURVE SMOOTH",
"460 -20 OFFCURVE",
"556 25 OFFCURVE",
"630 86 CURVE SMOOTH"
);
},
{
closed = 1;
nodes = (
"679 350 LINE SMOOTH",
"679 319 OFFCURVE",
"657 297 OFFCURVE",
"632 276 CURVE SMOOTH",
"610 258 OFFCURVE",
"573 238 OFFCURVE",
"520 238 CURVE SMOOTH",
"446 238 OFFCURVE",
"403 276 OFFCURVE",
"403 334 CURVE SMOOTH",
"403 449 OFFCURVE",
"575 496 OFFCURVE",
"640 496 CURVE SMOOTH",
"649 496 LINE SMOOTH",
"673 496 OFFCURVE",
"679 483 OFFCURVE",
"679 459 CURVE SMOOTH"
);
}
);
};
guideLines = (
{
angle = 270;
position = "{323, 93}";
},
{
angle = 270;
position = "{288, 516}";
}
);
layerId = "258ED206-D907-4350-8EBA-CBDDA1C16BF7";
paths = (
{
closed = 1;
nodes = (
"565 -20 OFFCURVE",
"653 25 OFFCURVE",
"716 168 CURVE",
"751 0 LINE",
"1081 0 LINE",
"1081 750 LINE SMOOTH",
"1081 944 OFFCURVE",
"970 1079 OFFCURVE",
"601 1079 CURVE SMOOTH",
"329 1079 OFFCURVE",
"108 979 OFFCURVE",
"96 729 CURVE",
"419 729 LINE",
"452 801 OFFCURVE",
"528 819 OFFCURVE",
"583 821 CURVE SMOOTH",
"663 823 OFFCURVE",
"700 793 OFFCURVE",
"700 725 CURVE SMOOTH",
"700 680 LINE",
"618 680 LINE SMOOTH",
"233 680 OFFCURVE",
"55 547 OFFCURVE",
"55 317 CURVE SMOOTH",
"55 98 OFFCURVE",
"221 -20 OFFCURVE",
"421 -20 CURVE SMOOTH"
);
},
{
closed = 1;
nodes = (
"493 231 OFFCURVE",
"429 279 OFFCURVE",
"429 358 CURVE SMOOTH",
"429 463 OFFCURVE",
"573 492 OFFCURVE",
"636 492 CURVE SMOOTH",
"700 492 LINE",
"700 358 LINE",
"698 291 OFFCURVE",
"638 231 OFFCURVE",
"561 231 CURVE SMOOTH"
);
}
);
width = 1189;
},
{
anchors = (
{
name = bottom;
position = "{569, 0}";
},
{
name = ogonek;
position = "{937, 29}";
},
{
name = top;
position = "{570, 1059}";
}
);
background = {
anchors = (
{
name = ogonek;
position = "{964, 29}";
},
{
name = top;
position = "{585, 1085}";
}
);
paths = (
{
closed = 1;
nodes = (
"886 160 OFFCURVE",
"894 158 OFFCURVE",
"896 143 CURVE SMOOTH",
"900 18 LINE SMOOTH",
"900 4 OFFCURVE",
"906 0 OFFCURVE",
"919 0 CURVE SMOOTH",
"956 0 LINE SMOOTH",
"968 0 OFFCURVE",
"976 4 OFFCURVE",
"976 20 CURVE SMOOTH",
"976 752 LINE SMOOTH",
"976 973 OFFCURVE",
"825 1106 OFFCURVE",
"593 1106 CURVE SMOOTH",
"399 1106 OFFCURVE",
"261 1010 OFFCURVE",
"175 883 CURVE SMOOTH",
"167 872 OFFCURVE",
"169 866 OFFCURVE",
"175 862 CURVE SMOOTH",
"224 831 LINE SMOOTH",
"233 825 OFFCURVE",
"237 829 OFFCURVE",
"245 840 CURVE SMOOTH",
"337 963 OFFCURVE",
"448 1028 OFFCURVE",
"589 1028 CURVE SMOOTH",
"773 1028 OFFCURVE",
"894 918 OFFCURVE",
"894 743 CURVE SMOOTH",
"894 680 LINE SMOOTH",
"894 662 OFFCURVE",
"882 651 OFFCURVE",
"859 649 CURVE SMOOTH",
"644 631 LINE SMOOTH",
"308 602 OFFCURVE",
"138 483 OFFCURVE",
"138 276 CURVE SMOOTH",
"138 92 OFFCURVE",
"272 -20 OFFCURVE",
"487 -20 CURVE SMOOTH",
"638 -20 OFFCURVE",
"763 35 OFFCURVE",
"876 147 CURVE SMOOTH"
);
},
{
closed = 1;
nodes = (
"894 350 LINE SMOOTH",
"894 289 OFFCURVE",
"853 219 OFFCURVE",
"777 158 CURVE SMOOTH",
"700 96 OFFCURVE",
"599 57 OFFCURVE",
"499 57 CURVE SMOOTH",
"333 57 OFFCURVE",
"224 141 OFFCURVE",
"224 283 CURVE SMOOTH",
"224 440 OFFCURVE",
"362 535 OFFCURVE",
"683 559 CURVE SMOOTH",
"866 573 LINE SMOOTH",
"884 575 OFFCURVE",
"894 567 OFFCURVE",
"894 545 CURVE SMOOTH"
);
}
);
};
guideLines = (
{
position = "{385, 208}";
showMeasurement = 1;
}
);
hints = (
{
horizontal = 1;
place = "{7846, 371}";
type = Stem;
}
);
layerId = "91AB5BCA-6A50-42DA-B2F7-8181BF189245";
paths = (
{
closed = 1;
nodes = (
"628 -20 OFFCURVE",
"780 39 OFFCURVE",
"872 215 CURVE",
"876 0 LINE",
"949 0 LINE",
"949 733 LINE SMOOTH",
"949 948 OFFCURVE",
"796 1079 OFFCURVE",
"571 1079 CURVE SMOOTH",
"325 1079 OFFCURVE",
"196 926 OFFCURVE",
"186 776 CURVE",
"272 776 LINE",
"294 922 OFFCURVE",
"413 1001 OFFCURVE",
"567 1001 CURVE SMOOTH",
"747 1001 OFFCURVE",
"870 901 OFFCURVE",
"870 731 CURVE SMOOTH",
"870 629 LINE",
"626 621 LINE SMOOTH",
"274 608 OFFCURVE",
"132 508 OFFCURVE",
"132 270 CURVE SMOOTH",
"132 90 OFFCURVE",
"263 -20 OFFCURVE",
"472 -20 CURVE SMOOTH"
);
},
{
closed = 1;
nodes = (
"323 55 OFFCURVE",
"216 137 OFFCURVE",
"216 276 CURVE SMOOTH",
"216 461 OFFCURVE",
"327 539 OFFCURVE",
"665 545 CURVE SMOOTH",
"870 549 LINE",
"870 342 LINE SMOOTH",
"870 199 OFFCURVE",
"661 55 OFFCURVE",
"485 55 CURVE SMOOTH"
);
}
);
width = 1153;
}
);
leftKerningGroup = a;
leftMetricsKey = "=|o*1.1";
rightKerningGroup = n;
rightMetricsKey = "=n*1.2";
unicode = 0061;
},
{
glyphname = ae;
lastChange = "2019-06-06 16:48:52 +0000";
layers = (
{
anchors = (
{
name = bottom;
position = "{599, 0}";
},
{
name = ogonek;
position = "{1023, 20}";
},
{
name = top;
position = "{864, 1059}";
}
);
background = {
anchors = (
{
name = top;
position = "{952, 1085}";
}
);
paths = (
{
closed = 1;
nodes = (
"1816 469 LINE SMOOTH",
"1851 471 OFFCURVE",
"1853 485 OFFCURVE",
"1853 520 CURVE SMOOTH",
"1853 891 OFFCURVE",
"1617 1106 OFFCURVE",
"1296 1106 CURVE SMOOTH",
"1189 1106 OFFCURVE",
"1087 1077 OFFCURVE",
"999 1024 CURVE",
"921 1075 OFFCURVE",
"800 1104 OFFCURVE",
"618 1106 CURVE SMOOTH",
"305 1106 OFFCURVE",
"188 1022 OFFCURVE",
"110 862 CURVE SMOOTH",
"100 840 OFFCURVE",
"106 801 OFFCURVE",
"124 797 CURVE SMOOTH",
"393 743 LINE SMOOTH",
"430 737 OFFCURVE",
"438 739 OFFCURVE",
"448 766 CURVE",
"483 842 OFFCURVE",
"550 862 OFFCURVE",
"608 862 CURVE SMOOTH",
"690 862 OFFCURVE",
"729 819 OFFCURVE",
"729 743 CURVE SMOOTH",
"729 709 LINE SMOOTH",
"729 684 OFFCURVE",
"708 680 OFFCURVE",
"692 680 CURVE",
"645 678 LINE SMOOTH",
"251 659 OFFCURVE",
"55 512 OFFCURVE",
"55 293 CURVE SMOOTH",
"55 106 OFFCURVE",
"178 -20 OFFCURVE",
"409 -20 CURVE SMOOTH",
"598 -20 OFFCURVE",
"731 25 OFFCURVE",
"856 145 CURVE SMOOTH",
"864 154 OFFCURVE",
"870 154 OFFCURVE",
"878 145 CURVE SMOOTH",
"980 41 OFFCURVE",
"1132 -20 OFFCURVE",
"1304 -20 CURVE SMOOTH",
"1533 -20 OFFCURVE",
"1673 35 OFFCURVE",
"1820 242 CURVE",
"1839 264 OFFCURVE",
"1832 283 OFFCURVE",
"1812 291 CURVE SMOOTH",
"1626 367 LINE SMOOTH",
"1599 377 OFFCURVE",
"1593 375 OFFCURVE",
"1583 365 CURVE SMOOTH",
"1492 276 OFFCURVE",
"1429 250 OFFCURVE",
"1359 250 CURVE SMOOTH",
"1241 250 OFFCURVE",
"1148 309 OFFCURVE",
"1148 434 CURVE SMOOTH",
"1148 459 OFFCURVE",
"1159 469 OFFCURVE",
"1179 469 CURVE SMOOTH"
);
},
{
closed = 1;
nodes = (
"1417 866 OFFCURVE",
"1456 762 OFFCURVE",
"1456 709 CURVE SMOOTH",
"1456 684 OFFCURVE",
"1447 680 OFFCURVE",
"1421 680 CURVE SMOOTH",
"1155 682 LINE",
"1153 809 OFFCURVE",
"1230 866 OFFCURVE",
"1314 866 CURVE SMOOTH"
);
},
{
closed = 1;
nodes = (
"729 328 LINE SMOOTH",
"729 260 OFFCURVE",
"653 221 OFFCURVE",
"575 221 CURVE SMOOTH",
"495 221 OFFCURVE",
"452 260 OFFCURVE",
"452 319 CURVE SMOOTH",
"452 420 OFFCURVE",
"585 471 OFFCURVE",
"663 477 CURVE SMOOTH",
"692 479 LINE SMOOTH",
"716 479 OFFCURVE",
"729 467 OFFCURVE",
"729 442 CURVE SMOOTH"
);
}
);
};
components = (
{
name = e;
transform = "{1, 0, 0, 1, 659, 0}";
}
);
layerId = "258ED206-D907-4350-8EBA-CBDDA1C16BF7";
paths = (
{
closed = 1;
nodes = (
"675 -20 OFFCURVE",
"791 59 OFFCURVE",
"844 202 CURVE",
"1081 750 LINE",
"1081 944 OFFCURVE",
"970 1079 OFFCURVE",
"601 1079 CURVE SMOOTH",
"329 1079 OFFCURVE",
"108 979 OFFCURVE",
"96 729 CURVE",
"419 729 LINE",
"452 801 OFFCURVE",
"528 819 OFFCURVE",
"583 821 CURVE SMOOTH",
"663 823 OFFCURVE",
"700 793 OFFCURVE",
"700 725 CURVE SMOOTH",
"700 680 LINE",
"618 680 LINE SMOOTH",
"233 680 OFFCURVE",
"55 547 OFFCURVE",
"55 317 CURVE SMOOTH",
"55 98 OFFCURVE",
"221 -20 OFFCURVE",
"421 -20 CURVE SMOOTH"
);
},
{
closed = 1;
nodes = (
"493 231 OFFCURVE",
"429 279 OFFCURVE",
"429 358 CURVE SMOOTH",
"429 463 OFFCURVE",
"573 492 OFFCURVE",
"636 492 CURVE SMOOTH",
"700 492 LINE",
"700 358 LINE",
"698 291 OFFCURVE",
"638 231 OFFCURVE",
"561 231 CURVE SMOOTH"
);
}
);
width = 1832;
},
{
anchors = (
{
name = bottom;
position = "{569, 0}";
},
{
name = ogonek;
position = "{937, 29}";
},
{
name = top;
position = "{912, 1059}";
}
);
background = {
anchors = (
{
name = top;
position = "{1096, 1085}";
}
);
paths = (
{
closed = 1;
nodes = (
"1936 520 LINE SMOOTH",
"1964 520 OFFCURVE",
"1972 535 OFFCURVE",
"1972 561 CURVE SMOOTH",
"1972 909 OFFCURVE",
"1784 1106 OFFCURVE",
"1503 1106 CURVE SMOOTH",
"1311 1106 OFFCURVE",
"1164 1024 OFFCURVE",
"1082 862 CURVE",
"1041 1026 OFFCURVE",
"926 1106 OFFCURVE",
"723 1106 CURVE SMOOTH",
"549 1106 OFFCURVE",
"391 1024 OFFCURVE",
"303 883 CURVE SMOOTH",
"297 872 OFFCURVE",
"297 866 OFFCURVE",
"303 862 CURVE SMOOTH",
"348 831 LINE SMOOTH",
"357 825 OFFCURVE",
"361 827 OFFCURVE",
"371 840 CURVE SMOOTH",
"465 963 OFFCURVE",
"576 1028 OFFCURVE",
"707 1028 CURVE SMOOTH",
"912 1028 OFFCURVE",
"1022 918 OFFCURVE",
"1022 743 CURVE SMOOTH",
"1022 680 LINE SMOOTH",
"1022 662 OFFCURVE",
"1010 651 OFFCURVE",
"985 649 CURVE SMOOTH",
"756 631 LINE SMOOTH",
"422 602 OFFCURVE",
"266 479 OFFCURVE",
"266 279 CURVE SMOOTH",
"266 92 OFFCURVE",
"393 -20 OFFCURVE",
"606 -20 CURVE SMOOTH",
"875 -20 OFFCURVE",
"994 127 OFFCURVE",
"1067 221 CURVE SMOOTH",
"1071 227 OFFCURVE",
"1073 227 OFFCURVE",
"1077 221 CURVE SMOOTH",
"1137 133 OFFCURVE",
"1247 -20 OFFCURVE",
"1497 -20 CURVE SMOOTH",
"1696 -20 OFFCURVE",
"1862 76 OFFCURVE",
"1932 205 CURVE SMOOTH",
"1938 217 OFFCURVE",
"1936 221 OFFCURVE",
"1929 225 CURVE SMOOTH",
"1884 256 LINE SMOOTH",
"1874 262 OFFCURVE",
"1872 260 OFFCURVE",
"1862 248 CURVE SMOOTH",
"1802 166 OFFCURVE",
"1714 57 OFFCURVE",
"1501 57 CURVE SMOOTH",
"1272 57 OFFCURVE",
"1092 274 OFFCURVE",
"1092 467 CURVE SMOOTH",
"1092 510 OFFCURVE",
"1098 518 OFFCURVE",
"1133 518 CURVE SMOOTH"
);
},
{
closed = 1;
nodes = (
"1723 1028 OFFCURVE",
"1884 848 OFFCURVE",
"1884 627 CURVE SMOOTH",
"1884 602 OFFCURVE",
"1882 594 OFFCURVE",
"1850 594 CURVE SMOOTH",
"1096 596 LINE",
"1098 856 OFFCURVE",
"1272 1028 OFFCURVE",
"1497 1028 CURVE SMOOTH"
);
},
{
closed = 1;
nodes = (
"1022 362 LINE",
"1022 203 OFFCURVE",
"846 70 OFFCURVE",
"627 59 CURVE SMOOTH",
"455 51 OFFCURVE",
"355 145 OFFCURVE",
"355 283 CURVE SMOOTH",
"355 440 OFFCURVE",
"490 532 OFFCURVE",
"797 557 CURVE SMOOTH",
"991 571 LINE SMOOTH",
"1018 573 OFFCURVE",
"1022 563 OFFCURVE",
"1022 543 CURVE SMOOTH"
);
}
);
};
components = (
{
alignment = -1;
name = e;
transform = "{1, 0, 0, 1, 740, 0}";
}
);
hints = (
{
horizontal = 1;
place = "{7846, 371}";
type = Stem;
},
{
horizontal = 1;
place = "{7846, 371}";
type = Stem;
}
);
layerId = "91AB5BCA-6A50-42DA-B2F7-8181BF189245";
paths = (
{
closed = 1;
nodes = (
"688 -20 OFFCURVE",
"920 118 OFFCURVE",
"920 324 CURVE",
"949 733 LINE",
"949 948 OFFCURVE",
"796 1079 OFFCURVE",
"571 1079 CURVE SMOOTH",
"325 1079 OFFCURVE",
"196 926 OFFCURVE",
"186 776 CURVE",
"272 776 LINE",
"294 922 OFFCURVE",
"413 1001 OFFCURVE",
"567 1001 CURVE SMOOTH",
"747 1001 OFFCURVE",
"870 901 OFFCURVE",
"870 731 CURVE SMOOTH",
"870 629 LINE",
"626 621 LINE SMOOTH",
"274 608 OFFCURVE",
"132 508 OFFCURVE",
"132 270 CURVE SMOOTH",
"132 90 OFFCURVE",
"263 -20 OFFCURVE",
"472 -20 CURVE SMOOTH"
);
},
{
closed = 1;
nodes = (
"323 55 OFFCURVE",
"216 137 OFFCURVE",
"216 276 CURVE SMOOTH",
"216 461 OFFCURVE",
"327 539 OFFCURVE",
"665 545 CURVE SMOOTH",
"870 549 LINE",
"870 392 LINE SMOOTH",
"870 249 OFFCURVE",
"721 55 OFFCURVE",
"485 55 CURVE SMOOTH"
);
}
);
width = 1889;
}
);
leftKerningGroup = a;
leftMetricsKey = a;
rightKerningGroup = o;
rightMetricsKey = e;
unicode = 00E6;
},
{
glyphname = b;
lastChange = "2019-05-24 23:44:41 +0000";
layers = (
{
background = {
paths = (
{
closed = 1;
nodes = (
"323 0 OFFCURVE",
"339 14 OFFCURVE",
"349 47 CURVE SMOOTH",
"382 143 LINE SMOOTH",
"388 160 OFFCURVE",
"397 162 OFFCURVE",
"409 150 CURVE SMOOTH",
"489 45 OFFCURVE",
"599 -20 OFFCURVE",
"728 -20 CURVE SMOOTH",
"1027 -20 OFFCURVE",
"1193 203 OFFCURVE",
"1193 551 CURVE SMOOTH",
"1193 893 OFFCURVE",
"1038 1106 OFFCURVE",
"771 1106 CURVE SMOOTH",
"679 1106 OFFCURVE",
"595 1079 OFFCURVE",
"511 999 CURVE SMOOTH",
"491 983 OFFCURVE",
"472 983 OFFCURVE",
"472 1016 CURVE SMOOTH",
"472 1477 LINE SMOOTH",
"472 1503 OFFCURVE",
"460 1520 OFFCURVE",
"436 1520 CURVE SMOOTH",
"102 1520 LINE SMOOTH",
"79 1520 OFFCURVE",
"63 1503 OFFCURVE",
"63 1473 CURVE SMOOTH",
"63 51 LINE SMOOTH",
"63 16 OFFCURVE",
"75 0 OFFCURVE",
"118 0 CURVE SMOOTH",
"296 0 LINE SMOOTH"
);
},
{
closed = 1;
nodes = (
"513 825 OFFCURVE",
"560 856 OFFCURVE",
"624 856 CURVE SMOOTH",
"724 856 OFFCURVE",
"780 780 OFFCURVE",
"780 543 CURVE SMOOTH",
"780 303 OFFCURVE",
"724 219 OFFCURVE",
"618 219 CURVE SMOOTH",
"532 219 OFFCURVE",
"472 276 OFFCURVE",
"472 379 CURVE SMOOTH",
"472 774 LINE"
);
}
);
};
layerId = "258ED206-D907-4350-8EBA-CBDDA1C16BF7";
paths = (
{
closed = 1;
nodes = (
"1040 -20 OFFCURVE",
"1201 199 OFFCURVE",
"1201 537 CURVE SMOOTH",
"1201 870 OFFCURVE",
"1050 1079 OFFCURVE",
"790 1079 CURVE SMOOTH",
"685 1079 OFFCURVE",
"571 1028 OFFCURVE",
"499 899 CURVE",
"499 1522 LINE",
"100 1522 LINE",
"100 0 LINE",
"380 0 LINE",
"421 147 LINE",
"479 33 OFFCURVE",
"616 -20 OFFCURVE",
"747 -20 CURVE SMOOTH"
);
},
{
closed = 1;
nodes = (
"552 258 OFFCURVE",
"499 344 OFFCURVE",
"499 541 CURVE",
"499 541 LINE",
"499 723 OFFCURVE",
"556 799 OFFCURVE",
"646 799 CURVE SMOOTH",
"728 799 OFFCURVE",
"798 754 OFFCURVE",
"798 541 CURVE SMOOTH",
"798 328 OFFCURVE",
"735 258 OFFCURVE",
"640 258 CURVE"
);
}
);
width = 1251;
},
{
background = {
paths = (
{
closed = 1;
nodes = (
"266 0 OFFCURVE",
"272 6 OFFCURVE",
"272 27 CURVE SMOOTH",
"276 131 LINE SMOOTH",
"276 150 OFFCURVE",
"286 152 OFFCURVE",
"297 137 CURVE SMOOTH",
"321 102 OFFCURVE",
"424 -20 OFFCURVE",
"634 -20 CURVE SMOOTH",
"929 -20 OFFCURVE",
"1101 197 OFFCURVE",
"1101 547 CURVE SMOOTH",
"1101 852 OFFCURVE",
"970 1106 OFFCURVE",
"657 1106 CURVE SMOOTH",
"440 1106 OFFCURVE",
"325 987 OFFCURVE",
"305 969 CURVE SMOOTH",
"286 952 OFFCURVE",
"278 952 OFFCURVE",
"278 979 CURVE SMOOTH",
"278 1497 LINE SMOOTH",
"278 1513 OFFCURVE",
"274 1520 OFFCURVE",
"262 1520 CURVE SMOOTH",
"215 1520 LINE SMOOTH",
"202 1520 OFFCURVE",
"196 1513 OFFCURVE",
"196 1499 CURVE SMOOTH",
"196 27 LINE SMOOTH",
"196 6 OFFCURVE",
"202 0 OFFCURVE",
"219 0 CURVE SMOOTH",
"241 0 LINE SMOOTH"
);
},
{
closed = 1;
nodes = (
"360 948 OFFCURVE",
"491 1028 OFFCURVE",
"643 1028 CURVE SMOOTH",
"884 1028 OFFCURVE",
"1013 838 OFFCURVE",
"1013 547 CURVE SMOOTH",
"1013 211 OFFCURVE",
"839 57 OFFCURVE",
"626 57 CURVE SMOOTH",
"454 57 OFFCURVE",
"278 197 OFFCURVE",
"278 362 CURVE SMOOTH",
"278 850 LINE"
);
}
);
};
layerId = "91AB5BCA-6A50-42DA-B2F7-8181BF189245";
paths = (
{
closed = 1;
nodes = (
"927 -20 OFFCURVE",
"1073 193 OFFCURVE",
"1073 532 CURVE SMOOTH",
"1073 831 OFFCURVE",
"944 1079 OFFCURVE",
"639 1079 CURVE SMOOTH",
"372 1079 OFFCURVE",
"290 905 OFFCURVE",
"270 860 CURVE",
"270 1522 LINE",
"190 1522 LINE",
"190 0 LINE",
"262 0 LINE",
"268 217 LINE",
"284 168 OFFCURVE",
"356 -20 OFFCURVE",
"639 -20 CURVE SMOOTH"
);
},
{
closed = 1;
nodes = (
"417 55 OFFCURVE",
"274 213 OFFCURVE",
"270 365 CURVE",
"270 694 LINE",
"278 739 OFFCURVE",
"309 1001 OFFCURVE",
"630 1001 CURVE SMOOTH",
"870 1001 OFFCURVE",
"987 817 OFFCURVE",
"987 532 CURVE SMOOTH",
"987 205 OFFCURVE",
"845 55 OFFCURVE",
"637 55 CURVE SMOOTH"
);
}
);
width = 1193;
}
);
leftKerningGroup = n;
leftMetricsKey = n;
rightKerningGroup = o;
rightMetricsKey = o;
unicode = 0062;
},
{
glyphname = c;
lastChange = "2019-05-24 23:44:44 +0000";
layers = (
{
anchors = (
{
name = bottom;
position = "{582, 0}";
},
{
name = top;
position = "{581, 1059}";
}
);
background = {
anchors = (
{
name = bottom;
position = "{558, 0}";
},
{
name = top;
position = "{560, 1085}";
}
);
paths = (
{
closed = 1;
nodes = (
"236 1106 OFFCURVE",
"-7 877 OFFCURVE",
"-7 539 CURVE SMOOTH",
"-7 207 OFFCURVE",
"232 -20 OFFCURVE",
"560 -20 CURVE SMOOTH",
"892 -20 OFFCURVE",
"1027 215 OFFCURVE",
"1047 322 CURVE SMOOTH",
"1056 352 OFFCURVE",
"1051 365 OFFCURVE",
"1029 369 CURVE SMOOTH",
"836 406 LINE SMOOTH",
"810 410 OFFCURVE",
"802 406 OFFCURVE",
"795 395 CURVE SMOOTH",
"744 303 OFFCURVE",
"705 233 OFFCURVE",
"593 233 CURVE SMOOTH",
"476 233 OFFCURVE",
"406 315 OFFCURVE",
"406 543 CURVE SMOOTH",
"406 762 OFFCURVE",
"470 848 OFFCURVE",
"570 848 CURVE SMOOTH",
"668 848 OFFCURVE",
"687 770 OFFCURVE",
"695 719 CURVE SMOOTH",
"699 696 OFFCURVE",
"707 688 OFFCURVE",
"730 690 CURVE SMOOTH",
"1010 705 LINE SMOOTH",
"1045 707 OFFCURVE",
"1058 723 OFFCURVE",
"1047 758 CURVE SMOOTH",
"1015 915 OFFCURVE",
"853 1106 OFFCURVE",
"560 1106 CURVE SMOOTH"
);
}
);
};
guideLines = (
{
angle = -0.5577;
position = "{-481, 167}";
},
{
position = "{523, 123}";
},
{
angle = 3.769;
position = "{418, 307}";
}
);
layerId = "258ED206-D907-4350-8EBA-CBDDA1C16BF7";
paths = (
{
closed = 1;
nodes = (
"277 1079 OFFCURVE",
"50 852 OFFCURVE",
"50 524 CURVE SMOOTH",
"50 201 OFFCURVE",
"281 -20 OFFCURVE",
"584 -20 CURVE SMOOTH",
"873 -20 OFFCURVE",
"1043 184 OFFCURVE",
"1043 410 CURVE",
"730 410 LINE",
"724 367 OFFCURVE",
"695 254 OFFCURVE",
"595 254 CURVE SMOOTH",
"492 254 OFFCURVE",
"417 354 OFFCURVE",
"417 528 CURVE SMOOTH",
"417 698 OFFCURVE",
"484 784 OFFCURVE",
"587 784 CURVE SMOOTH",
"689 784 OFFCURVE",
"718 686 OFFCURVE",
"726 627 CURVE",
"1049 627 LINE",
"1043 864 OFFCURVE",
"883 1079 OFFCURVE",
"584 1079 CURVE SMOOTH"
);
}
);
width = 1104;
},
{
anchors = (
{
name = bottom;
position = "{581, 0}";
},
{
name = top;
position = "{579, 1059}";
}
);
background = {
anchors = (
{
name = bottom;
position = "{597, 0}";
},
{
name = top;
position = "{593, 1085}";
}
);
paths = (
{
closed = 1;
nodes = (
"306 1106 OFFCURVE",
"104 870 OFFCURVE",
"104 539 CURVE SMOOTH",
"104 205 OFFCURVE",
"302 -20 OFFCURVE",
"595 -20 CURVE SMOOTH",
"769 -20 OFFCURVE",
"917 59 OFFCURVE",
"1015 219 CURVE SMOOTH",
"1019 227 OFFCURVE",
"1017 236 OFFCURVE",
"1011 240 CURVE SMOOTH",
"964 270 LINE SMOOTH",
"956 276 OFFCURVE",
"952 274 OFFCURVE",
"943 262 CURVE SMOOTH",
"853 123 OFFCURVE",
"743 57 OFFCURVE",
"603 57 CURVE SMOOTH",
"354 57 OFFCURVE",
"190 252 OFFCURVE",
"190 543 CURVE SMOOTH",
"190 834 OFFCURVE",
"354 1028 OFFCURVE",
"605 1028 CURVE SMOOTH",
"720 1028 OFFCURVE",
"812 979 OFFCURVE",
"925 842 CURVE SMOOTH",
"933 831 OFFCURVE",
"941 829 OFFCURVE",
"948 834 CURVE SMOOTH",
"997 866 LINE SMOOTH",
"1003 870 OFFCURVE",
"1005 874 OFFCURVE",
"997 887 CURVE SMOOTH",
"902 1022 OFFCURVE",
"778 1106 OFFCURVE",
"595 1106 CURVE SMOOTH"
);
}
);
};
layerId = "91AB5BCA-6A50-42DA-B2F7-8181BF189245";
rightMetricsKey = "=e";
paths = (
{
closed = 1;
nodes = (
"292 1079 OFFCURVE",
"120 850 OFFCURVE",
"120 524 CURVE SMOOTH",
"120 201 OFFCURVE",
"292 -20 OFFCURVE",
"579 -20 CURVE SMOOTH",
"753 -20 OFFCURVE",
"931 57 OFFCURVE",
"980 283 CURVE",
"894 283 LINE",
"859 125 OFFCURVE",
"730 55 OFFCURVE",
"587 55 CURVE SMOOTH",
"347 55 OFFCURVE",
"204 244 OFFCURVE",
"204 528 CURVE SMOOTH",
"204 811 OFFCURVE",
"352 1001 OFFCURVE",
"589 1001 CURVE SMOOTH",
"722 1001 OFFCURVE",
"847 940 OFFCURVE",
"894 772 CURVE",
"980 776 LINE",
"937 989 OFFCURVE",
"757 1079 OFFCURVE",
"579 1079 CURVE SMOOTH"
);
}
);
width = 1112;
}
);
leftKerningGroup = o;
leftMetricsKey = o;
rightKerningGroup = o;
rightMetricsKey = e;
unicode = 0063;
},
{
glyphname = d;
lastChange = "2019-06-06 17:15:59 +0000";
layers = (
{
anchors = (
{
name = bottom;
position = "{610, 0}";
},
{
name = caron;
position = "{1165, 1493}";
},
{
name = center;
position = "{610, 528}";
}
);
background = {
anchors = (
{
name = bottom;
position = "{587, 0}";
},
{
name = center;
position = "{587, 543}";
},
{
name = topright;
position = "{1173, 1085}";
}
);
paths = (
{
closed = 1;
nodes = (
"1081 0 LINE SMOOTH",
"1124 0 OFFCURVE",
"1136 16 OFFCURVE",
"1136 51 CURVE SMOOTH",
"1136 1473 LINE SMOOTH",
"1136 1503 OFFCURVE",
"1119 1520 OFFCURVE",
"1097 1520 CURVE SMOOTH",
"765 1520 LINE SMOOTH",
"741 1520 OFFCURVE",
"728 1503 OFFCURVE",
"728 1477 CURVE SMOOTH",
"728 1016 LINE SMOOTH",
"728 983 OFFCURVE",
"710 983 OFFCURVE",
"689 999 CURVE SMOOTH",
"605 1081 OFFCURVE",
"528 1106 OFFCURVE",
"435 1106 CURVE SMOOTH",
"210 1106 OFFCURVE",
"5 883 OFFCURVE",
"5 539 CURVE SMOOTH",
"5 168 OFFCURVE",
"173 -20 OFFCURVE",
"415 -20 CURVE SMOOTH",
"542 -20 OFFCURVE",
"622 20 OFFCURVE",
"702 94 CURVE SMOOTH",
"716 106 OFFCURVE",
"732 104 OFFCURVE",
"732 86 CURVE SMOOTH",
"732 47 LINE SMOOTH",
"732 12 OFFCURVE",
"757 0 OFFCURVE",
"784 0 CURVE SMOOTH"
);
},
{
closed = 1;
nodes = (
"726 360 LINE SMOOTH",
"726 281 OFFCURVE",
"663 225 OFFCURVE",
"583 225 CURVE SMOOTH",
"478 225 OFFCURVE",
"419 305 OFFCURVE",
"419 541 CURVE SMOOTH",
"419 778 OFFCURVE",
"487 852 OFFCURVE",
"583 852 CURVE SMOOTH",
"646 852 OFFCURVE",
"683 825 OFFCURVE",
"726 774 CURVE"
);
}
);
};
layerId = "258ED206-D907-4350-8EBA-CBDDA1C16BF7";
paths = (
{
closed = 1;
nodes = (
"677 -20 OFFCURVE",
"777 70 OFFCURVE",
"825 217 CURVE",
"872 0 LINE",
"1154 0 LINE",
"1154 1522 LINE",
"755 1522 LINE",
"755 938 LINE",
"689 1047 OFFCURVE",
"567 1079 OFFCURVE",
"462 1079 CURVE SMOOTH",
"202 1079 OFFCURVE",
"50 870 OFFCURVE",
"50 537 CURVE SMOOTH",
"50 199 OFFCURVE",
"212 -20 OFFCURVE",
"505 -20 CURVE SMOOTH"
);
},
{
closed = 1;
nodes = (
"509 258 OFFCURVE",
"435 328 OFFCURVE",
"435 541 CURVE SMOOTH",
"435 754 OFFCURVE",
"515 799 OFFCURVE",
"597 799 CURVE SMOOTH",
"685 799 OFFCURVE",
"755 745 OFFCURVE",
"755 582 CURVE",
"755 489 LINE",
"755 332 OFFCURVE",
"689 258 OFFCURVE",
"601 258 CURVE"
);
}
);
width = 1254;
},
{
anchors = (
{
name = bottom;
position = "{585, 0}";
},
{
name = caron;
position = "{1003, 1493}";
},
{
name = center;
position = "{610, 528}";
}
);
background = {
anchors = (
{
name = bottom;
position = "{601, 0}";
},
{
name = center;
position = "{626, 543}";
},
{
name = topright;
position = "{1267, 1520}";
}
);
paths = (
{
closed = 1;
nodes = (
"984 0 LINE SMOOTH",
"1003 0 OFFCURVE",
"1009 6 OFFCURVE",
"1009 25 CURVE SMOOTH",
"1009 1501 LINE SMOOTH",
"1009 1513 OFFCURVE",
"1003 1520 OFFCURVE",
"993 1520 CURVE SMOOTH",
"945 1520 LINE SMOOTH",
"931 1520 OFFCURVE",
"927 1513 OFFCURVE",
"927 1499 CURVE SMOOTH",
"927 1010 LINE SMOOTH",
"927 983 OFFCURVE",
"923 975 OFFCURVE",
"898 995 CURVE SMOOTH",
"835 1044 OFFCURVE",
"747 1106 OFFCURVE",
"597 1106 CURVE SMOOTH",
"296 1106 OFFCURVE",
"100 870 OFFCURVE",
"100 522 CURVE SMOOTH",
"100 160 OFFCURVE",
"311 -20 OFFCURVE",
"573 -20 CURVE SMOOTH",
"769 -20 OFFCURVE",
"874 100 OFFCURVE",
"907 135 CURVE SMOOTH",
"923 152 OFFCURVE",
"931 150 OFFCURVE",
"931 127 CURVE SMOOTH",
"931 23 LINE SMOOTH",
"931 8 OFFCURVE",
"937 0 OFFCURVE",
"952 0 CURVE SMOOTH"
);
},
{
closed = 1;
nodes = (
"927 348 LINE SMOOTH",
"927 225 OFFCURVE",
"780 57 OFFCURVE",
"583 57 CURVE SMOOTH",
"374 57 OFFCURVE",
"186 205 OFFCURVE",
"186 530 CURVE SMOOTH",
"186 842 OFFCURVE",
"360 1028 OFFCURVE",
"599 1028 CURVE SMOOTH",
"724 1028 OFFCURVE",
"827 971 OFFCURVE",
"927 872 CURVE"
);
}
);
};
layerId = "91AB5BCA-6A50-42DA-B2F7-8181BF189245";
rightMetricsKey = "=|n";
paths = (
{
closed = 1;
nodes = (
"837 -20 OFFCURVE",
"909 168 OFFCURVE",
"925 217 CURVE",
"931 0 LINE",
"1003 0 LINE",
"1003 1522 LINE",
"923 1522 LINE",
"923 877 LINE",
"902 922 OFFCURVE",
"802 1079 OFFCURVE",
"554 1079 CURVE SMOOTH",
"249 1079 OFFCURVE",
"120 831 OFFCURVE",
"120 532 CURVE SMOOTH",
"120 193 OFFCURVE",
"266 -20 OFFCURVE",
"554 -20 CURVE SMOOTH"
);
},
{
closed = 1;
nodes = (
"347 55 OFFCURVE",
"206 205 OFFCURVE",
"206 532 CURVE SMOOTH",
"206 817 OFFCURVE",
"323 1001 OFFCURVE",
"562 1001 CURVE SMOOTH",
"859 1001 OFFCURVE",
"915 739 OFFCURVE",
"923 694 CURVE",
"923 365 LINE",
"919 213 OFFCURVE",
"775 55 OFFCURVE",
"556 55 CURVE SMOOTH"
);
}
);
width = 1193;
}
);
leftKerningGroup = o;
leftMetricsKey = o;
rightKerningGroup = u;
rightMetricsKey = "=|n";
unicode = 0064;
},
{
glyphname = eth;
lastChange = "2019-06-06 16:33:49 +0000";
layers = (
{
background = {
paths = (
{
closed = 1;
nodes = (
"1156 901 OFFCURVE",
"1002 1192 OFFCURVE",
"748 1370 CURVE",
"843 1423 LINE SMOOTH",
"855 1432 OFFCURVE",
"857 1442 OFFCURVE",
"851 1452 CURVE SMOOTH",
"808 1530 LINE SMOOTH",
"800 1540 OFFCURVE",
"785 1544 OFFCURVE",
"771 1534 CURVE SMOOTH",
"617 1448 LINE",
"541 1487 OFFCURVE",
"458 1516 OFFCURVE",
"369 1536 CURVE SMOOTH",
"345 1542 OFFCURVE",
"341 1540 OFFCURVE",
"326 1528 CURVE SMOOTH",
"154 1386 LINE SMOOTH",
"140 1374 OFFCURVE",
"146 1362 OFFCURVE",
"159 1358 CURVE SMOOTH",
"220 1337 OFFCURVE",
"275 1313 OFFCURVE",
"326 1286 CURVE",
"181 1206 LINE SMOOTH",
"167 1200 OFFCURVE",
"161 1184 OFFCURVE",
"177 1161 CURVE SMOOTH",
"208 1112 LINE SMOOTH",
"222 1090 OFFCURVE",
"234 1085 OFFCURVE",
"257 1098 CURVE SMOOTH",
"453 1208 LINE",
"511 1165 OFFCURVE",
"550 1128 OFFCURVE",
"589 1075 CURVE SMOOTH",
"593 1069 OFFCURVE",
"593 1065 OFFCURVE",
"584 1065 CURVE SMOOTH",
"261 1065 OFFCURVE",
"13 838 OFFCURVE",
"13 516 CURVE SMOOTH",
"13 211 OFFCURVE",
"247 -20 OFFCURVE",
"582 -20 CURVE SMOOTH",
"924 -20 OFFCURVE",
"1156 209 OFFCURVE",
"1156 578 CURVE SMOOTH"
);
},
{
closed = 1;
nodes = (
"476 242 OFFCURVE",
"427 332 OFFCURVE",
"427 524 CURVE SMOOTH",
"427 719 OFFCURVE",
"476 811 OFFCURVE",
"584 811 CURVE SMOOTH",
"695 811 OFFCURVE",
"742 719 OFFCURVE",
"742 524 CURVE SMOOTH",
"742 334 OFFCURVE",
"695 242 OFFCURVE",
"584 242 CURVE SMOOTH"
);
}
);
};
layerId = "258ED206-D907-4350-8EBA-CBDDA1C16BF7";
paths = (
{
closed = 1;
nodes = (
"939 -20 OFFCURVE",
"1164 213 OFFCURVE",
"1164 573 CURVE SMOOTH",
"1164 1026 OFFCURVE",
"1017 1381 OFFCURVE",
"746 1517 CURVE",
"272 1517 LINE",
"358 1448 OFFCURVE",
"717 1309 OFFCURVE",
"902 873 CURVE",
"821 987 OFFCURVE",
"692 1040 OFFCURVE",
"561 1040 CURVE SMOOTH",
"310 1040 OFFCURVE",
"50 871 OFFCURVE",
"50 504 CURVE SMOOTH",
"50 205 OFFCURVE",
"279 -20 OFFCURVE",
"605 -20 CURVE SMOOTH"
);
},
{
closed = 1;
nodes = (
"460 268 OFFCURVE",
"437 424 OFFCURVE",
"437 537 CURVE SMOOTH",
"437 651 OFFCURVE",
"460 795 OFFCURVE",
"589 795 CURVE SMOOTH",
"716 795 OFFCURVE",
"738 651 OFFCURVE",
"738 537 CURVE SMOOTH",
"738 424 OFFCURVE",
"716 268 OFFCURVE",
"589 268 CURVE SMOOTH"
);
},
{
closed = 1;
nodes = (
"1067 1284 LINE",
"1067 1523 LINE",
"272 1285 LINE",
"272 1046 LINE"
);
}
);
width = 1214;
},
{
background = {
paths = (
{
closed = 1;
nodes = (
"1100 864 OFFCURVE",
"987 1153 OFFCURVE",
"667 1370 CURVE",
"852 1473 LINE SMOOTH",
"858 1477 OFFCURVE",
"858 1483 OFFCURVE",
"854 1489 CURVE SMOOTH",
"829 1534 LINE SMOOTH",
"827 1538 OFFCURVE",
"817 1540 OFFCURVE",
"811 1536 CURVE SMOOTH",
"598 1417 LINE",
"526 1460 OFFCURVE",
"450 1497 OFFCURVE",
"360 1534 CURVE SMOOTH",
"342 1542 OFFCURVE",
"336 1538 OFFCURVE",
"323 1530 CURVE SMOOTH",
"286 1505 LINE SMOOTH",
"276 1497 OFFCURVE",
"278 1487 OFFCURVE",
"289 1483 CURVE SMOOTH",
"375 1448 OFFCURVE",
"450 1411 OFFCURVE",
"520 1372 CURVE",
"203 1194 LINE SMOOTH",
"196 1190 OFFCURVE",
"192 1184 OFFCURVE",
"200 1171 CURVE SMOOTH",
"219 1143 LINE SMOOTH",
"227 1130 OFFCURVE",
"233 1126 OFFCURVE",
"246 1133 CURVE SMOOTH",
"590 1327 LINE",
"766 1208 OFFCURVE",
"874 1071 OFFCURVE",
"938 924 CURVE",
"850 1012 OFFCURVE",
"729 1065 OFFCURVE",
"583 1065 CURVE SMOOTH",
"305 1065 OFFCURVE",
"104 836 OFFCURVE",
"104 516 CURVE SMOOTH",
"104 201 OFFCURVE",
"303 -20 OFFCURVE",
"598 -20 CURVE SMOOTH",
"913 -20 OFFCURVE",
"1100 207 OFFCURVE",
"1100 522 CURVE SMOOTH"
);
},
{
closed = 1;
nodes = (
"368 57 OFFCURVE",
"190 262 OFFCURVE",
"190 520 CURVE SMOOTH",
"190 778 OFFCURVE",
"368 987 OFFCURVE",
"604 987 CURVE SMOOTH",
"837 987 OFFCURVE",
"1014 780 OFFCURVE",
"1014 520 CURVE SMOOTH",
"1014 260 OFFCURVE",
"841 57 OFFCURVE",
"606 57 CURVE SMOOTH"
);
}
);
};
layerId = "91AB5BCA-6A50-42DA-B2F7-8181BF189245";
paths = (
{
closed = 1;
nodes = (
"892 -20 OFFCURVE",
"1065 217 OFFCURVE",
"1071 526 CURVE SMOOTH",
"1081 1009 OFFCURVE",
"1022 1297 OFFCURVE",
"647 1516 CURVE",
"555 1476 LINE",
"755 1375 OFFCURVE",
"959 1208 OFFCURVE",
"980 864 CURVE",
"933 978 OFFCURVE",
"832 1079 OFFCURVE",
"601 1079 CURVE SMOOTH",
"308 1079 OFFCURVE",
"120 850 OFFCURVE",
"120 526 CURVE SMOOTH",
"120 219 OFFCURVE",
"306 -20 OFFCURVE",
"601 -20 CURVE SMOOTH"
);
},
{
closed = 1;
nodes = (
"353 55 OFFCURVE",
"204 274 OFFCURVE",
"204 526 CURVE SMOOTH",
"204 811 OFFCURVE",
"355 1001 OFFCURVE",
"601 1001 CURVE SMOOTH",
"858 1001 OFFCURVE",
"987 838 OFFCURVE",
"987 526 CURVE SMOOTH",
"987 272 OFFCURVE",
"847 55 OFFCURVE",
"601 55 CURVE SMOOTH"
);
},
{
closed = 1;
nodes = (
"1047 1384 LINE",
"1047 1475 LINE",
"492 1247 LINE",
"492 1156 LINE"
);
}
);
width = 1192;
}
);
leftKerningGroup = o;
leftMetricsKey = o;
rightKerningGroup = o;
rightMetricsKey = o;
unicode = 00F0;
},
{
glyphname = dcroat;
lastChange = "2019-05-24 23:44:44 +0000";
layers = (
{
background = {
components = (
{
name = d;
transform = "{1, 0, 0, 1, -38, 0}";
}
);
paths = (
{
closed = 1;
nodes = (
"1178 1393 OFFCURVE",
"1165 1407 OFFCURVE",
"1145 1407 CURVE SMOOTH",
"451 1407 LINE SMOOTH",
"430 1407 OFFCURVE",
"418 1393 OFFCURVE",
"418 1366 CURVE SMOOTH",
"418 1233 LINE SMOOTH",
"418 1202 OFFCURVE",
"428 1188 OFFCURVE",
"463 1188 CURVE SMOOTH",
"1118 1188 LINE SMOOTH",
"1159 1188 OFFCURVE",
"1178 1202 OFFCURVE",
"1178 1237 CURVE SMOOTH",
"1178 1370 LINE SMOOTH"
);
}
);
};
components = (
{
name = d;
}
);
layerId = "258ED206-D907-4350-8EBA-CBDDA1C16BF7";
paths = (
{
closed = 1;
nodes = (
"547 1372 LINE",
"547 1159 LINE",
"1288 1159 LINE",
"1288 1372 LINE"
);
}
);
width = 1350;
},
{
background = {
components = (
{
name = d;
transform = "{1, 0, 0, 1, 4, 0}";
}
);
paths = (
{
closed = 1;
nodes = (
"1190 1352 OFFCURVE",
"1186 1356 OFFCURVE",
"1180 1356 CURVE SMOOTH",
"608 1356 LINE SMOOTH",
"602 1356 OFFCURVE",
"598 1352 OFFCURVE",
"598 1341 CURVE SMOOTH",
"598 1300 LINE SMOOTH",
"598 1288 OFFCURVE",
"600 1284 OFFCURVE",
"612 1284 CURVE SMOOTH",
"1169 1284 LINE SMOOTH",
"1184 1284 OFFCURVE",
"1190 1288 OFFCURVE",
"1190 1300 CURVE SMOOTH",
"1190 1343 LINE SMOOTH"
);
}
);
};
components = (
{
name = d;
}
);
layerId = "91AB5BCA-6A50-42DA-B2F7-8181BF189245";
paths = (
{
closed = 1;
nodes = (
"582 1321 LINE",
"582 1251 LINE",
"1157 1251 LINE",
"1157 1321 LINE"
);
}
);
width = 1219;
}
);
leftKerningGroup = o;
leftMetricsKey = d;
unicode = 0111;
},
{
glyphname = e;
lastChange = "2019-06-04 22:03:47 +0000";
layers = (
{
anchors = (
{
name = bottom;
position = "{602, 0}";
},
{
name = ogonek;
position = "{858, 51}";
},
{
name = top;
position = "{596, 1059}";
}
);
background = {
anchors = (
{
name = bottom;
position = "{577, 0}";
},
{
name = ogonek;
position = "{841, 53}";
},
{
name = top;
position = "{571, 1085}";
}
);
paths = (
{
closed = 1;
nodes = (
"420 459 OFFCURVE",
"430 469 OFFCURVE",
"450 469 CURVE SMOOTH",
"1087 469 LINE SMOOTH",
"1122 471 OFFCURVE",
"1124 485 OFFCURVE",
"1124 520 CURVE SMOOTH",
"1124 891 OFFCURVE",
"888 1106 OFFCURVE",
"567 1106 CURVE SMOOTH",
"264 1106 OFFCURVE",
"-2 872 OFFCURVE",
"-2 524 CURVE SMOOTH",
"-2 203 OFFCURVE",
"247 -20 OFFCURVE",
"575 -20 CURVE SMOOTH",
"805 -20 OFFCURVE",
"944 35 OFFCURVE",
"1091 242 CURVE SMOOTH",
"1110 264 OFFCURVE",
"1104 283 OFFCURVE",
"1083 291 CURVE SMOOTH",
"897 367 LINE SMOOTH",
"870 377 OFFCURVE",
"864 375 OFFCURVE",
"854 365 CURVE SMOOTH",
"764 276 OFFCURVE",
"700 250 OFFCURVE",
"630 250 CURVE SMOOTH",
"512 250 OFFCURVE",
"420 309 OFFCURVE",
"420 434 CURVE SMOOTH"
);
},
{
closed = 1;
nodes = (
"424 809 OFFCURVE",
"501 866 OFFCURVE",
"585 866 CURVE SMOOTH",
"688 866 OFFCURVE",
"727 762 OFFCURVE",
"727 709 CURVE SMOOTH",
"727 684 OFFCURVE",
"719 680 OFFCURVE",
"692 680 CURVE SMOOTH",
"426 682 LINE"
);
}
);
};
layerId = "258ED206-D907-4350-8EBA-CBDDA1C16BF7";
paths = (
{
closed = 1;
nodes = (
"1114 438 LINE",
"1114 530 LINE",
"1114 844 OFFCURVE",
"940 1079 OFFCURVE",
"594 1079 CURVE SMOOTH",
"254 1079 OFFCURVE",
"55 819 OFFCURVE",
"55 516 CURVE SMOOTH",
"55 195 OFFCURVE",
"280 -20 OFFCURVE",
"610 -20 CURVE SMOOTH",
"845 -20 OFFCURVE",
"1085 125 OFFCURVE",
"1118 360 CURVE",
"766 360 LINE",
"733 279 OFFCURVE",
"673 258 OFFCURVE",
"600 258 CURVE SMOOTH",
"514 258 OFFCURVE",
"444 311 OFFCURVE",
"446 438 CURVE"
);
},
{
closed = 1;
nodes = (
"444 741 OFFCURVE",
"512 811 OFFCURVE",
"594 811 CURVE SMOOTH",
"694 811 OFFCURVE",
"747 741 OFFCURVE",
"747 662 CURVE",
"444 662 LINE"
);
}
);
width = 1173;
},
{
anchors = (
{
name = bottom;
position = "{585, 0}";
},
{
name = ogonek;
position = "{777, 37}";
},
{
name = top;
position = "{587, 1059}";
}
);
background = {
anchors = (
{
name = bottom;
position = "{609, 0}";
},
{
name = ogonek;
position = "{800, 37}";
},
{
name = top;
position = "{603, 1085}";
}
);
paths = (
{
closed = 1;
nodes = (
"196 506 OFFCURVE",
"200 520 OFFCURVE",
"208 520 CURVE SMOOTH",
"1050 520 LINE SMOOTH",
"1080 520 OFFCURVE",
"1076 545 OFFCURVE",
"1076 561 CURVE SMOOTH",
"1076 905 OFFCURVE",
"896 1106 OFFCURVE",
"607 1106 CURVE SMOOTH",
"318 1106 OFFCURVE",
"110 893 OFFCURVE",
"110 535 CURVE SMOOTH",
"110 205 OFFCURVE",
"312 -20 OFFCURVE",
"607 -20 CURVE SMOOTH",
"800 -20 OFFCURVE",
"943 55 OFFCURVE",
"1037 205 CURVE SMOOTH",
"1043 213 OFFCURVE",
"1041 221 OFFCURVE",
"1035 225 CURVE SMOOTH",
"988 256 LINE SMOOTH",
"980 262 OFFCURVE",
"974 260 OFFCURVE",
"966 248 CURVE SMOOTH",
"892 125 OFFCURVE",
"771 57 OFFCURVE",
"607 57 CURVE SMOOTH",
"378 57 OFFCURVE",
"196 260 OFFCURVE",
"196 492 CURVE SMOOTH"
);
},
{
closed = 1;
nodes = (
"196 799 OFFCURVE",
"335 1028 OFFCURVE",
"605 1028 CURVE SMOOTH",
"843 1028 OFFCURVE",
"990 848 OFFCURVE",
"990 623 CURVE SMOOTH",
"990 600 OFFCURVE",
"984 594 OFFCURVE",
"955 594 CURVE SMOOTH",
"198 594 LINE"
);
}
);
};
guideLines = (
{
angle = 88.4926;
position = "{246, 483}";
}
);
layerId = "91AB5BCA-6A50-42DA-B2F7-8181BF189245";
paths = (
{
closed = 1;
nodes = (
"1017 510 LINE",
"1017 567 LINE",
"1017 893 OFFCURVE",
"857 1079 OFFCURVE",
"587 1079 CURVE SMOOTH",
"298 1079 OFFCURVE",
"132 870 OFFCURVE",
"132 520 CURVE SMOOTH",
"132 174 OFFCURVE",
"323 -20 OFFCURVE",
"599 -20 CURVE SMOOTH",
"787 -20 OFFCURVE",
"945 68 OFFCURVE",
"1005 283 CURVE",
"919 283 LINE",
"873 141 OFFCURVE",
"765 57 OFFCURVE",
"599 57 CURVE SMOOTH",
"333 57 OFFCURVE",
"218 270 OFFCURVE",
"218 510 CURVE"
);
},
{
closed = 1;
nodes = (
"218 786 OFFCURVE",
"327 1001 OFFCURVE",
"585 1001 CURVE SMOOTH",
"822 1001 OFFCURVE",
"933 823 OFFCURVE",
"933 588 CURVE",
"220 588 LINE"
);
}
);
width = 1149;
}
);
leftKerningGroup = o;
leftMetricsKey = "=o*1.1";
rightKerningGroup = o;
rightMetricsKey = "=o*1.1";
unicode = 0065;
},
{
glyphname = f;
lastChange = "2019-05-24 23:44:44 +0000";
layers = (
{
background = {
paths = (
{
closed = 1;
nodes = (
"593 1085 LINE SMOOTH",
"577 1085 OFFCURVE",
"566 1092 OFFCURVE",
"566 1112 CURVE SMOOTH",
"566 1149 LINE SMOOTH",
"566 1206 OFFCURVE",
"611 1253 OFFCURVE",
"658 1253 CURVE SMOOTH",
"747 1253 LINE SMOOTH",
"771 1253 OFFCURVE",
"783 1272 OFFCURVE",
"783 1294 CURVE",
"781 1466 LINE",
"781 1499 OFFCURVE",
"761 1520 OFFCURVE",
"722 1520 CURVE SMOOTH",
"491 1520 LINE SMOOTH",
"292 1520 OFFCURVE",
"167 1409 OFFCURVE",
"167 1231 CURVE SMOOTH",
"167 1122 LINE SMOOTH",
"167 1096 OFFCURVE",
"161 1085 OFFCURVE",
"138 1085 CURVE SMOOTH",
"40 1085 LINE SMOOTH",
"5 1085 OFFCURVE",
"-9 1065 OFFCURVE",
"-9 1040 CURVE SMOOTH",
"-9 848 LINE SMOOTH",
"-9 819 OFFCURVE",
"7 809 OFFCURVE",
"36 809 CURVE SMOOTH",
"151 809 LINE SMOOTH",
"163 809 OFFCURVE",
"167 803 OFFCURVE",
"167 788 CURVE SMOOTH",
"167 41 LINE SMOOTH",
"167 14 OFFCURVE",
"181 0 OFFCURVE",
"204 0 CURVE SMOOTH",
"538 0 LINE SMOOTH",
"562 0 OFFCURVE",
"577 14 OFFCURVE",
"577 45 CURVE SMOOTH",
"577 784 LINE SMOOTH",
"577 801 OFFCURVE",
"587 809 OFFCURVE",
"601 809 CURVE SMOOTH",
"728 809 LINE SMOOTH",
"755 809 OFFCURVE",
"773 819 OFFCURVE",
"773 848 CURVE SMOOTH",
"773 1040 LINE SMOOTH",
"773 1065 OFFCURVE",
"757 1085 OFFCURVE",
"722 1085 CURVE SMOOTH"
);
}
);
};
layerId = "258ED206-D907-4350-8EBA-CBDDA1C16BF7";
leftMetricsKey = "=t";
rightMetricsKey = "=x";
paths = (
{
closed = 1;
nodes = (
"591 1059 LINE",
"591 1120 LINE SMOOTH",
"591 1198 OFFCURVE",
"613 1223 OFFCURVE",
"679 1223 CURVE SMOOTH",
"802 1223 LINE",
"800 1481 LINE",
"517 1481 LINE SMOOTH",
"323 1481 OFFCURVE",
"200 1374 OFFCURVE",
"200 1200 CURVE SMOOTH",
"200 1059 LINE",
"30 1059 LINE",
"30 788 LINE",
"200 788 LINE",
"200 0 LINE",
"599 0 LINE",
"599 788 LINE",
"792 788 LINE",
"792 1059 LINE"
);
}
);
width = 812;
},
{
background = {
paths = (
{
closed = 1;
nodes = (
"471 1085 LINE SMOOTH",
"461 1085 OFFCURVE",
"457 1090 OFFCURVE",
"457 1100 CURVE SMOOTH",
"457 1284 LINE SMOOTH",
"457 1389 OFFCURVE",
"483 1448 OFFCURVE",
"586 1448 CURVE SMOOTH",
"750 1448 LINE SMOOTH",
"760 1448 OFFCURVE",
"766 1452 OFFCURVE",
"766 1462 CURVE SMOOTH",
"766 1505 LINE SMOOTH",
"766 1516 OFFCURVE",
"762 1520 OFFCURVE",
"754 1520 CURVE SMOOTH",
"606 1520 LINE SMOOTH",
"442 1520 OFFCURVE",
"375 1434 OFFCURVE",
"375 1266 CURVE SMOOTH",
"375 1100 LINE SMOOTH",
"375 1090 OFFCURVE",
"371 1085 OFFCURVE",
"360 1085 CURVE SMOOTH",
"129 1085 LINE SMOOTH",
"121 1085 OFFCURVE",
"117 1081 OFFCURVE",
"117 1073 CURVE SMOOTH",
"117 1026 LINE SMOOTH",
"117 1018 OFFCURVE",
"121 1014 OFFCURVE",
"129 1014 CURVE SMOOTH",
"362 1014 LINE SMOOTH",
"371 1014 OFFCURVE",
"375 1008 OFFCURVE",
"375 999 CURVE SMOOTH",
"375 20 LINE SMOOTH",
"375 6 OFFCURVE",
"379 0 OFFCURVE",
"391 0 CURVE SMOOTH",
"438 0 LINE SMOOTH",
"451 0 OFFCURVE",
"457 6 OFFCURVE",
"457 23 CURVE SMOOTH",
"457 999 LINE SMOOTH",
"457 1010 OFFCURVE",
"461 1014 OFFCURVE",
"471 1014 CURVE SMOOTH",
"743 1014 LINE SMOOTH",
"752 1014 OFFCURVE",
"756 1018 OFFCURVE",
"756 1026 CURVE SMOOTH",
"756 1073 LINE SMOOTH",
"756 1081 OFFCURVE",
"752 1085 OFFCURVE",
"745 1085 CURVE SMOOTH"
);
}
);
};
layerId = "91AB5BCA-6A50-42DA-B2F7-8181BF189245";
paths = (
{
closed = 1;
nodes = (
"444 1059 LINE",
"444 1251 LINE SMOOTH",
"444 1354 OFFCURVE",
"471 1411 OFFCURVE",
"569 1411 CURVE SMOOTH",
"745 1411 LINE",
"745 1481 LINE",
"590 1481 LINE SMOOTH",
"430 1481 OFFCURVE",
"365 1399 OFFCURVE",
"365 1235 CURVE SMOOTH",
"365 1059 LINE",
"113 1059 LINE",
"113 989 LINE",
"365 989 LINE",
"365 0 LINE",
"444 0 LINE",
"444 989 LINE",
"735 989 LINE",
"735 1059 LINE"
);
}
);
width = 843;
}
);
leftKerningGroup = f;
leftMetricsKey = "=t*.75";
rightKerningGroup = f;
rightMetricsKey = "=t*.75";
unicode = 0066;
},
{
glyphname = g;
lastChange = "2019-05-24 23:44:38 +0000";
layers = (
{
anchors = (
{
name = top;
position = "{630, 1059}";
}
);
background = {
anchors = (
{
name = top;
position = "{607, 1085}";
}
);
paths = (
{
closed = 1;
nodes = (
"1181 1151 OFFCURVE",
"1066 1094 OFFCURVE",
"1011 1016 CURVE SMOOTH",
"996 995 OFFCURVE",
"968 993 OFFCURVE",
"947 1010 CURVE SMOOTH",
"880 1063 OFFCURVE",
"761 1102 OFFCURVE",
"605 1102 CURVE SMOOTH",
"239 1102 OFFCURVE",
"52 961 OFFCURVE",
"52 764 CURVE SMOOTH",
"52 639 OFFCURVE",
"130 543 OFFCURVE",
"265 485 CURVE SMOOTH",
"286 473 OFFCURVE",
"271 467 OFFCURVE",
"259 461 CURVE SMOOTH",
"148 414 OFFCURVE",
"36 346 OFFCURVE",
"36 250 CURVE SMOOTH",
"36 166 OFFCURVE",
"99 115 OFFCURVE",
"171 80 CURVE SMOOTH",
"187 72 OFFCURVE",
"191 63 OFFCURVE",
"171 57 CURVE SMOOTH",
"62 27 OFFCURVE",
"-28 -16 OFFCURVE",
"-28 -109 CURVE SMOOTH",
"-28 -281 OFFCURVE",
"181 -358 OFFCURVE",
"609 -358 CURVE SMOOTH",
"1021 -358 OFFCURVE",
"1230 -203 OFFCURVE",
"1230 6 CURVE SMOOTH",
"1230 174 OFFCURVE",
"1095 293 OFFCURVE",
"792 311 CURVE SMOOTH",
"480 330 LINE SMOOTH",
"421 334 OFFCURVE",
"390 342 OFFCURVE",
"390 373 CURVE SMOOTH",
"390 406 OFFCURVE",
"445 428 OFFCURVE",
"581 428 CURVE SMOOTH",
"925 428 OFFCURVE",
"1107 582 OFFCURVE",
"1107 766 CURVE SMOOTH",
"1107 786 OFFCURVE",
"1103 809 OFFCURVE",
"1097 829 CURVE SMOOTH",
"1088 858 OFFCURVE",
"1099 877 OFFCURVE",
"1138 877 CURVE SMOOTH",
"1162 877 OFFCURVE",
"1201 870 OFFCURVE",
"1228 862 CURVE SMOOTH",
"1258 852 OFFCURVE",
"1281 868 OFFCURVE",
"1281 915 CURVE SMOOTH",
"1281 1100 LINE SMOOTH",
"1281 1137 OFFCURVE",
"1263 1151 OFFCURVE",
"1240 1151 CURVE SMOOTH"
);
},
{
closed = 1;
nodes = (
"474 614 OFFCURVE",
"417 684 OFFCURVE",
"417 758 CURVE SMOOTH",
"417 842 OFFCURVE",
"474 911 OFFCURVE",
"576 911 CURVE SMOOTH",
"691 911 OFFCURVE",
"736 842 OFFCURVE",
"736 758 CURVE SMOOTH",
"736 686 OFFCURVE",
"691 614 OFFCURVE",
"576 614 CURVE SMOOTH"
);
},
{
closed = 1;
nodes = (
"828 0 OFFCURVE",
"875 -33 OFFCURVE",
"875 -72 CURVE SMOOTH",
"875 -131 OFFCURVE",
"789 -176 OFFCURVE",
"630 -176 CURVE SMOOTH",
"374 -176 OFFCURVE",
"302 -131 OFFCURVE",
"302 -55 CURVE SMOOTH",
"302 -12 OFFCURVE",
"355 20 OFFCURVE",
"443 16 CURVE SMOOTH",
"740 4 LINE SMOOTH"
);
}
);
};
layerId = "258ED206-D907-4350-8EBA-CBDDA1C16BF7";
paths = (
{
closed = 1;
nodes = (
"1033 -350 OFFCURVE",
"1236 -199 OFFCURVE",
"1236 6 CURVE SMOOTH",
"1236 170 OFFCURVE",
"1107 303 OFFCURVE",
"814 324 CURVE SMOOTH",
"724 330 OFFCURVE",
"640 334 OFFCURVE",
"603 336 CURVE SMOOTH",
"499 342 OFFCURVE",
"433 342 OFFCURVE",
"433 371 CURVE",
"433 381 OFFCURVE",
"441 385 OFFCURVE",
"462 389 CURVE",
"497 385 OFFCURVE",
"570 383 OFFCURVE",
"603 383 CURVE SMOOTH",
"939 383 OFFCURVE",
"1117 567 OFFCURVE",
"1117 748 CURVE SMOOTH",
"1117 760 OFFCURVE",
"1113 799 OFFCURVE",
"1105 829 CURVE",
"1285 854 LINE",
"1287 1137 LINE",
"1170 1087 OFFCURVE",
"1019 1030 OFFCURVE",
"939 999 CURVE",
"861 1040 OFFCURVE",
"779 1075 OFFCURVE",
"628 1075 CURVE SMOOTH",
"339 1075 OFFCURVE",
"89 958 OFFCURVE",
"89 745 CURVE SMOOTH",
"89 633 OFFCURVE",
"163 498 OFFCURVE",
"316 430 CURVE",
"151 408 OFFCURVE",
"73 328 OFFCURVE",
"73 244 CURVE SMOOTH",
"73 127 OFFCURVE",
"191 82 OFFCURVE",
"222 66 CURVE",
"206 61 OFFCURVE",
"11 31 OFFCURVE",
"11 -106 CURVE SMOOTH",
"11 -242 OFFCURVE",
"214 -350 OFFCURVE",
"632 -350 CURVE SMOOTH"
);
},
{
closed = 1;
nodes = (
"490 -141 OFFCURVE",
"398 -127 OFFCURVE",
"398 -59 CURVE SMOOTH",
"398 -25 OFFCURVE",
"425 23 OFFCURVE",
"536 16 CURVE SMOOTH",
"728 4 LINE SMOOTH",
"810 -2 OFFCURVE",
"859 -31 OFFCURVE",
"859 -76 CURVE SMOOTH",
"859 -115 OFFCURVE",
"832 -141 OFFCURVE",
"693 -141 CURVE SMOOTH"
);
},
{
closed = 1;
nodes = (
"540 592 OFFCURVE",
"488 651 OFFCURVE",
"488 731 CURVE SMOOTH",
"488 811 OFFCURVE",
"540 881 OFFCURVE",
"615 881 CURVE SMOOTH",
"691 881 OFFCURVE",
"742 811 OFFCURVE",
"742 731 CURVE SMOOTH",
"742 651 OFFCURVE",
"691 592 OFFCURVE",
"615 592 CURVE SMOOTH"
);
}
);
width = 1297;
},
{
anchors = (
{
name = top;
position = "{595, 1059}";
}
);
background = {
anchors = (
{
name = top;
position = "{611, 1085}";
}
);
guideLines = (
{
angle = 90;
position = "{298, 374}";
showMeasurement = 1;
}
);
paths = (
{
closed = 1;
nodes = (
"1050 1085 OFFCURVE",
"988 1038 OFFCURVE",
"947 1008 CURVE SMOOTH",
"933 997 OFFCURVE",
"925 997 OFFCURVE",
"910 1010 CURVE SMOOTH",
"841 1069 OFFCURVE",
"753 1102 OFFCURVE",
"618 1102 CURVE SMOOTH",
"347 1102 OFFCURVE",
"187 973 OFFCURVE",
"187 756 CURVE SMOOTH",
"187 629 OFFCURVE",
"237 545 OFFCURVE",
"349 481 CURVE SMOOTH",
"364 473 OFFCURVE",
"368 461 OFFCURVE",
"351 457 CURVE SMOOTH",
"249 424 OFFCURVE",
"214 371 OFFCURVE",
"214 326 CURVE SMOOTH",
"214 281 OFFCURVE",
"237 248 OFFCURVE",
"292 223 CURVE SMOOTH",
"306 217 OFFCURVE",
"306 209 OFFCURVE",
"292 201 CURVE SMOOTH",
"163 129 OFFCURVE",
"103 43 OFFCURVE",
"103 -55 CURVE SMOOTH",
"103 -246 OFFCURVE",
"280 -358 OFFCURVE",
"595 -358 CURVE SMOOTH",
"904 -358 OFFCURVE",
"1084 -244 OFFCURVE",
"1084 -39 CURVE SMOOTH",
"1084 123 OFFCURVE",
"988 225 OFFCURVE",
"769 238 CURVE SMOOTH",
"523 252 LINE SMOOTH",
"366 260 OFFCURVE",
"300 279 OFFCURVE",
"300 328 CURVE SMOOTH",
"300 377 OFFCURVE",
"368 428 OFFCURVE",
"603 428 CURVE SMOOTH",
"892 428 OFFCURVE",
"1017 573 OFFCURVE",
"1017 756 CURVE SMOOTH",
"1017 842 OFFCURVE",
"988 889 OFFCURVE",
"974 924 CURVE SMOOTH",
"968 938 OFFCURVE",
"978 950 OFFCURVE",
"1015 971 CURVE SMOOTH",
"1048 989 OFFCURVE",
"1074 997 OFFCURVE",
"1127 999 CURVE SMOOTH",
"1156 1001 OFFCURVE",
"1162 1014 OFFCURVE",
"1162 1032 CURVE SMOOTH",
"1162 1059 LINE SMOOTH",
"1162 1077 OFFCURVE",
"1154 1085 OFFCURVE",
"1123 1085 CURVE SMOOTH"
);
},
{
closed = 1;
nodes = (
"390 506 OFFCURVE",
"269 594 OFFCURVE",
"269 760 CURVE SMOOTH",
"269 928 OFFCURVE",
"392 1024 OFFCURVE",
"605 1024 CURVE SMOOTH",
"822 1024 OFFCURVE",
"935 930 OFFCURVE",
"935 760 CURVE SMOOTH",
"935 592 OFFCURVE",
"826 506 OFFCURVE",
"605 506 CURVE SMOOTH"
);
},
{
closed = 1;
nodes = (
"939 143 OFFCURVE",
"998 74 OFFCURVE",
"998 -39 CURVE SMOOTH",
"998 -207 OFFCURVE",
"863 -281 OFFCURVE",
"613 -281 CURVE SMOOTH",
"345 -281 OFFCURVE",
"190 -197 OFFCURVE",
"190 -47 CURVE SMOOTH",
"190 88 OFFCURVE",
"341 180 OFFCURVE",
"407 176 CURVE SMOOTH",
"767 154 LINE SMOOTH"
);
}
);
};
guideLines = (
{
angle = 90;
position = "{338, 347}";
showMeasurement = 1;
}
);
layerId = "91AB5BCA-6A50-42DA-B2F7-8181BF189245";
rightMetricsKey = "=x*1.2";
paths = (
{
closed = 1;
nodes = (
"880 -350 OFFCURVE",
"1056 -238 OFFCURVE",
"1056 -39 CURVE SMOOTH",
"1056 121 OFFCURVE",
"962 219 OFFCURVE",
"749 231 CURVE SMOOTH",
"648 238 OFFCURVE",
"570 242 OFFCURVE",
"509 246 CURVE SMOOTH",
"339 258 OFFCURVE",
"290 274 OFFCURVE",
"290 319 CURVE SMOOTH",
"290 365 OFFCURVE",
"353 414 OFFCURVE",
"564 418 CURVE SMOOTH",
"572 418 OFFCURVE",
"579 418 OFFCURVE",
"587 418 CURVE SMOOTH",
"867 418 OFFCURVE",
"990 559 OFFCURVE",
"990 737 CURVE SMOOTH",
"990 791 OFFCURVE",
"966 872 OFFCURVE",
"943 913 CURVE",
"1132 954 LINE",
"1132 1073 LINE",
"1105 1063 OFFCURVE",
"929 987 OFFCURVE",
"902 975 CURVE",
"820 1042 OFFCURVE",
"732 1075 OFFCURVE",
"601 1075 CURVE SMOOTH",
"337 1075 OFFCURVE",
"181 948 OFFCURVE",
"181 737 CURVE SMOOTH",
"181 604 OFFCURVE",
"230 526 OFFCURVE",
"364 455 CURVE",
"261 424 OFFCURVE",
"206 375 OFFCURVE",
"206 317 CURVE SMOOTH",
"206 254 OFFCURVE",
"255 231 OFFCURVE",
"294 207 CURVE",
"263 180 OFFCURVE",
"99 106 OFFCURVE",
"99 -53 CURVE SMOOTH",
"99 -240 OFFCURVE",
"271 -350 OFFCURVE",
"579 -350 CURVE SMOOTH"
);
},
{
closed = 1;
nodes = (
"335 -274 OFFCURVE",
"183 -193 OFFCURVE",
"183 -45 CURVE SMOOTH",
"183 86 OFFCURVE",
"331 176 OFFCURVE",
"394 172 CURVE SMOOTH",
"747 150 LINE SMOOTH",
"915 139 OFFCURVE",
"972 72 OFFCURVE",
"972 -39 CURVE SMOOTH",
"972 -201 OFFCURVE",
"800 -274 OFFCURVE",
"597 -274 CURVE SMOOTH"
);
},
{
closed = 1;
nodes = (
"378 494 OFFCURVE",
"261 580 OFFCURVE",
"261 741 CURVE SMOOTH",
"261 905 OFFCURVE",
"380 999 OFFCURVE",
"589 999 CURVE SMOOTH",
"781 999 OFFCURVE",
"910 918 OFFCURVE",
"910 741 CURVE SMOOTH",
"910 578 OFFCURVE",
"804 494 OFFCURVE",
"589 494 CURVE SMOOTH"
);
}
);
width = 1240;
}
);
leftKerningGroup = g;
leftMetricsKey = "=x*1.1";
rightKerningGroup = g;
rightMetricsKey = "=x";
unicode = 0067;
},
{
glyphname = gcommaaccent;
lastChange = "2019-05-24 23:44:44 +0000";
layers = (
{
anchors = (
{
name = _top;
position = "{567, 1098}";
}
);
background = {
anchors = (
{
name = _top;
position = "{543, 1126}";
}
);
components = (
{
name = g;
transform = "{1, 0, 0, 1, -38, 0}";
}
);
paths = (
{
closed = 1;
nodes = (
"639 1227 LINE SMOOTH",
"659 1227 OFFCURVE",
"676 1239 OFFCURVE",
"676 1268 CURVE SMOOTH",
"676 1393 LINE SMOOTH",
"676 1425 OFFCURVE",
"664 1438 OFFCURVE",
"629 1438 CURVE SMOOTH",
"610 1438 LINE SMOOTH",
"582 1438 OFFCURVE",
"569 1468 OFFCURVE",
"592 1497 CURVE SMOOTH",
"659 1589 LINE SMOOTH",
"672 1606 OFFCURVE",
"657 1630 OFFCURVE",
"635 1630 CURVE SMOOTH",
"598 1630 LINE SMOOTH",
"561 1630 OFFCURVE",
"547 1624 OFFCURVE",
"530 1602 CURVE SMOOTH",
"420 1464 LINE SMOOTH",
"418 1458 OFFCURVE",
"412 1448 OFFCURVE",
"412 1438 CURVE SMOOTH",
"412 1260 LINE SMOOTH",
"412 1239 OFFCURVE",
"424 1227 OFFCURVE",
"446 1227 CURVE SMOOTH"
);
}
);
};
components = (
{
name = g;
}
);
layerId = "258ED206-D907-4350-8EBA-CBDDA1C16BF7";
paths = (
{
closed = 1;
nodes = (
"696 1196 LINE",
"696 1401 LINE",
"571 1401 LINE",
"711 1589 LINE",
"575 1589 LINE",
"438 1417 LINE",
"438 1196 LINE"
);
}
);
width = 1297;
},
{
anchors = (
{
name = _top;
position = "{571, 1098}";
}
);
background = {
anchors = (
{
name = _top;
position = "{588, 1126}";
}
);
components = (
{
name = g;
transform = "{1, 0, 0, 1, 4, 0}";
}
);
paths = (
{
closed = 1;
nodes = (
"627 1294 LINE SMOOTH",
"635 1294 OFFCURVE",
"641 1298 OFFCURVE",
"641 1311 CURVE SMOOTH",
"641 1446 LINE SMOOTH",
"641 1460 OFFCURVE",
"637 1464 OFFCURVE",
"625 1464 CURVE SMOOTH",
"608 1464 LINE SMOOTH",
"598 1464 OFFCURVE",
"594 1470 OFFCURVE",
"600 1483 CURVE SMOOTH",
"651 1593 LINE SMOOTH",
"655 1602 OFFCURVE",
"651 1610 OFFCURVE",
"643 1610 CURVE SMOOTH",
"616 1610 LINE SMOOTH",
"600 1610 OFFCURVE",
"594 1608 OFFCURVE",
"588 1597 CURVE SMOOTH",
"524 1477 LINE SMOOTH",
"524 1475 OFFCURVE",
"522 1468 OFFCURVE",
"522 1464 CURVE SMOOTH",
"522 1309 LINE SMOOTH",
"522 1298 OFFCURVE",
"526 1294 OFFCURVE",
"535 1294 CURVE SMOOTH"
);
}
);
};
components = (
{
name = g;
}
);
layerId = "91AB5BCA-6A50-42DA-B2F7-8181BF189245";
paths = (
{
closed = 1;
nodes = (
"623 1262 LINE",
"623 1427 LINE",
"575 1427 LINE",
"641 1569 LINE",
"578 1569 LINE",
"508 1436 LINE",
"508 1262 LINE"
);
}
);
width = 1240;
}
);
leftKerningGroup = g;
leftMetricsKey = g;
rightKerningGroup = g;
rightMetricsKey = g;
unicode = 0123;
},
{
glyphname = h;
lastChange = "2019-06-04 22:22:41 +0000";
layers = (
{
anchors = (
{
name = bottom;
position = "{626, 0}";
},
{
name = top;
position = "{296, 1481}";
}
);
background = {
anchors = (
{
name = bottom;
position = "{603, 0}";
},
{
name = top;
position = "{888, 1085}";
}
);
paths = (
{
closed = 1;
nodes = (
"405 0 LINE SMOOTH",
"454 0 OFFCURVE",
"472 16 OFFCURVE",
"472 59 CURVE SMOOTH",
"472 715 LINE",
"511 784 OFFCURVE",
"560 817 OFFCURVE",
"624 817 CURVE SMOOTH",
"689 817 OFFCURVE",
"730 780 OFFCURVE",
"730 719 CURVE SMOOTH",
"730 51 LINE SMOOTH",
"730 12 OFFCURVE",
"743 0 OFFCURVE",
"778 0 CURVE SMOOTH",
"1079 0 LINE SMOOTH",
"1122 0 OFFCURVE",
"1140 20 OFFCURVE",
"1140 61 CURVE SMOOTH",
"1140 768 LINE SMOOTH",
"1140 985 OFFCURVE",
"1023 1106 OFFCURVE",
"821 1106 CURVE SMOOTH",
"712 1106 OFFCURVE",
"610 1071 OFFCURVE",
"493 958 CURVE SMOOTH",
"476 944 OFFCURVE",
"466 950 OFFCURVE",
"466 967 CURVE SMOOTH",
"466 1477 LINE SMOOTH",
"466 1503 OFFCURVE",
"454 1520 OFFCURVE",
"429 1520 CURVE SMOOTH",
"102 1520 LINE SMOOTH",
"77 1520 OFFCURVE",
"63 1501 OFFCURVE",
"63 1473 CURVE SMOOTH",
"63 51 LINE SMOOTH",
"63 14 OFFCURVE",
"77 0 OFFCURVE",
"116 0 CURVE SMOOTH"
);
}
);
};
layerId = "258ED206-D907-4350-8EBA-CBDDA1C16BF7";
paths = (
{
closed = 1;
nodes = (
"499 0 LINE",
"499 648 LINE",
"499 718 OFFCURVE",
"565 758 OFFCURVE",
"624 758 CURVE SMOOTH",
"683 758 OFFCURVE",
"749 723 OFFCURVE",
"749 653 CURVE SMOOTH",
"749 0 LINE",
"1148 0 LINE",
"1148 705 LINE SMOOTH",
"1148 936 OFFCURVE",
"976 1059 OFFCURVE",
"778 1059 CURVE SMOOTH",
"612 1059 OFFCURVE",
"548 969 OFFCURVE",
"499 908 CURVE",
"499 1522 LINE",
"100 1522 LINE",
"100 0 LINE"
);
}
);
width = 1238;
},
{
anchors = (
{
name = bottom;
position = "{612, 0}";
},
{
name = top;
position = "{227, 1481}";
}
);
background = {
anchors = (
{
name = bottom;
position = "{630, 0}";
},
{
name = top;
position = "{675, 1085}";
}
);
paths = (
{
closed = 1;
nodes = (
"260 0 LINE SMOOTH",
"272 0 OFFCURVE",
"278 6 OFFCURVE",
"278 18 CURVE SMOOTH",
"278 840 LINE",
"442 965 OFFCURVE",
"538 1028 OFFCURVE",
"684 1028 CURVE SMOOTH",
"862 1028 OFFCURVE",
"936 932 OFFCURVE",
"936 772 CURVE SMOOTH",
"936 18 LINE SMOOTH",
"936 6 OFFCURVE",
"942 0 OFFCURVE",
"954 0 CURVE SMOOTH",
"999 0 LINE SMOOTH",
"1011 0 OFFCURVE",
"1017 6 OFFCURVE",
"1017 20 CURVE SMOOTH",
"1017 805 LINE SMOOTH",
"1017 983 OFFCURVE",
"905 1106 OFFCURVE",
"686 1106 CURVE SMOOTH",
"536 1106 OFFCURVE",
"444 1047 OFFCURVE",
"288 936 CURVE SMOOTH",
"276 926 OFFCURVE",
"272 928 OFFCURVE",
"272 942 CURVE SMOOTH",
"272 1503 LINE SMOOTH",
"272 1516 OFFCURVE",
"268 1520 OFFCURVE",
"256 1520 CURVE SMOOTH",
"213 1520 LINE SMOOTH",
"200 1520 OFFCURVE",
"196 1513 OFFCURVE",
"196 1501 CURVE SMOOTH",
"196 18 LINE SMOOTH",
"196 6 OFFCURVE",
"202 0 OFFCURVE",
"215 0 CURVE SMOOTH"
);
}
);
};
layerId = "91AB5BCA-6A50-42DA-B2F7-8181BF189245";
paths = (
{
closed = 1;
nodes = (
"270 0 LINE",
"270 737 LINE",
"270 918 OFFCURVE",
"432 1001 OFFCURVE",
"620 1001 CURVE SMOOTH",
"800 1001 OFFCURVE",
"911 909 OFFCURVE",
"911 754 CURVE SMOOTH",
"911 0 LINE",
"991 0 LINE",
"991 784 LINE SMOOTH",
"991 958 OFFCURVE",
"833 1079 OFFCURVE",
"622 1079 CURVE SMOOTH",
"450 1079 OFFCURVE",
"319 1001 OFFCURVE",
"264 901 CURVE",
"264 1522 LINE",
"190 1522 LINE",
"190 0 LINE"
);
}
);
width = 1161;
}
);
leftKerningGroup = n;
leftMetricsKey = "=n";
rightKerningGroup = n;
rightMetricsKey = n;
unicode = 0068;
},
{
glyphname = hbar;
lastChange = "2019-05-24 23:44:44 +0000";
layers = (
{
background = {
components = (
{
name = h;
transform = "{1, 0, 0, 1, 1, 0}";
}
);
paths = (
{
closed = 1;
nodes = (
"762 1393 OFFCURVE",
"750 1407 OFFCURVE",
"729 1407 CURVE SMOOTH",
"35 1407 LINE SMOOTH",
"14 1407 OFFCURVE",
"2 1393 OFFCURVE",
"2 1366 CURVE SMOOTH",
"2 1233 LINE SMOOTH",
"2 1202 OFFCURVE",
"12 1188 OFFCURVE",
"47 1188 CURVE SMOOTH",
"702 1188 LINE SMOOTH",
"743 1188 OFFCURVE",
"762 1202 OFFCURVE",
"762 1237 CURVE SMOOTH",
"762 1370 LINE SMOOTH"
);
}
);
};
components = (
{
name = h;
transform = "{1, 0, 0, 1, 80, 0}";
}
);
layerId = "258ED206-D907-4350-8EBA-CBDDA1C16BF7";
paths = (
{
closed = 1;
nodes = (
"41 1372 LINE",
"41 1159 LINE",
"780 1159 LINE",
"780 1372 LINE"
);
}
);
width = 1318;
},
{
background = {
components = (
{
name = h;
transform = "{1, 0, 0, 1, 2, 0}";
}
);
paths = (
{
closed = 1;
nodes = (
"637 1352 OFFCURVE",
"633 1356 OFFCURVE",
"627 1356 CURVE SMOOTH",
"55 1356 LINE SMOOTH",
"49 1356 OFFCURVE",
"45 1352 OFFCURVE",
"45 1341 CURVE SMOOTH",
"45 1300 LINE SMOOTH",
"45 1288 OFFCURVE",
"47 1284 OFFCURVE",
"59 1284 CURVE SMOOTH",
"616 1284 LINE SMOOTH",
"631 1284 OFFCURVE",
"637 1288 OFFCURVE",
"637 1300 CURVE SMOOTH",
"637 1343 LINE SMOOTH"
);
}
);
};
components = (
{
name = h;
transform = "{1, 0, 0, 1, -4, 0}";
}
);
layerId = "91AB5BCA-6A50-42DA-B2F7-8181BF189245";
paths = (
{
closed = 1;
nodes = (
"41 1321 LINE",
"41 1251 LINE",
"618 1251 LINE",
"618 1321 LINE"
);
}
);
width = 1157;
}
);
leftKerningGroup = n;
rightKerningGroup = n;
rightMetricsKey = h;
unicode = 0127;
},
{
glyphname = i;
lastChange = "2019-06-04 21:31:28 +0000";
layers = (
{
anchors = (
{
name = bottom;
position = "{310, 0}";
}
);
background = {
paths = (
{
closed = 1;
nodes = (
"482 1069 OFFCURVE",
"468 1085 OFFCURVE",
"446 1085 CURVE SMOOTH",
"112 1085 LINE SMOOTH",
"87 1085 OFFCURVE",
"73 1069 OFFCURVE",
"73 1038 CURVE SMOOTH",
"73 51 LINE SMOOTH",
"73 16 OFFCURVE",
"85 0 OFFCURVE",
"126 0 CURVE SMOOTH",
"415 0 LINE SMOOTH",
"462 0 OFFCURVE",
"482 16 OFFCURVE",
"482 59 CURVE SMOOTH",
"482 1044 LINE SMOOTH"
);
},
{
closed = 1;
nodes = (
"482 1503 OFFCURVE",
"468 1520 OFFCURVE",
"446 1520 CURVE SMOOTH",
"112 1520 LINE SMOOTH",
"87 1520 OFFCURVE",
"73 1503 OFFCURVE",
"73 1473 CURVE SMOOTH",
"73 1229 LINE SMOOTH",
"73 1194 OFFCURVE",
"85 1176 OFFCURVE",
"126 1176 CURVE SMOOTH",
"415 1176 LINE SMOOTH",
"462 1176 OFFCURVE",
"482 1194 OFFCURVE",
"482 1235 CURVE SMOOTH",
"482 1477 LINE SMOOTH"
);
}
);
};
layerId = "258ED206-D907-4350-8EBA-CBDDA1C16BF7";
paths = (
{
closed = 1;
nodes = (
"110 1059 LINE",
"110 0 LINE",
"489 0 LINE",
"489 1059 LINE"
);
},
{
closed = 1;
nodes = (
"110 1481 LINE",
"110 1145 LINE",
"489 1145 LINE",
"489 1481 LINE"
);
}
);
width = 599;
},
{
anchors = (
{
name = bottom;
position = "{258, 0}";
}
);
background = {
paths = (
{
closed = 1;
nodes = (
"307 1081 OFFCURVE",
"303 1085 OFFCURVE",
"289 1085 CURVE SMOOTH",
"244 1085 LINE SMOOTH",
"230 1085 OFFCURVE",
"225 1081 OFFCURVE",
"225 1065 CURVE SMOOTH",
"225 20 LINE SMOOTH",
"225 4 OFFCURVE",
"230 0 OFFCURVE",
"248 0 CURVE SMOOTH",
"283 0 LINE SMOOTH",
"303 0 OFFCURVE",
"307 4 OFFCURVE",
"307 25 CURVE SMOOTH",
"307 1065 LINE SMOOTH"
);
},
{
closed = 1;
nodes = (
"318 1509 OFFCURVE",
"307 1520 OFFCURVE",
"293 1520 CURVE SMOOTH",
"240 1520 LINE SMOOTH",
"225 1520 OFFCURVE",
"215 1509 OFFCURVE",
"215 1493 CURVE SMOOTH",
"215 1348 LINE SMOOTH",
"215 1331 OFFCURVE",
"219 1319 OFFCURVE",
"238 1319 CURVE SMOOTH",
"293 1319 LINE SMOOTH",
"313 1319 OFFCURVE",
"318 1331 OFFCURVE",
"318 1352 CURVE SMOOTH",
"318 1493 LINE SMOOTH"
);
}
);
};
layerId = "91AB5BCA-6A50-42DA-B2F7-8181BF189245";
paths = (
{
closed = 1;
nodes = (
"219 1059 LINE",
"219 0 LINE",
"299 0 LINE",
"299 1059 LINE"
);
},
{
closed = 1;
nodes = (
"209 1479 LINE",
"209 1356 LINE",
"307 1356 LINE",
"307 1479 LINE"
);
}
);
width = 516;
}
);
leftKerningGroup = n;
leftMetricsKey = "=n*1.1";
rightKerningGroup = u;
rightMetricsKey = "=|n*1.1";
unicode = 0069;
},
{
glyphname = idotless;
lastChange = "2019-05-24 23:44:44 +0000";
layers = (
{
anchors = (
{
name = ogonek;
position = "{452, 18}";
},
{
name = top;
position = "{306, 1059}";
}
);
background = {
anchors = (
{
name = ogonek;
position = "{425, 18}";
},
{
name = top;
position = "{286, 1085}";
}
);
paths = (
{
closed = 1;
nodes = (
"482 1069 OFFCURVE",
"468 1085 OFFCURVE",
"446 1085 CURVE SMOOTH",
"112 1085 LINE SMOOTH",
"87 1085 OFFCURVE",
"73 1069 OFFCURVE",
"73 1038 CURVE SMOOTH",
"73 51 LINE SMOOTH",
"73 16 OFFCURVE",
"85 0 OFFCURVE",
"126 0 CURVE SMOOTH",
"415 0 LINE SMOOTH",
"462 0 OFFCURVE",
"482 16 OFFCURVE",
"482 59 CURVE SMOOTH",
"482 1044 LINE SMOOTH"
);
}
);
};
layerId = "258ED206-D907-4350-8EBA-CBDDA1C16BF7";
paths = (
{
closed = 1;
nodes = (
"110 1059 LINE",
"110 0 LINE",
"489 0 LINE",
"489 1059 LINE"
);
}
);
width = 599;
},
{
anchors = (
{
name = ogonek;
position = "{273, 27}";
},
{
name = top;
position = "{248, 1059}";
}
);
background = {
anchors = (
{
name = ogonek;
position = "{281, 27}";
},
{
name = top;
position = "{256, 1085}";
}
);
paths = (
{
closed = 1;
nodes = (
"297 1081 OFFCURVE",
"293 1085 OFFCURVE",
"279 1085 CURVE SMOOTH",
"234 1085 LINE SMOOTH",
"219 1085 OFFCURVE",
"215 1081 OFFCURVE",
"215 1065 CURVE SMOOTH",
"215 20 LINE SMOOTH",
"215 4 OFFCURVE",
"219 0 OFFCURVE",
"238 0 CURVE SMOOTH",
"273 0 LINE SMOOTH",
"293 0 OFFCURVE",
"297 4 OFFCURVE",
"297 25 CURVE SMOOTH",
"297 1065 LINE SMOOTH"
);
}
);
};
layerId = "91AB5BCA-6A50-42DA-B2F7-8181BF189245";
paths = (
{
closed = 1;
nodes = (
"209 1059 LINE",
"209 0 LINE",
"289 0 LINE",
"289 1059 LINE"
);
}
);
width = 498;
}
);
leftKerningGroup = n;
leftMetricsKey = i;
rightKerningGroup = u;
rightMetricsKey = i;
unicode = 0131;
},
{
glyphname = j;
lastChange = "2019-05-24 23:44:27 +0000";
layers = (
{
background = {
paths = (
{
closed = 1;
nodes = (
"513 1044 LINE SMOOTH",
"513 1069 OFFCURVE",
"500 1085 OFFCURVE",
"476 1085 CURVE SMOOTH",
"144 1085 LINE SMOOTH",
"120 1085 OFFCURVE",
"103 1069 OFFCURVE",
"103 1038 CURVE SMOOTH",
"103 74 LINE SMOOTH",
"103 4 OFFCURVE",
"81 -12 OFFCURVE",
"54 -20 CURVE SMOOTH",
"-18 -33 LINE SMOOTH",
"-44 -39 OFFCURVE",
"-59 -66 OFFCURVE",
"-59 -88 CURVE SMOOTH",
"-57 -297 LINE SMOOTH",
"-57 -340 OFFCURVE",
"-32 -348 OFFCURVE",
"83 -348 CURVE SMOOTH",
"373 -348 OFFCURVE",
"513 -211 OFFCURVE",
"513 59 CURVE SMOOTH"
);
},
{
closed = 1;
nodes = (
"513 1503 OFFCURVE",
"500 1520 OFFCURVE",
"476 1520 CURVE SMOOTH",
"144 1520 LINE SMOOTH",
"120 1520 OFFCURVE",
"103 1503 OFFCURVE",
"103 1473 CURVE SMOOTH",
"103 1229 LINE SMOOTH",
"103 1194 OFFCURVE",
"117 1176 OFFCURVE",
"158 1176 CURVE SMOOTH",
"447 1176 LINE SMOOTH",
"447 1176 OFFCURVE",
"513 1194 OFFCURVE",
"513 1235 CURVE SMOOTH",
"513 1477 LINE SMOOTH"
);
}
);
};
guideLines = (
{
angle = 90;
position = "{525, 545}";
},
{
position = "{34, 737}";
showMeasurement = 1;
}
);
layerId = "258ED206-D907-4350-8EBA-CBDDA1C16BF7";
paths = (
{
closed = 1;
nodes = (
"537 1059 LINE",
"138 1059 LINE",
"138 57 LINE",
"138 14 OFFCURVE",
"117 -12 OFFCURVE",
"42 -29 CURVE",
"-20 -39 LINE",
"-18 -305 LINE",
"-18 -305 OFFCURVE",
"13 -340 OFFCURVE",
"120 -340 CURVE",
"402 -340 OFFCURVE",
"537 -205 OFFCURVE",
"537 57 CURVE SMOOTH"
);
},
{
closed = 1;
nodes = (
"138 1481 LINE",
"138 1145 LINE",
"537 1145 LINE",
"537 1481 LINE"
);
}
);
width = 637;
},
{
background = {
paths = (
{
closed = 1;
nodes = (
"294 1065 LINE SMOOTH",
"294 1079 OFFCURVE",
"290 1085 OFFCURVE",
"278 1085 CURVE SMOOTH",
"233 1085 LINE SMOOTH",
"218 1085 OFFCURVE",
"212 1079 OFFCURVE",
"212 1065 CURVE SMOOTH",
"212 -94 LINE SMOOTH",
"212 -225 OFFCURVE",
"169 -270 OFFCURVE",
"61 -272 CURVE SMOOTH",
"-58 -274 LINE SMOOTH",
"-66 -274 OFFCURVE",
"-70 -279 OFFCURVE",
"-70 -287 CURVE SMOOTH",
"-70 -330 LINE SMOOTH",
"-70 -346 OFFCURVE",
"-58 -348 OFFCURVE",
"63 -348 CURVE SMOOTH",
"249 -348 OFFCURVE",
"294 -272 OFFCURVE",
"294 -104 CURVE SMOOTH"
);
},
{
closed = 1;
nodes = (
"304 1509 OFFCURVE",
"294 1520 OFFCURVE",
"280 1520 CURVE SMOOTH",
"227 1520 LINE SMOOTH",
"212 1520 OFFCURVE",
"202 1509 OFFCURVE",
"202 1493 CURVE SMOOTH",
"202 1348 LINE SMOOTH",
"202 1331 OFFCURVE",
"206 1319 OFFCURVE",
"224 1319 CURVE SMOOTH",
"280 1319 LINE SMOOTH",
"300 1319 OFFCURVE",
"304 1331 OFFCURVE",
"304 1352 CURVE SMOOTH",
"304 1493 LINE SMOOTH"
);
}
);
};
guideLines = (
{
angle = 90;
position = "{199, 472}";
},
{
angle = 90;
position = "{277, 467}";
}
);
layerId = "91AB5BCA-6A50-42DA-B2F7-8181BF189245";
paths = (
{
closed = 1;
nodes = (
"284 1059 LINE",
"204 1059 LINE",
"204 -92 LINE SMOOTH",
"204 -219 OFFCURVE",
"163 -264 OFFCURVE",
"57 -266 CURVE SMOOTH",
"-70 -268 LINE",
"-70 -322 LINE SMOOTH",
"-70 -322 OFFCURVE",
"-60 -340 OFFCURVE",
"59 -340 CURVE SMOOTH",
"241 -340 OFFCURVE",
"284 -266 OFFCURVE",
"284 -102 CURVE SMOOTH"
);
},
{
closed = 1;
nodes = (
"194 1479 LINE",
"194 1356 LINE",
"292 1356 LINE",
"292 1479 LINE"
);
}
);
width = 482;
}
);
leftKerningGroup = j;
rightKerningGroup = u;
rightMetricsKey = "=|n";
unicode = 006A;
},
{
glyphname = jdotless;
lastChange = "2019-05-24 23:44:44 +0000";
layers = (
{
anchors = (
{
name = top;
position = "{337, 1059}";
}
);
background = {
anchors = (
{
name = top;
position = "{306, 1085}";
}
);
paths = (
{
closed = 1;
nodes = (
"511 1044 LINE SMOOTH",
"511 1069 OFFCURVE",
"498 1085 OFFCURVE",
"474 1085 CURVE SMOOTH",
"142 1085 LINE SMOOTH",
"117 1085 OFFCURVE",
"101 1069 OFFCURVE",
"101 1038 CURVE SMOOTH",
"101 74 LINE SMOOTH",
"101 4 OFFCURVE",
"79 -12 OFFCURVE",
"52 -20 CURVE SMOOTH",
"-20 -33 LINE SMOOTH",
"-46 -39 OFFCURVE",
"-61 -66 OFFCURVE",
"-61 -88 CURVE SMOOTH",
"-59 -297 LINE SMOOTH",
"-59 -340 OFFCURVE",
"-34 -348 OFFCURVE",
"81 -348 CURVE SMOOTH",
"371 -348 OFFCURVE",
"511 -211 OFFCURVE",
"511 59 CURVE SMOOTH"
);
}
);
};
layerId = "258ED206-D907-4350-8EBA-CBDDA1C16BF7";
paths = (
{
closed = 1;
nodes = (
"537 1059 LINE",
"138 1059 LINE",
"138 57 LINE",
"138 14 OFFCURVE",
"115 -12 OFFCURVE",
"40 -29 CURVE",
"-20 -39 LINE",
"-18 -305 LINE",
"-18 -305 OFFCURVE",
"11 -340 OFFCURVE",
"117 -340 CURVE",
"400 -340 OFFCURVE",
"537 -205 OFFCURVE",
"537 57 CURVE SMOOTH"
);
}
);
width = 637;
},
{
anchors = (
{
name = top;
position = "{245, 1059}";
}
);
background = {
anchors = (
{
name = top;
position = "{253, 1085}";
}
);
paths = (
{
closed = 1;
nodes = (
"294 1065 LINE SMOOTH",
"294 1079 OFFCURVE",
"290 1085 OFFCURVE",
"278 1085 CURVE SMOOTH",
"233 1085 LINE SMOOTH",
"218 1085 OFFCURVE",
"212 1079 OFFCURVE",
"212 1065 CURVE SMOOTH",
"212 -94 LINE SMOOTH",
"212 -225 OFFCURVE",
"169 -270 OFFCURVE",
"61 -272 CURVE SMOOTH",
"-58 -274 LINE SMOOTH",
"-66 -274 OFFCURVE",
"-70 -279 OFFCURVE",
"-70 -287 CURVE SMOOTH",
"-70 -330 LINE SMOOTH",
"-70 -346 OFFCURVE",
"-58 -348 OFFCURVE",
"63 -348 CURVE SMOOTH",
"249 -348 OFFCURVE",
"294 -272 OFFCURVE",
"294 -104 CURVE SMOOTH"
);
}
);
};
layerId = "91AB5BCA-6A50-42DA-B2F7-8181BF189245";
paths = (
{
closed = 1;
nodes = (
"286 1059 LINE",
"206 1059 LINE",
"206 -92 LINE SMOOTH",
"206 -219 OFFCURVE",
"163 -264 OFFCURVE",
"59 -266 CURVE SMOOTH",
"-70 -268 LINE",
"-70 -322 LINE SMOOTH",
"-70 -338 OFFCURVE",
"-58 -340 OFFCURVE",
"61 -340 CURVE SMOOTH",
"241 -340 OFFCURVE",
"286 -266 OFFCURVE",
"286 -102 CURVE SMOOTH"
);
}
);
width = 476;
}
);
leftKerningGroup = j;
leftMetricsKey = j;
rightKerningGroup = u;
rightMetricsKey = j;
unicode = 0237;
},
{
glyphname = k;
lastChange = "2019-05-24 23:44:44 +0000";
layers = (
{
anchors = (
{
name = bottom;
position = "{618, 0}";
}
);
background = {
anchors = (
{
name = bottom;
position = "{596, 0}";
}
);
paths = (
{
closed = 1;
nodes = (
"909 690 LINE SMOOTH",
"891 727 OFFCURVE",
"895 739 OFFCURVE",
"913 762 CURVE SMOOTH",
"1177 1026 LINE SMOOTH",
"1204 1055 OFFCURVE",
"1196 1085 OFFCURVE",
"1149 1085 CURVE SMOOTH",
"868 1085 LINE SMOOTH",
"848 1085 OFFCURVE",
"825 1071 OFFCURVE",
"805 1051 CURVE SMOOTH",
"497 705 LINE SMOOTH",
"481 686 OFFCURVE",
"473 696 OFFCURVE",
"473 709 CURVE SMOOTH",
"473 1477 LINE SMOOTH",
"473 1503 OFFCURVE",
"461 1520 OFFCURVE",
"436 1520 CURVE SMOOTH",
"102 1520 LINE SMOOTH",
"80 1520 OFFCURVE",
"63 1503 OFFCURVE",
"63 1473 CURVE SMOOTH",
"63 51 LINE SMOOTH",
"63 16 OFFCURVE",
"76 0 OFFCURVE",
"119 0 CURVE SMOOTH",
"407 0 LINE SMOOTH",
"454 0 OFFCURVE",
"473 16 OFFCURVE",
"473 59 CURVE SMOOTH",
"473 266 LINE SMOOTH",
"473 299 OFFCURVE",
"479 313 OFFCURVE",
"491 324 CURVE SMOOTH",
"590 416 LINE SMOOTH",
"610 436 OFFCURVE",
"620 432 OFFCURVE",
"633 406 CURVE SMOOTH",
"780 53 LINE SMOOTH",
"794 20 OFFCURVE",
"813 0 OFFCURVE",
"848 0 CURVE SMOOTH",
"1198 0 LINE SMOOTH",
"1235 0 OFFCURVE",
"1249 35 OFFCURVE",
"1237 57 CURVE SMOOTH"
);
}
);
};
guideLines = (
{
angle = 50.4927;
position = "{237, 343}";
},
{
angle = 122;
position = "{378, 0}";
}
);
layerId = "258ED206-D907-4350-8EBA-CBDDA1C16BF7";
paths = (
{
closed = 1;
nodes = (
"819 621 LINE",
"1206 1059 LINE",
"790 1059 LINE",
"499 702 LINE",
"499 1522 LINE",
"100 1522 LINE",
"100 0 LINE",
"499 0 LINE",
"499 299 LINE",
"577 389 LINE",
"821 0 LINE",
"1208 0 LINE"
);
}
);
width = 1219;
},
{
anchors = (
{
name = bottom;
position = "{552, 0}";
}
);
background = {
anchors = (
{
name = bottom;
position = "{568, 0}";
}
);
paths = (
{
closed = 1;
nodes = (
"636 678 LINE SMOOTH",
"630 688 OFFCURVE",
"632 694 OFFCURVE",
"638 700 CURVE SMOOTH",
"984 1055 LINE SMOOTH",
"1003 1073 OFFCURVE",
"1001 1085 OFFCURVE",
"980 1085 CURVE SMOOTH",
"915 1085 LINE SMOOTH",
"900 1085 OFFCURVE",
"894 1081 OFFCURVE",
"880 1065 CURVE",
"298 469 LINE SMOOTH",
"282 453 OFFCURVE",
"278 455 OFFCURVE",
"278 479 CURVE SMOOTH",
"278 1499 LINE SMOOTH",
"278 1516 OFFCURVE",
"274 1520 OFFCURVE",
"259 1520 CURVE SMOOTH",
"214 1520 LINE SMOOTH",
"200 1520 OFFCURVE",
"196 1516 OFFCURVE",
"196 1499 CURVE SMOOTH",
"196 20 LINE SMOOTH",
"196 4 OFFCURVE",
"200 0 OFFCURVE",
"218 0 CURVE SMOOTH",
"253 0 LINE SMOOTH",
"274 0 OFFCURVE",
"278 4 OFFCURVE",
"278 25 CURVE SMOOTH",
"278 311 LINE SMOOTH",
"278 326 OFFCURVE",
"282 336 OFFCURVE",
"292 346 CURVE SMOOTH",
"554 612 LINE SMOOTH",
"564 623 OFFCURVE",
"566 618 OFFCURVE",
"570 612 CURVE SMOOTH",
"943 14 LINE SMOOTH",
"949 4 OFFCURVE",
"956 0 OFFCURVE",
"968 0 CURVE SMOOTH",
"1031 0 LINE SMOOTH",
"1050 0 OFFCURVE",
"1052 8 OFFCURVE",
"1042 25 CURVE SMOOTH"
);
}
);
};
guideLines = (
{
angle = 121.8697;
position = "{298, 140}";
}
);
layerId = "91AB5BCA-6A50-42DA-B2F7-8181BF189245";
paths = (
{
closed = 1;
nodes = (
"609 674 LINE",
"988 1059 LINE",
"876 1059 LINE",
"269 438 LINE",
"269 1522 LINE",
"190 1522 LINE",
"190 0 LINE",
"269 0 LINE",
"269 324 LINE",
"548 606 LINE",
"925 0 LINE",
"1027 0 LINE"
);
}
);
width = 1126;
}
);
leftKerningGroup = n;
leftMetricsKey = n;
rightKerningGroup = k;
rightMetricsKey = "=x*1.1";
unicode = 006B;
},
{
glyphname = kgreenlandic;
lastChange = "2019-05-24 23:44:44 +0000";
layers = (
{
background = {
paths = (
{
closed = 1;
nodes = (
"909 690 LINE SMOOTH",
"891 727 OFFCURVE",
"895 739 OFFCURVE",
"913 762 CURVE SMOOTH",
"1177 1026 LINE SMOOTH",
"1204 1055 OFFCURVE",
"1196 1085 OFFCURVE",
"1149 1085 CURVE SMOOTH",
"868 1085 LINE SMOOTH",
"848 1085 OFFCURVE",
"825 1071 OFFCURVE",
"805 1051 CURVE SMOOTH",
"497 705 LINE SMOOTH",
"481 686 OFFCURVE",
"473 696 OFFCURVE",
"473 709 CURVE SMOOTH",
"473 1042 LINE SMOOTH",
"473 1069 OFFCURVE",
"461 1085 OFFCURVE",
"436 1085 CURVE SMOOTH",
"102 1085 LINE SMOOTH",
"80 1085 OFFCURVE",
"63 1069 OFFCURVE",
"63 1038 CURVE SMOOTH",
"63 51 LINE SMOOTH",
"63 16 OFFCURVE",
"76 0 OFFCURVE",
"119 0 CURVE SMOOTH",
"407 0 LINE SMOOTH",
"454 0 OFFCURVE",
"473 16 OFFCURVE",
"473 59 CURVE SMOOTH",
"473 266 LINE SMOOTH",
"473 299 OFFCURVE",
"479 313 OFFCURVE",
"491 324 CURVE SMOOTH",
"590 416 LINE SMOOTH",
"610 436 OFFCURVE",
"620 432 OFFCURVE",
"633 406 CURVE SMOOTH",
"780 53 LINE SMOOTH",
"794 20 OFFCURVE",
"813 0 OFFCURVE",
"848 0 CURVE SMOOTH",
"1198 0 LINE SMOOTH",
"1235 0 OFFCURVE",
"1249 35 OFFCURVE",
"1237 57 CURVE SMOOTH"
);
}
);
};
layerId = "258ED206-D907-4350-8EBA-CBDDA1C16BF7";
paths = (
{
closed = 1;
nodes = (
"903 717 LINE",
"1243 1059 LINE",
"852 1059 LINE",
"499 659 LINE",
"499 1059 LINE",
"100 1059 LINE",
"100 0 LINE",
"499 0 LINE",
"499 299 LINE",
"641 432 LINE",
"821 0 LINE",
"1272 0 LINE"
);
}
);
width = 1283;
},
{
background = {
paths = (
{
closed = 1;
nodes = (
"636 678 LINE SMOOTH",
"630 688 OFFCURVE",
"632 694 OFFCURVE",
"638 700 CURVE SMOOTH",
"984 1055 LINE SMOOTH",
"1003 1073 OFFCURVE",
"1001 1085 OFFCURVE",
"980 1085 CURVE SMOOTH",
"915 1085 LINE SMOOTH",
"900 1085 OFFCURVE",
"894 1081 OFFCURVE",
"880 1065 CURVE",
"298 469 LINE SMOOTH",
"282 453 OFFCURVE",
"278 455 OFFCURVE",
"278 479 CURVE SMOOTH",
"278 1065 LINE SMOOTH",
"278 1081 OFFCURVE",
"274 1085 OFFCURVE",
"259 1085 CURVE SMOOTH",
"214 1085 LINE SMOOTH",
"200 1085 OFFCURVE",
"196 1081 OFFCURVE",
"196 1065 CURVE SMOOTH",
"196 20 LINE SMOOTH",
"196 4 OFFCURVE",
"200 0 OFFCURVE",
"218 0 CURVE SMOOTH",
"253 0 LINE SMOOTH",
"274 0 OFFCURVE",
"278 4 OFFCURVE",
"278 25 CURVE SMOOTH",
"278 311 LINE SMOOTH",
"278 326 OFFCURVE",
"282 336 OFFCURVE",
"292 346 CURVE SMOOTH",
"554 612 LINE SMOOTH",
"564 623 OFFCURVE",
"566 618 OFFCURVE",
"570 612 CURVE SMOOTH",
"943 14 LINE SMOOTH",
"949 4 OFFCURVE",
"956 0 OFFCURVE",
"968 0 CURVE SMOOTH",
"1031 0 LINE SMOOTH",
"1050 0 OFFCURVE",
"1052 8 OFFCURVE",
"1042 25 CURVE SMOOTH"
);
}
);
};
layerId = "91AB5BCA-6A50-42DA-B2F7-8181BF189245";
paths = (
{
closed = 1;
nodes = (
"609 674 LINE",
"988 1059 LINE",
"876 1059 LINE",
"269 438 LINE",
"269 1059 LINE",
"190 1059 LINE",
"190 0 LINE",
"269 0 LINE",
"269 324 LINE",
"548 606 LINE",
"925 0 LINE",
"1027 0 LINE"
);
}
);
width = 1126;
}
);
leftKerningGroup = n;
leftMetricsKey = k;
rightKerningGroup = k;
rightMetricsKey = k;
unicode = 0138;
},
{
glyphname = l;
lastChange = "2019-06-06 17:18:01 +0000";
layers = (
{
anchors = (
{
name = bottom;
position = "{270, 0}";
},
{
name = caron;
position = "{503, 1493}";
},
{
name = top;
position = "{298, 1567}";
}
);
background = {
anchors = (
{
name = bottom;
position = "{153, 0}";
},
{
name = top;
position = "{268, 1520}";
},
{
name = topright;
position = "{651, 1085}";
}
);
paths = (
{
closed = 1;
nodes = (
"630 264 LINE",
"630 264 OFFCURVE",
"577 268 OFFCURVE",
"558 272 CURVE SMOOTH",
"479 291 OFFCURVE",
"464 334 OFFCURVE",
"464 389 CURVE SMOOTH",
"464 1520 LINE",
"61 1520 LINE",
"55 354 LINE",
"55 195 OFFCURVE",
"77 -2 OFFCURVE",
"476 4 CURVE SMOOTH",
"530 6 OFFCURVE",
"562 10 OFFCURVE",
"630 18 CURVE"
);
}
);
};
layerId = "258ED206-D907-4350-8EBA-CBDDA1C16BF7";
paths = (
{
closed = 1;
nodes = (
"554 -23 OFFCURVE",
"605 -8 OFFCURVE",
"653 10 CURVE",
"653 252 LINE",
"610 256 LINE",
"503 270 OFFCURVE",
"491 322 OFFCURVE",
"491 373 CURVE SMOOTH",
"491 1522 LINE",
"100 1522 LINE",
"100 319 LINE",
"100 164 OFFCURVE",
"112 -23 OFFCURVE",
"503 -23 CURVE SMOOTH"
);
}
);
width = 712;
},
{
anchors = (
{
name = bottom;
position = "{272, 2}";
},
{
name = caron;
position = "{271, 1481}";
},
{
name = top;
position = "{223, 1561}";
}
);
background = {
anchors = (
{
name = bottom;
position = "{231, 0}";
},
{
name = top;
position = "{231, 1520}";
},
{
name = topright;
position = "{528, 1520}";
}
);
paths = (
{
closed = 1;
nodes = (
"497 74 LINE",
"477 74 OFFCURVE",
"450 74 OFFCURVE",
"417 74 CURVE SMOOTH",
"286 74 OFFCURVE",
"272 178 OFFCURVE",
"272 266 CURVE",
"272 1520 LINE",
"190 1520 LINE",
"190 266 LINE",
"190 117 OFFCURVE",
"247 4 OFFCURVE",
"393 4 CURVE SMOOTH",
"442 4 OFFCURVE",
"471 6 OFFCURVE",
"497 12 CURVE"
);
}
);
};
layerId = "91AB5BCA-6A50-42DA-B2F7-8181BF189245";
paths = (
{
closed = 1;
nodes = (
"401 -8 OFFCURVE",
"430 -6 OFFCURVE",
"454 0 CURVE",
"454 59 LINE",
"389 59 LINE",
"331 59 OFFCURVE",
"270 111 OFFCURVE",
"270 248 CURVE",
"270 1522 LINE",
"190 1522 LINE",
"190 248 LINE",
"190 102 OFFCURVE",
"245 -8 OFFCURVE",
"387 -8 CURVE SMOOTH"
);
}
);
width = 565;
}
);
leftKerningGroup = n;
leftMetricsKey = n;
rightKerningGroup = l;
rightMetricsKey = "=u*.65";
unicode = 006C;
},
{
glyphname = lslash;
lastChange = "2019-05-24 23:44:44 +0000";
layers = (
{
background = {
components = (
{
name = l;
transform = "{1, 0, 0, 1, -34, 0}";
}
);
paths = (
{
closed = 1;
nodes = (
"615 1038 OFFCURVE",
"601 1047 OFFCURVE",
"566 1024 CURVE SMOOTH",
"-10 664 LINE SMOOTH",
"-34 647 OFFCURVE",
"-49 625 OFFCURVE",
"-49 594 CURVE SMOOTH",
"-49 348 LINE SMOOTH",
"-49 313 OFFCURVE",
"-36 307 OFFCURVE",
"5 334 CURVE SMOOTH",
"574 707 LINE SMOOTH",
"601 725 OFFCURVE",
"615 750 OFFCURVE",
"615 774 CURVE SMOOTH",
"615 1006 LINE SMOOTH"
);
}
);
};
components = (
{
name = l;
transform = "{1, 0, 0, 1, 70, 0}";
}
);
layerId = "258ED206-D907-4350-8EBA-CBDDA1C16BF7";
leftMetricsKey = "=l-30";
rightMetricsKey = "=l";
paths = (
{
closed = 1;
nodes = (
"70 623 LINE",
"70 291 LINE",
"717 715 LINE",
"717 1028 LINE"
);
}
);
width = 782;
},
{
background = {
components = (
{
name = l;
transform = "{1, 0, 0, 1, 144, 0}";
}
);
paths = (
{
closed = 1;
nodes = (
"567 895 OFFCURVE",
"563 899 OFFCURVE",
"553 891 CURVE SMOOTH",
"92 461 LINE SMOOTH",
"86 455 OFFCURVE",
"82 449 OFFCURVE",
"82 440 CURVE SMOOTH",
"82 381 LINE SMOOTH",
"82 371 OFFCURVE",
"86 362 OFFCURVE",
"96 371 CURVE SMOOTH",
"555 803 LINE SMOOTH",
"563 811 OFFCURVE",
"567 817 OFFCURVE",
"567 825 CURVE SMOOTH",
"567 887 LINE SMOOTH"
);
}
);
};
components = (
{
name = l;
transform = "{1, 0, 0, 1, 88, 0}";
}
);
layerId = "91AB5BCA-6A50-42DA-B2F7-8181BF189245";
leftMetricsKey = "=l-110";
paths = (
{
closed = 1;
nodes = (
"80 440 LINE",
"80 348 LINE",
"553 795 LINE",
"553 883 LINE"
);
}
);
width = 684;
}
);
leftKerningGroup = n;
leftMetricsKey = "=l-130";
rightKerningGroup = l;
rightMetricsKey = "=l+20";
unicode = 0142;
},
